<?xml version="1.0" encoding="UTF-8"?>
<!DOCTYPE svg PUBLIC "-//W3C//DTD SVG 1.1//EN" "http://www.w3.org/Graphics/SVG/1.1/DTD/svg11.dtd">
<!-- Creator: CorelDRAW (Evaluation Version) -->
<svg xmlns="http://www.w3.org/2000/svg" xml:space="preserve" width="120mm" height="110mm" version="1.1" style="shape-rendering:geometricPrecision; text-rendering:geometricPrecision; image-rendering:optimizeQuality; fill-rule:evenodd; clip-rule:evenodd"
viewBox="0 0 12000 11000"
 xmlns:xlink="http://www.w3.org/1999/xlink"
 xmlns:xodm="http://www.corel.com/coreldraw/odm/2003">
 <defs>
  <style type="text/css">
   <![CDATA[
    .fil166 {fill:#E5097F}
    .fil0 {fill:#E50A7F}
    .fil1 {fill:#E40B80}
    .fil2 {fill:#E30B7F}
    .fil3 {fill:#E30C7F}
    .fil4 {fill:#E20C7F}
    .fil5 {fill:#E10D7F}
    .fil6 {fill:#E00E7F}
    .fil7 {fill:#E00E7F}
    .fil8 {fill:#DF0F7F}
    .fil9 {fill:#DE107F}
    .fil10 {fill:#DD107F}
    .fil11 {fill:#DD117F}
    .fil12 {fill:#DC117F}
    .fil13 {fill:#DB127E}
    .fil14 {fill:#DA137F}
    .fil15 {fill:#DA137F}
    .fil16 {fill:#D9147F}
    .fil17 {fill:#D8147E}
    .fil18 {fill:#D8147E}
    .fil19 {fill:#D7157E}
    .fil20 {fill:#D6157E}
    .fil21 {fill:#D6157E}
    .fil22 {fill:#D5157E}
    .fil23 {fill:#D5167E}
    .fil24 {fill:#D4167E}
    .fil25 {fill:#D4167E}
    .fil26 {fill:#D2177E}
    .fil27 {fill:#D2177E}
    .fil28 {fill:#D1177E}
    .fil29 {fill:#D0187D}
    .fil30 {fill:#CF187D}
    .fil31 {fill:#CF187D}
    .fil32 {fill:#CE197D}
    .fil33 {fill:#CD197D}
    .fil34 {fill:#CD1A7D}
    .fil35 {fill:#CC1A7D}
    .fil36 {fill:#CB1A7D}
    .fil37 {fill:#CA1A7D}
    .fil38 {fill:#CA1A7D}
    .fil39 {fill:#C91B7D}
    .fil40 {fill:#C81B7D}
    .fil41 {fill:#C71B7D}
    .fil42 {fill:#C71B7D}
    .fil43 {fill:#C61B7D}
    .fil44 {fill:#C61C7D}
    .fil45 {fill:#C41C7D}
    .fil46 {fill:#C41C7D}
    .fil47 {fill:#C31C7D}
    .fil48 {fill:#C21D7C}
    .fil49 {fill:#C21D7C}
    .fil50 {fill:#C11D7C}
    .fil51 {fill:#C01D7C}
    .fil52 {fill:#BF1E7C}
    .fil53 {fill:#BF1E7C}
    .fil54 {fill:#BE1E7C}
    .fil55 {fill:#BE1E7C}
    .fil56 {fill:#BC1E7C}
    .fil57 {fill:#BC1E7C}
    .fil58 {fill:#BB1F7C}
    .fil59 {fill:#BB1F7C}
    .fil60 {fill:#BA1F7B}
    .fil61 {fill:#B91F7B}
    .fil62 {fill:#B9207B}
    .fil63 {fill:#B8207B}
    .fil64 {fill:#B7207B}
    .fil65 {fill:#B7207B}
    .fil66 {fill:#B6207B}
    .fil67 {fill:#B6207B}
    .fil68 {fill:#B5217B}
    .fil69 {fill:#B4217B}
    .fil70 {fill:#B4217B}
    .fil71 {fill:#B3217B}
    .fil72 {fill:#B2217A}
    .fil73 {fill:#B1217A}
    .fil74 {fill:#B1227A}
    .fil75 {fill:#B0227A}
    .fil76 {fill:#B0227A}
    .fil77 {fill:#AF227A}
    .fil78 {fill:#AF227A}
    .fil79 {fill:#AE227A}
    .fil80 {fill:#AD227A}
    .fil81 {fill:#AC237A}
    .fil82 {fill:#AC237A}
    .fil83 {fill:#AB237A}
    .fil84 {fill:#AA237A}
    .fil85 {fill:#A9237A}
    .fil86 {fill:#A9237A}
    .fil87 {fill:#A8247A}
    .fil88 {fill:#A8247A}
    .fil89 {fill:#A72479}
    .fil90 {fill:#A62479}
    .fil91 {fill:#A52479}
    .fil92 {fill:#A42479}
    .fil93 {fill:#A42479}
    .fil94 {fill:#A32579}
    .fil95 {fill:#A32579}
    .fil96 {fill:#A12579}
    .fil97 {fill:#A12579}
    .fil98 {fill:#A02579}
    .fil99 {fill:#A02579}
    .fil100 {fill:#9F2578}
    .fil101 {fill:#9E2578}
    .fil102 {fill:#9D2679}
    .fil103 {fill:#9D2679}
    .fil104 {fill:#9C2678}
    .fil105 {fill:#9B2678}
    .fil106 {fill:#9A2678}
    .fil107 {fill:#9A2678}
    .fil108 {fill:#992678}
    .fil109 {fill:#992678}
    .fil110 {fill:#982678}
    .fil111 {fill:#982778}
    .fil112 {fill:#972778}
    .fil113 {fill:#962778}
    .fil114 {fill:#952778}
    .fil115 {fill:#952778}
    .fil116 {fill:#942777}
    .fil117 {fill:#932777}
    .fil118 {fill:#922777}
    .fil119 {fill:#922777}
    .fil120 {fill:#912777}
    .fil121 {fill:#912777}
    .fil122 {fill:#902877}
    .fil123 {fill:#8F2877}
    .fil124 {fill:#8F2877}
    .fil125 {fill:#8E2877}
    .fil126 {fill:#8D2877}
    .fil127 {fill:#8D2877}
    .fil128 {fill:#8C2877}
    .fil129 {fill:#8B2876}
    .fil130 {fill:#8A2876}
    .fil131 {fill:#8A2876}
    .fil132 {fill:#892876}
    .fil133 {fill:#882876}
    .fil134 {fill:#872876}
    .fil135 {fill:#872976}
    .fil136 {fill:#862876}
    .fil137 {fill:#852976}
    .fil138 {fill:#852976}
    .fil139 {fill:#842976}
    .fil140 {fill:#832976}
    .fil141 {fill:#822976}
    .fil142 {fill:#822976}
    .fil143 {fill:#812976}
    .fil144 {fill:#802975}
    .fil145 {fill:#7F2975}
    .fil146 {fill:#7F2975}
    .fil147 {fill:#7E2975}
    .fil148 {fill:#7D2975}
    .fil149 {fill:#7C2975}
    .fil150 {fill:#7C2975}
    .fil151 {fill:#7B2A75}
    .fil152 {fill:#7B2975}
    .fil153 {fill:#7A2A75}
    .fil154 {fill:#7A2A75}
    .fil155 {fill:#792A75}
    .fil156 {fill:#782A75}
    .fil157 {fill:#772A74}
    .fil158 {fill:#772A74}
    .fil159 {fill:#762A74}
    .fil160 {fill:#762A74}
    .fil161 {fill:#752A74}
    .fil162 {fill:#742B74}
    .fil163 {fill:#732B74}
    .fil164 {fill:#732B74}
    .fil165 {fill:#722B74}
   ]]>
  </style>
    <clipPath id="id0">
     <path d="M1756.15 8004.97c-197.23,-317.85 -345.45,-669.29 -433.98,-1043.84l390.05 -26.62c81.94,317.37 212.21,615.29 382.43,885.52 33.93,-5.93 68.84,-9.05 104.47,-9.05 133.1,0 256.1,43.18 355.84,116.23l1341.23 -1049.65c-126.88,-194.4 -200.69,-426.6 -200.69,-676.06 0,-520.9 321.55,-966.65 776.98,-1149.69l-388.18 -1734.58c-213.69,-30.21 -378.06,-213.8 -378.06,-435.82 0,-243.12 197.09,-440.21 440.21,-440.21 243.12,0 440.21,197.09 440.21,440.21 0,158.61 -83.91,297.61 -209.73,375.09l384.56 1718.37c56.44,-7.88 114.07,-12.04 172.68,-12.04 684.1,0 1238.67,554.57 1238.67,1238.67 0,684.1 -554.57,1238.67 -1238.67,1238.67 -326.94,0 -624.25,-126.71 -845.6,-333.65l-1343.48 1051.42c36.49,77.68 56.9,164.41 56.9,255.91 0,332.95 -269.92,602.87 -602.87,602.87 -332.95,0 -602.87,-269.92 -602.87,-602.87 0,-157.8 60.66,-301.42 159.9,-408.88zm5252.02 -1807.17c137.83,0 249.57,111.74 249.57,249.57 0,137.83 -111.74,249.57 -249.57,249.57 -137.83,0 -249.57,-111.74 -249.57,-249.57 0,-137.83 111.74,-249.57 249.57,-249.57zm-417.6 3723.55c168.47,0 305.05,136.58 305.05,305.05 0,168.47 -136.58,305.05 -305.05,305.05 -168.47,0 -305.05,-136.58 -305.05,-305.05 0,-168.47 136.58,-305.05 305.05,-305.05zm-3057.66 -730.28c120.08,0 217.43,97.35 217.43,217.43 0,120.08 -97.35,217.43 -217.43,217.43 -120.08,0 -217.43,-97.35 -217.43,-217.43 0,-120.08 97.35,-217.43 217.43,-217.43zm1771.55 112.75c228.64,0 413.99,185.35 413.99,413.99 0,228.64 -185.35,413.99 -413.99,413.99 -139.7,0 -263.22,-69.2 -338.19,-175.18l-1726.57 493.31c-6.85,177.59 -152.94,319.46 -332.21,319.46 -183.63,0 -332.49,-148.86 -332.49,-332.49 0,-183.63 148.86,-332.49 332.49,-332.49 117.39,0 220.56,60.85 279.73,152.71l1706.47 -487.56c-2.11,-16.96 -3.22,-34.23 -3.22,-51.75 0,-91.64 29.8,-176.31 80.21,-244.9l-624.65 -624.65c-49.45,24.44 -105.13,38.2 -164.03,38.2 -204.72,0 -370.67,-165.95 -370.67,-370.67 0,-204.72 165.95,-370.67 370.67,-370.67 204.72,0 370.67,165.95 370.67,370.67 0,73.09 -21.16,141.22 -57.67,198.64l630.14 630.14c54.26,-26.12 115.08,-40.75 179.32,-40.75zm-1916.24 -5429.49c129.68,0 234.81,105.13 234.81,234.81 0,129.68 -105.13,234.81 -234.81,234.81 -129.68,0 -234.81,-105.13 -234.81,-234.81 0,-129.68 105.13,-234.81 234.81,-234.81zm-2738.43 -207.55c188.14,0 340.66,152.52 340.66,340.66 0,188.14 -152.52,340.66 -340.66,340.66 -188.14,0 -340.66,-152.52 -340.66,-340.66 0,-188.14 152.52,-340.66 340.66,-340.66zm968.21 2290.23c113.87,72.87 189.36,200.47 189.36,345.7 0,226.51 -183.62,410.13 -410.13,410.13 -226.51,0 -410.13,-183.62 -410.13,-410.13 0,-168.54 101.67,-313.32 247.03,-376.39 85.11,-1389.7 973.76,-2562.05 2207.2,-3058.58l75.83 385.52c-1065.59,458.35 -1827.33,1488.21 -1899.16,2703.75zm1252.29 -1120.1c334.26,0 605.23,270.97 605.23,605.23 0,334.26 -270.97,605.23 -605.23,605.23 -334.26,0 -605.23,-270.97 -605.23,-605.23 0,-334.26 270.97,-605.23 605.23,-605.23zm2551.09 -2804.37c132.73,0 240.33,107.6 240.33,240.33 0,132.73 -107.6,240.33 -240.33,240.33 -132.73,0 -240.33,-107.6 -240.33,-240.33 0,-132.73 107.6,-240.33 240.33,-240.33zm247.59 -1070.01l0 -760.68 2857.51 0 0 833.44 -562.25 0 0 1587.5 2521.03 1455.52 0 3882.48 -3394.19 1964.5 -1580.89 -912.81 59.53 -171.98 681.3 -337.35 773.91 443.18 595.32 -654.84 -436.57 -721 304.27 -681.3 813.6 -238.13 -29.74 -849.94 -790.43 -185.2 -304.27 -668.08 420.05 -800.35 -635 -641.62 -635 449.79 -72.76 39.69c0,0 -198.43,-191.83 -377.03,-257.97 -178.6,-66.14 -304.28,-39.69 -304.28,-39.69l-145.52 -568.85 780.53 -496.1 0 -1640.4 -549.02 0 9.9 -29.81zm3766.28 3842.65c132.39,0 239.72,107.33 239.72,239.72 0,132.39 -107.33,239.72 -239.72,239.72 -132.39,0 -239.72,-107.33 -239.72,-239.72 0,-132.39 107.33,-239.72 239.72,-239.72zm-1117.09 -740.11c255.72,0 463.03,207.31 463.03,463.03 0,152.52 -73.76,287.81 -187.54,372.17l578.83 1263.86c9,-0.72 18.1,-1.08 27.28,-1.08 188.3,0 340.95,152.65 340.95,340.95 0,188.3 -152.65,340.95 -340.95,340.95 -46.04,0 -89.93,-9.14 -130,-25.68l-440.47 538.65c42.73,56.96 68.06,127.73 68.06,204.42 0,188.3 -152.65,340.95 -340.95,340.95 -188.3,0 -340.95,-152.65 -340.95,-340.95 0,-188.3 152.65,-340.95 340.95,-340.95 39.15,0 76.75,6.62 111.76,18.76l447.63 -547.41c-35.99,-54.04 -56.98,-118.94 -56.98,-188.74 0,-107.8 50.04,-203.89 128.14,-266.37l-575.21 -1255.97c-30.23,6.2 -61.52,9.47 -93.58,9.47 -255.72,0 -463.03,-207.31 -463.03,-463.03 0,-255.72 207.31,-463.03 463.03,-463.03z"/>
    </clipPath>
 </defs>
 <g id="Layer_x0020_1">
  <metadata id="CorelCorpID_0Corel-Layer"/>
  <g>
   <g style="clip-path:url(#id0)">
    <polygon class="fil0" points="4888.39,7387.78 -4012.85,7331.06 -4004.81,6990.87 "/>
    <polygon id="_1" class="fil1" points="4888.39,7387.78 -4006.15,7047.57 -3992.75,6764.34 "/>
    <polygon id="_2" class="fil2" points="4888.39,7387.78 -3995.43,6820.99 -3975.34,6538.19 "/>
    <polygon id="_3" class="fil2" points="4888.39,7387.78 -3979.36,6594.76 -3952.59,6312.55 "/>
    <polygon id="_4" class="fil3" points="4888.39,7387.78 -3957.95,6369 -3924.52,6087.56 "/>
    <polygon id="_5" class="fil4" points="4888.39,7387.78 -3931.21,6143.86 -3891.14,5863.36 "/>
    <polygon id="_6" class="fil5" points="4888.39,7387.78 -3899.15,5919.46 -3852.47,5640.07 "/>
    <polygon id="_7" class="fil6" points="4888.39,7387.78 -3861.81,5695.96 -3808.53,5417.83 "/>
    <polygon id="_8" class="fil7" points="4888.39,7387.78 -3819.19,5473.46 -3759.36,5196.78 "/>
    <polygon id="_9" class="fil8" points="4888.39,7387.78 -3771.33,5252.13 -3704.98,4977.05 "/>
    <polygon id="_10" class="fil8" points="4888.39,7387.78 -3718.25,5032.08 -3645.42,4758.78 "/>
    <polygon id="_11" class="fil9" points="4888.39,7387.78 -3659.99,4813.44 -3580.72,4542.08 "/>
    <polygon id="_12" class="fil10" points="4888.39,7387.78 -3596.58,4596.36 -3510.92,4327.1 "/>
    <polygon id="_13" class="fil11" points="4888.39,7387.78 -3528.05,4380.96 -3436.06,4113.97 "/>
    <polygon id="_14" class="fil12" points="4888.39,7387.78 -3454.46,4167.37 -3356.18,3902.8 "/>
    <polygon id="_15" class="fil13" points="4888.39,7387.78 -3375.84,3955.72 -3271.34,3693.74 "/>
    <polygon id="_16" class="fil14" points="4888.39,7387.78 -3292.25,3746.14 -3181.59,3486.9 "/>
    <polygon id="_17" class="fil14" points="4888.39,7387.78 -3203.72,3538.75 -3086.97,3282.41 "/>
    <polygon id="_18" class="fil15" points="4888.39,7387.78 -3110.32,3333.68 -2987.55,3080.39 "/>
    <polygon id="_19" class="fil16" points="4888.39,7387.78 -3012.11,3131.06 -2883.38,2880.97 "/>
    <polygon id="_20" class="fil17" points="4888.39,7387.78 -2909.13,2930.99 -2774.54,2684.26 "/>
    <polygon id="_21" class="fil18" points="4888.39,7387.78 -2801.46,2733.61 -2661.07,2490.39 "/>
    <polygon id="_22" class="fil19" points="4888.39,7387.78 -2689.16,2539.04 -2543.06,2299.46 "/>
    <polygon id="_23" class="fil20" points="4888.39,7387.78 -2572.29,2347.38 -2420.58,2111.6 "/>
    <polygon id="_24" class="fil21" points="4888.39,7387.78 -2450.92,2158.77 -2293.69,1926.92 "/>
    <polygon id="_25" class="fil22" points="4888.39,7387.78 -2325.14,1973.3 -2162.47,1745.53 "/>
    <polygon id="_26" class="fil23" points="4888.39,7387.78 -2195.01,1791.09 -2027.01,1567.54 "/>
    <polygon id="_27" class="fil24" points="4888.39,7387.78 -2060.62,1612.25 -1887.38,1393.05 "/>
    <polygon id="_28" class="fil25" points="4888.39,7387.78 -1922.03,1436.9 -1743.67,1222.17 "/>
    <polygon id="_29" class="fil26" points="4888.39,7387.78 -1779.35,1265.12 -1595.97,1055.01 "/>
    <polygon id="_30" class="fil27" points="4888.39,7387.78 -1632.65,1097.04 -1444.36,891.66 "/>
    <polygon id="_31" class="fil27" points="4888.39,7387.78 -1482.02,932.75 -1288.93,732.23 "/>
    <polygon id="_32" class="fil28" points="4888.39,7387.78 -1327.56,772.34 -1129.79,576.8 "/>
    <polygon id="_33" class="fil29" points="4888.39,7387.78 -1169.35,615.92 -967.02,425.48 "/>
    <polygon id="_34" class="fil30" points="4888.39,7387.78 -1007.49,463.57 -800.72,278.35 "/>
    <polygon id="_35" class="fil31" points="4888.39,7387.78 -842.08,315.4 -630.99,135.51 "/>
    <polygon id="_36" class="fil32" points="4888.39,7387.78 -673.22,171.49 -457.94,-2.97 "/>
    <polygon id="_37" class="fil33" points="4888.39,7387.78 -501,31.92 -281.67,-137 "/>
    <polygon id="_38" class="fil33" points="4888.39,7387.78 -325.54,-103.21 -102.29,-266.49 "/>
    <polygon id="_39" class="fil34" points="4888.39,7387.78 -146.95,-233.83 80.1,-391.38 "/>
    <polygon id="_40" class="fil35" points="4888.39,7387.78 34.69,-359.86 265.39,-511.57 "/>
    <polygon id="_41" class="fil36" points="4888.39,7387.78 219.24,-481.23 453.46,-627.01 "/>
    <polygon id="_42" class="fil37" points="4888.39,7387.78 406.61,-597.85 644.21,-737.62 "/>
    <polygon id="_43" class="fil38" points="4888.39,7387.78 596.68,-709.66 837.51,-843.34 "/>
    <polygon id="_44" class="fil39" points="4888.39,7387.78 789.33,-816.6 1033.25,-944.1 "/>
    <polygon id="_45" class="fil39" points="4888.39,7387.78 984.46,-918.59 1231.31,-1039.84 "/>
    <polygon id="_46" class="fil40" points="4888.39,7387.78 1181.93,-1015.58 1431.57,-1130.5 "/>
    <polygon id="_47" class="fil41" points="4888.39,7387.78 1381.64,-1107.51 1633.92,-1216.03 "/>
    <polygon id="_48" class="fil42" points="4888.39,7387.78 1583.45,-1194.33 1838.23,-1296.38 "/>
    <polygon id="_49" class="fil43" points="4888.39,7387.78 1787.26,-1275.97 2044.37,-1371.5 "/>
    <polygon id="_50" class="fil44" points="4888.39,7387.78 1992.94,-1352.39 2252.23,-1441.34 "/>
    <polygon id="_51" class="fil45" points="4888.39,7387.78 2200.36,-1423.55 2461.68,-1505.87 "/>
    <polygon id="_52" class="fil45" points="4888.39,7387.78 2409.41,-1489.4 2672.58,-1565.03 "/>
    <polygon id="_53" class="fil46" points="4888.39,7387.78 2619.94,-1549.9 2884.83,-1618.81 "/>
    <polygon id="_54" class="fil47" points="4888.39,7387.78 2831.84,-1605.02 3098.27,-1667.15 "/>
    <polygon id="_55" class="fil48" points="4888.39,7387.78 3044.98,-1654.73 3312.8,-1710.05 "/>
    <polygon id="_56" class="fil49" points="4888.39,7387.78 3259.23,-1698.98 3528.28,-1747.46 "/>
    <polygon id="_57" class="fil50" points="4888.39,7387.78 3474.46,-1737.77 3744.57,-1779.37 "/>
    <polygon id="_58" class="fil51" points="4888.39,7387.78 3690.54,-1771.05 3961.56,-1805.76 "/>
    <polygon id="_59" class="fil51" points="4888.39,7387.78 3907.35,-1798.82 4179.1,-1826.61 "/>
    <polygon id="_60" class="fil52" points="4888.39,7387.78 4124.74,-1821.06 4397.07,-1841.92 "/>
    <polygon id="_61" class="fil53" points="4888.39,7387.78 4342.6,-1837.74 4615.34,-1851.66 "/>
    <polygon id="_62" class="fil54" points="4888.39,7387.78 4560.78,-1848.87 4833.77,-1855.83 "/>
    <polygon id="_63" class="fil55" points="4888.39,7387.78 4779.16,-1854.44 5052.23,-1854.44 "/>
    <polygon id="_64" class="fil56" points="4888.39,7387.78 4997.61,-1854.44 5270.6,-1847.48 "/>
    <polygon id="_65" class="fil57" points="4888.39,7387.78 5215.99,-1848.87 5488.73,-1834.96 "/>
    <polygon id="_66" class="fil57" points="4888.39,7387.78 5434.18,-1837.74 5706.51,-1816.88 "/>
    <polygon id="_67" class="fil58" points="4888.39,7387.78 5652.03,-1821.06 5923.79,-1793.26 "/>
    <polygon id="_68" class="fil59" points="4888.39,7387.78 5869.43,-1798.82 6140.44,-1764.11 "/>
    <polygon id="_69" class="fil60" points="4888.39,7387.78 6086.23,-1771.05 6356.35,-1729.44 "/>
    <polygon id="_70" class="fil61" points="4888.39,7387.78 6302.32,-1737.77 6571.37,-1689.29 "/>
    <polygon id="_71" class="fil62" points="4888.39,7387.78 6517.55,-1698.98 6785.37,-1643.66 "/>
    <polygon id="_72" class="fil63" points="4888.39,7387.78 6731.8,-1654.73 6998.23,-1592.6 "/>
    <polygon id="_73" class="fil64" points="4888.39,7387.78 6944.94,-1605.02 7209.82,-1536.12 "/>
    <polygon id="_74" class="fil65" points="4888.39,7387.78 7156.84,-1549.9 7420.02,-1474.27 "/>
    <polygon id="_75" class="fil66" points="4888.39,7387.78 7367.37,-1489.4 7628.68,-1407.08 "/>
    <polygon id="_76" class="fil67" points="4888.39,7387.78 7576.41,-1423.55 7835.7,-1334.6 "/>
    <polygon id="_77" class="fil68" points="4888.39,7387.78 7783.83,-1352.39 8040.94,-1256.86 "/>
    <polygon id="_78" class="fil69" points="4888.39,7387.78 7989.51,-1275.97 8244.28,-1173.91 "/>
    <polygon id="_79" class="fil70" points="4888.39,7387.78 8193.32,-1194.33 8445.61,-1085.81 "/>
    <polygon id="_80" class="fil70" points="4888.39,7387.78 8395.14,-1107.51 8644.78,-992.6 "/>
    <polygon id="_81" class="fil71" points="4888.39,7387.78 8594.85,-1015.58 8841.7,-894.34 "/>
    <polygon id="_82" class="fil72" points="4888.39,7387.78 8792.32,-918.59 9036.23,-791.1 "/>
    <polygon id="_83" class="fil73" points="4888.39,7387.78 8987.44,-816.6 9228.27,-682.92 "/>
    <polygon id="_84" class="fil74" points="4888.39,7387.78 9180.1,-709.66 9417.69,-569.89 "/>
    <polygon id="_85" class="fil75" points="4888.39,7387.78 9370.17,-597.85 9604.39,-452.06 "/>
    <polygon id="_86" class="fil76" points="4888.39,7387.78 9557.53,-481.23 9788.24,-329.52 "/>
    <polygon id="_87" class="fil77" points="4888.39,7387.78 9742.09,-359.86 9969.14,-202.32 "/>
    <polygon id="_88" class="fil78" points="4888.39,7387.78 9923.72,-233.83 10146.98,-70.55 "/>
    <polygon id="_89" class="fil79" points="4888.39,7387.78 10102.32,-103.21 10321.65,65.71 "/>
    <polygon id="_90" class="fil80" points="4888.39,7387.78 10277.78,31.92 10493.05,206.39 "/>
    <polygon id="_91" class="fil81" points="4888.39,7387.78 10449.99,171.49 10661.08,351.39 "/>
    <polygon id="_92" class="fil82" points="4888.39,7387.78 10618.85,315.4 10825.62,500.62 "/>
    <polygon id="_93" class="fil83" points="4888.39,7387.78 10784.26,463.57 10986.6,654.01 "/>
    <polygon id="_94" class="fil83" points="4888.39,7387.78 10946.12,615.92 11143.89,811.45 "/>
    <polygon id="_95" class="fil84" points="4888.39,7387.78 11104.33,772.34 11297.42,972.85 "/>
    <polygon id="_96" class="fil85" points="4888.39,7387.78 11258.8,932.75 11447.09,1138.12 "/>
    <polygon id="_97" class="fil86" points="4888.39,7387.78 11409.43,1097.04 11592.81,1307.15 "/>
    <polygon id="_98" class="fil87" points="4888.39,7387.78 11556.13,1265.12 11734.49,1479.85 "/>
    <polygon id="_99" class="fil88" points="4888.39,7387.78 11698.81,1436.9 11872.04,1656.1 "/>
    <polygon id="_100" class="fil89" points="4888.39,7387.78 11837.39,1612.25 12005.39,1835.81 "/>
    <polygon id="_101" class="fil89" points="4888.39,7387.78 11971.79,1791.09 12134.46,2018.86 "/>
    <polygon id="_102" class="fil90" points="4888.39,7387.78 12101.92,1973.3 12259.15,2205.14 "/>
    <polygon id="_103" class="fil91" points="4888.39,7387.78 12227.7,2158.77 12379.41,2394.55 "/>
    <polygon id="_104" class="fil92" points="4888.39,7387.78 12349.06,2347.38 12495.16,2586.96 "/>
    <polygon id="_105" class="fil93" points="4888.39,7387.78 12465.93,2539.04 12606.32,2782.27 "/>
    <polygon id="_106" class="fil94" points="4888.39,7387.78 12578.24,2733.61 12712.83,2980.35 "/>
    <polygon id="_107" class="fil95" points="4888.39,7387.78 12685.91,2930.99 12814.63,3181.08 "/>
    <polygon id="_108" class="fil95" points="4888.39,7387.78 12788.88,3131.06 12911.66,3384.35 "/>
    <polygon id="_109" class="fil96" points="4888.39,7387.78 12887.1,3333.68 13003.85,3590.03 "/>
    <polygon id="_110" class="fil97" points="4888.39,7387.78 12980.5,3538.75 13091.16,3798 "/>
    <polygon id="_111" class="fil98" points="4888.39,7387.78 13069.02,3746.14 13173.52,4008.13 "/>
    <polygon id="_112" class="fil99" points="4888.39,7387.78 13152.62,3955.72 13250.9,4220.3 "/>
    <polygon id="_113" class="fil100" points="4888.39,7387.78 13231.24,4167.37 13323.23,4434.37 "/>
    <polygon id="_114" class="fil101" points="4888.39,7387.78 13304.83,4380.96 13390.49,4650.22 "/>
    <polygon id="_115" class="fil101" points="4888.39,7387.78 13373.35,4596.36 13452.62,4867.72 "/>
    <polygon id="_116" class="fil102" points="4888.39,7387.78 13436.76,4813.44 13509.6,5086.74 "/>
    <polygon id="_117" class="fil103" points="4888.39,7387.78 13495.03,5032.08 13561.38,5307.15 "/>
    <polygon id="_118" class="fil104" points="4888.39,7387.78 13548.11,5252.13 13607.94,5528.81 "/>
    <polygon id="_119" class="fil105" points="4888.39,7387.78 13595.97,5473.46 13649.24,5751.59 "/>
    <polygon id="_120" class="fil106" points="4888.39,7387.78 13638.58,5695.96 13685.27,5975.35 "/>
    <polygon id="_121" class="fil107" points="4888.39,7387.78 13675.93,5919.46 13716,6199.97 "/>
    <polygon id="_122" class="fil108" points="4888.39,7387.78 13707.98,6143.86 13741.41,6425.3 "/>
    <polygon id="_123" class="fil109" points="4888.39,7387.78 13734.72,6369 13761.49,6651.21 "/>
    <polygon id="_124" class="fil110" points="4888.39,7387.78 13756.14,6594.76 13776.22,6877.56 "/>
    <polygon id="_125" class="fil111" points="4888.39,7387.78 13772.21,6820.99 13785.6,7104.23 "/>
    <polygon id="_126" class="fil112" points="4888.39,7387.78 13782.92,7047.57 13789.63,7331.06 "/>
    <polygon id="_127" class="fil113" points="4888.39,7387.78 13788.29,7274.35 13788.29,7557.93 "/>
    <polygon id="_128" class="fil114" points="4888.39,7387.78 13788.29,7501.2 13781.58,7784.69 "/>
    <polygon id="_129" class="fil114" points="4888.39,7387.78 13782.92,7727.98 13769.53,8011.21 "/>
    <polygon id="_130" class="fil115" points="4888.39,7387.78 13772.21,7954.56 13752.12,8237.36 "/>
    <polygon id="_131" class="fil116" points="4888.39,7387.78 13756.14,8180.79 13729.37,8463 "/>
    <polygon id="_132" class="fil117" points="4888.39,7387.78 13734.72,8406.55 13701.3,8687.99 "/>
    <polygon id="_133" class="fil118" points="4888.39,7387.78 13707.98,8631.7 13667.92,8912.2 "/>
    <polygon id="_134" class="fil119" points="4888.39,7387.78 13675.93,8856.09 13629.25,9135.49 "/>
    <polygon id="_135" class="fil120" points="4888.39,7387.78 13638.58,9079.6 13585.31,9357.72 "/>
    <polygon id="_136" class="fil121" points="4888.39,7387.78 13595.97,9302.09 13536.14,9578.77 "/>
    <polygon id="_137" class="fil122" points="4888.39,7387.78 13548.11,9523.43 13481.76,9798.5 "/>
    <polygon id="_138" class="fil123" points="4888.39,7387.78 13495.03,9743.48 13422.2,10016.78 "/>
    <polygon id="_139" class="fil124" points="4888.39,7387.78 13436.76,9962.11 13357.5,10233.47 "/>
    <polygon id="_140" class="fil125" points="4888.39,7387.78 13373.35,10179.19 13287.7,10448.45 "/>
    <polygon id="_141" class="fil126" points="4888.39,7387.78 13304.83,10394.59 13212.84,10661.59 "/>
    <polygon id="_142" class="fil127" points="4888.39,7387.78 13231.24,10608.18 13132.96,10872.75 "/>
    <polygon id="_143" class="fil127" points="4888.39,7387.78 13152.62,10819.83 13048.12,11081.82 "/>
    <polygon id="_144" class="fil128" points="4888.39,7387.78 13069.02,11029.41 12958.36,11288.66 "/>
    <polygon id="_145" class="fil129" points="4888.39,7387.78 12980.5,11236.8 12863.75,11493.15 "/>
    <polygon id="_146" class="fil130" points="4888.39,7387.78 12887.1,11441.87 12764.33,11695.16 "/>
    <polygon id="_147" class="fil131" points="4888.39,7387.78 12788.88,11644.5 12660.16,11894.59 "/>
    <polygon id="_148" class="fil132" points="4888.39,7387.78 12685.91,11844.56 12551.31,12091.29 "/>
    <polygon id="_149" class="fil133" points="4888.39,7387.78 12578.24,12041.94 12437.85,12285.17 "/>
    <polygon id="_150" class="fil133" points="4888.39,7387.78 12465.93,12236.51 12319.84,12476.09 "/>
    <polygon id="_151" class="fil134" points="4888.39,7387.78 12349.06,12428.17 12197.35,12663.95 "/>
    <polygon id="_152" class="fil135" points="4888.39,7387.78 12227.7,12616.79 12070.47,12848.63 "/>
    <polygon id="_153" class="fil136" points="4888.39,7387.78 12101.92,12802.26 11939.25,13030.02 "/>
    <polygon id="_154" class="fil137" points="4888.39,7387.78 11971.79,12984.46 11803.79,13208.02 "/>
    <polygon id="_155" class="fil138" points="4888.39,7387.78 11837.39,13163.3 11664.16,13382.5 "/>
    <polygon id="_156" class="fil139" points="4888.39,7387.78 11698.81,13338.66 11520.45,13553.38 "/>
    <polygon id="_157" class="fil139" points="4888.39,7387.78 11556.13,13510.43 11372.75,13720.54 "/>
    <polygon id="_158" class="fil140" points="4888.39,7387.78 11409.43,13678.51 11221.13,13883.89 "/>
    <polygon id="_159" class="fil141" points="4888.39,7387.78 11258.8,13842.81 11065.71,14043.33 "/>
    <polygon id="_160" class="fil142" points="4888.39,7387.78 11104.33,14003.22 10906.56,14198.75 "/>
    <polygon id="_161" class="fil143" points="4888.39,7387.78 10946.12,14159.64 10743.79,14350.07 "/>
    <polygon id="_162" class="fil144" points="4888.39,7387.78 10784.26,14311.98 10577.49,14497.2 "/>
    <polygon id="_163" class="fil145" points="4888.39,7387.78 10618.85,14460.15 10407.77,14640.05 "/>
    <polygon id="_164" class="fil145" points="4888.39,7387.78 10449.99,14604.06 10234.72,14778.53 "/>
    <polygon id="_165" class="fil146" points="4888.39,7387.78 10277.78,14743.63 10058.45,14912.55 "/>
    <polygon id="_166" class="fil147" points="4888.39,7387.78 10102.32,14878.76 9879.06,15042.05 "/>
    <polygon id="_167" class="fil148" points="4888.39,7387.78 9923.72,15009.39 9696.67,15166.93 "/>
    <polygon id="_168" class="fil149" points="4888.39,7387.78 9742.09,15135.42 9511.39,15287.13 "/>
    <polygon id="_169" class="fil150" points="4888.39,7387.78 9557.53,15256.78 9323.31,15402.57 "/>
    <polygon id="_170" class="fil151" points="4888.39,7387.78 9370.17,15373.4 9132.57,15513.18 "/>
    <polygon id="_171" class="fil152" points="4888.39,7387.78 9180.1,15485.22 8939.27,15618.89 "/>
    <polygon id="_172" class="fil153" points="4888.39,7387.78 8987.44,15592.15 8743.53,15719.65 "/>
    <polygon id="_173" class="fil154" points="4888.39,7387.78 8792.32,15694.15 8545.47,15815.39 "/>
    <polygon id="_174" class="fil155" points="4888.39,7387.78 8594.85,15791.14 8345.21,15906.05 "/>
    <polygon id="_175" class="fil156" points="4888.39,7387.78 8395.14,15883.07 8142.86,15991.59 "/>
    <polygon id="_176" class="fil157" points="4888.39,7387.78 8193.32,15969.88 7938.55,16071.94 "/>
    <polygon id="_177" class="fil158" points="4888.39,7387.78 7989.51,16051.52 7732.41,16147.05 "/>
    <polygon id="_178" class="fil158" points="4888.39,7387.78 7783.83,16127.94 7524.55,16216.9 "/>
    <polygon id="_179" class="fil158" points="4888.39,7387.78 7576.41,16199.1 7315.1,16281.42 "/>
    <polygon id="_180" class="fil158" points="4888.39,7387.78 7367.37,16264.95 7104.19,16340.59 "/>
    <polygon id="_181" class="fil158" points="4888.39,7387.78 7156.84,16325.46 6891.95,16394.36 "/>
    <polygon id="_182" class="fil158" points="4888.39,7387.78 6944.94,16380.58 6678.5,16442.71 "/>
    <polygon id="_183" class="fil159" points="4888.39,7387.78 6731.8,16430.28 6463.97,16485.6 "/>
    <polygon id="_184" class="fil159" points="4888.39,7387.78 6517.55,16474.54 6248.5,16523.02 "/>
    <polygon id="_185" class="fil159" points="4888.39,7387.78 6302.32,16513.32 6032.2,16554.93 "/>
    <polygon id="_186" class="fil159" points="4888.39,7387.78 6086.23,16546.61 5815.22,16581.32 "/>
    <polygon id="_187" class="fil159" points="4888.39,7387.78 5869.43,16574.37 5597.67,16602.17 "/>
    <polygon id="_188" class="fil159" points="4888.39,7387.78 5652.03,16596.61 5379.7,16617.47 "/>
    <polygon id="_189" class="fil159" points="4888.39,7387.78 5434.18,16613.3 5161.44,16627.21 "/>
    <polygon id="_190" class="fil159" points="4888.39,7387.78 5215.99,16624.43 4943.01,16631.39 "/>
    <polygon id="_191" class="fil159" points="4888.39,7387.78 4997.61,16630 4724.54,16630 "/>
    <polygon id="_192" class="fil159" points="4888.39,7387.78 4779.16,16630 4506.18,16623.04 "/>
    <polygon id="_193" class="fil159" points="4888.39,7387.78 4560.78,16624.43 4288.04,16610.51 "/>
    <polygon id="_194" class="fil160" points="4888.39,7387.78 4342.6,16613.3 4070.27,16592.44 "/>
    <polygon id="_195" class="fil160" points="4888.39,7387.78 4124.74,16596.61 3852.99,16568.81 "/>
    <polygon id="_196" class="fil160" points="4888.39,7387.78 3907.35,16574.37 3636.33,16539.66 "/>
    <polygon id="_197" class="fil160" points="4888.39,7387.78 3690.54,16546.61 3420.43,16505 "/>
    <polygon id="_198" class="fil160" points="4888.39,7387.78 3474.46,16513.32 3205.41,16464.84 "/>
    <polygon id="_199" class="fil160" points="4888.39,7387.78 3259.23,16474.54 2991.41,16419.21 "/>
    <polygon id="_200" class="fil160" points="4888.39,7387.78 3044.98,16430.28 2778.55,16368.15 "/>
    <polygon id="_201" class="fil160" points="4888.39,7387.78 2831.84,16380.58 2566.95,16311.68 "/>
    <polygon id="_202" class="fil160" points="4888.39,7387.78 2619.94,16325.46 2356.76,16249.83 "/>
    <polygon id="_203" class="fil160" points="4888.39,7387.78 2409.41,16264.95 2148.09,16182.64 "/>
    <polygon id="_204" class="fil160" points="4888.39,7387.78 2200.36,16199.1 1941.08,16110.15 "/>
    <polygon id="_205" class="fil161" points="4888.39,7387.78 1992.94,16127.94 1735.84,16032.41 "/>
    <polygon id="_206" class="fil161" points="4888.39,7387.78 1787.26,16051.52 1532.49,15949.47 "/>
    <polygon id="_207" class="fil161" points="4888.39,7387.78 1583.45,15969.88 1331.17,15861.36 "/>
    <polygon id="_208" class="fil161" points="4888.39,7387.78 1381.64,15883.07 1131.99,15768.15 "/>
    <polygon id="_209" class="fil161" points="4888.39,7387.78 1181.93,15791.14 935.08,15669.9 "/>
    <polygon id="_210" class="fil161" points="4888.39,7387.78 984.46,15694.15 740.54,15566.65 "/>
    <polygon id="_211" class="fil161" points="4888.39,7387.78 789.33,15592.15 548.51,15458.48 "/>
    <polygon id="_212" class="fil161" points="4888.39,7387.78 596.68,15485.22 359.09,15345.45 "/>
    <polygon id="_213" class="fil161" points="4888.39,7387.78 406.61,15373.4 172.39,15227.62 "/>
    <polygon id="_214" class="fil161" points="4888.39,7387.78 219.24,15256.78 -11.46,15105.07 "/>
    <polygon id="_215" class="fil161" points="4888.39,7387.78 34.69,15135.42 -192.36,14977.87 "/>
    <polygon id="_216" class="fil162" points="4888.39,7387.78 -146.95,15009.39 -370.2,14846.1 "/>
    <polygon id="_217" class="fil162" points="4888.39,7387.78 -325.54,14878.76 -544.88,14709.84 "/>
    <polygon id="_218" class="fil162" points="4888.39,7387.78 -501,14743.63 -716.28,14569.17 "/>
    <polygon id="_219" class="fil162" points="4888.39,7387.78 -673.22,14604.06 -884.3,14424.17 "/>
    <polygon id="_220" class="fil162" points="4888.39,7387.78 -842.08,14460.15 -1048.85,14274.93 "/>
    <polygon id="_221" class="fil162" points="4888.39,7387.78 -1007.49,14311.98 -1209.82,14121.55 "/>
    <polygon id="_222" class="fil162" points="4888.39,7387.78 -1169.35,14159.64 -1367.12,13964.1 "/>
    <polygon id="_223" class="fil162" points="4888.39,7387.78 -1327.56,14003.22 -1520.65,13802.7 "/>
    <polygon id="_224" class="fil162" points="4888.39,7387.78 -1482.02,13842.81 -1670.31,13637.43 "/>
    <polygon id="_225" class="fil162" points="4888.39,7387.78 -1632.65,13678.51 -1816.03,13468.4 "/>
    <polygon id="_226" class="fil162" points="4888.39,7387.78 -1779.35,13510.43 -1957.71,13295.71 "/>
    <polygon id="_227" class="fil163" points="4888.39,7387.78 -1922.03,13338.66 -2095.27,13119.45 "/>
    <polygon id="_228" class="fil163" points="4888.39,7387.78 -2060.62,13163.3 -2228.62,12939.75 "/>
    <polygon id="_229" class="fil163" points="4888.39,7387.78 -2195.01,12984.46 -2357.68,12756.7 "/>
    <polygon id="_230" class="fil163" points="4888.39,7387.78 -2325.14,12802.26 -2482.38,12570.41 "/>
    <polygon id="_231" class="fil163" points="4888.39,7387.78 -2450.92,12616.79 -2602.63,12381.01 "/>
    <polygon id="_232" class="fil163" points="4888.39,7387.78 -2572.29,12428.17 -2718.38,12188.59 "/>
    <polygon id="_233" class="fil163" points="4888.39,7387.78 -2689.16,12236.51 -2829.54,11993.29 "/>
    <polygon id="_234" class="fil163" points="4888.39,7387.78 -2801.46,12041.94 -2936.06,11795.21 "/>
    <polygon id="_235" class="fil163" points="4888.39,7387.78 -2909.13,11844.56 -3037.86,11594.47 "/>
    <polygon id="_236" class="fil163" points="4888.39,7387.78 -3012.11,11644.5 -3134.88,11391.2 "/>
    <polygon id="_237" class="fil163" points="4888.39,7387.78 -3110.32,11441.87 -3227.08,11185.52 "/>
    <polygon id="_238" class="fil164" points="4888.39,7387.78 -3203.72,11236.8 -3314.38,10977.56 "/>
    <polygon id="_239" class="fil164" points="4888.39,7387.78 -3292.25,11029.41 -3396.75,10767.42 "/>
    <polygon id="_240" class="fil164" points="4888.39,7387.78 -3375.84,10819.83 -3474.12,10555.26 "/>
    <polygon id="_241" class="fil164" points="4888.39,7387.78 -3454.46,10608.18 -3546.45,10341.19 "/>
    <polygon id="_242" class="fil164" points="4888.39,7387.78 -3528.05,10394.59 -3613.71,10125.33 "/>
    <polygon id="_243" class="fil164" points="4888.39,7387.78 -3596.58,10179.19 -3675.84,9907.83 "/>
    <polygon id="_244" class="fil164" points="4888.39,7387.78 -3659.99,9962.11 -3732.82,9688.81 "/>
    <polygon id="_245" class="fil164" points="4888.39,7387.78 -3718.25,9743.48 -3784.6,9468.4 "/>
    <polygon id="_246" class="fil164" points="4888.39,7387.78 -3771.33,9523.43 -3831.16,9246.75 "/>
    <polygon id="_247" class="fil164" points="4888.39,7387.78 -3819.19,9302.09 -3872.46,9023.97 "/>
    <polygon id="_248" class="fil164" points="4888.39,7387.78 -3861.81,9079.6 -3908.49,8800.2 "/>
    <polygon id="_249" class="fil165" points="4888.39,7387.78 -3899.15,8856.09 -3939.22,8575.59 "/>
    <polygon id="_250" class="fil165" points="4888.39,7387.78 -3931.21,8631.7 -3964.63,8350.26 "/>
    <polygon id="_251" class="fil165" points="4888.39,7387.78 -3957.95,8406.55 -3984.71,8124.34 "/>
    <polygon id="_252" class="fil165" points="4888.39,7387.78 -3979.36,8180.79 -3999.45,7897.99 "/>
    <polygon id="_253" class="fil165" points="4888.39,7387.78 -3995.43,7954.56 -4008.83,7671.33 "/>
    <polygon id="_254" class="fil165" points="4888.39,7387.78 -4006.15,7727.98 -4012.85,7444.5 "/>
    <polygon id="_255" class="fil166" points="4888.39,7387.78 -4011.51,7501.2 -4011.51,7274.35 "/>
   </g>
  </g>
 </g>
</svg>
