<svg width="180" height="376" viewBox="0 0 180 376" fill="none" xmlns="http://www.w3.org/2000/svg">
<rect width="164" height="360" transform="translate(8 8)" fill="url(#paint0_linear_1814_6162)"/>
<path fill-rule="evenodd" clip-rule="evenodd" d="M53.14 169.297C51.363 166.446 50.0275 163.293 49.2299 159.933L52.7443 159.694C53.4827 162.541 54.6563 165.214 56.1899 167.638C56.4957 167.585 56.8101 167.557 57.1312 167.557C58.3304 167.557 59.4385 167.944 60.3371 168.6L72.4214 159.184C71.2782 157.44 70.6133 155.357 70.6133 153.119C70.6133 148.446 73.5103 144.447 77.6138 142.805L74.1163 127.244C72.1911 126.973 70.7101 125.326 70.7101 123.335C70.7101 121.154 72.4858 119.386 74.6763 119.386C76.8667 119.386 78.6424 121.154 78.6424 123.335C78.6424 124.757 77.8864 126.004 76.7528 126.7L80.2176 142.115C80.7263 142.044 81.2455 142.007 81.7734 142.007C87.9371 142.007 92.9337 146.982 92.9337 153.119C92.9337 159.256 87.9371 164.231 81.7734 164.231C78.8277 164.231 76.1491 163.094 74.1547 161.237L62.0502 170.669C62.3791 171.366 62.5628 172.144 62.5628 172.965C62.5628 175.952 60.1311 178.374 57.1312 178.374C54.1313 178.374 51.6993 175.952 51.6993 172.965C51.6993 171.55 52.2459 170.261 53.14 169.297V169.297ZM100.46 153.086C101.702 153.086 102.708 154.088 102.708 155.324C102.708 156.561 101.702 157.563 100.46 157.563C99.2179 157.563 98.2114 156.561 98.2114 155.324C98.2114 154.088 99.2179 153.086 100.46 153.086ZM96.6972 186.489C98.2153 186.489 99.4458 187.714 99.4458 189.225C99.4458 190.737 98.2153 191.962 96.6972 191.962C95.1794 191.962 93.9489 190.737 93.9489 189.225C93.9489 187.714 95.1794 186.489 96.6972 186.489ZM69.1483 179.937C70.2301 179.937 71.1075 180.811 71.1075 181.888C71.1075 182.965 70.2301 183.838 69.1483 183.838C68.0665 183.838 67.1895 182.965 67.1895 181.888C67.1895 180.811 68.0665 179.937 69.1483 179.937ZM85.1098 180.949C87.1697 180.949 88.8397 182.612 88.8397 184.663C88.8397 186.714 87.1697 188.377 85.1098 188.377C83.8512 188.377 82.7381 187.756 82.0626 186.805L66.5066 191.23C66.4448 192.824 65.1285 194.096 63.5136 194.096C61.8589 194.096 60.5176 192.761 60.5176 191.114C60.5176 189.466 61.8589 188.131 63.5136 188.131C64.5712 188.131 65.5006 188.677 66.0337 189.501L81.4086 185.127C81.3897 184.975 81.3797 184.82 81.3797 184.663C81.3797 183.841 81.6484 183.081 82.1023 182.466L76.4744 176.862C76.0288 177.082 75.5273 177.205 74.9965 177.205C73.1521 177.205 71.6569 175.716 71.6569 173.88C71.6569 172.043 73.1521 170.554 74.9965 170.554C76.8409 170.554 78.3361 172.043 78.3361 173.88C78.3361 174.535 78.1456 175.147 77.8167 175.662L83.4941 181.315C83.983 181.08 84.5309 180.949 85.1098 180.949V180.949ZM67.8447 132.242C69.0131 132.242 69.9604 133.185 69.9604 134.349C69.9604 135.512 69.0131 136.455 67.8447 136.455C66.6763 136.455 65.729 135.512 65.729 134.349C65.729 133.185 66.6763 132.242 67.8447 132.242ZM43.172 130.38C44.8669 130.38 46.2414 131.748 46.2414 133.436C46.2414 135.124 44.8669 136.492 43.172 136.492C41.4768 136.492 40.1027 135.124 40.1027 133.436C40.1027 131.748 41.4768 130.38 43.172 130.38ZM51.8953 150.925C52.9214 151.579 53.6013 152.724 53.6013 154.027C53.6013 156.059 51.9472 157.706 49.9062 157.706C47.8655 157.706 46.2111 156.059 46.2111 154.027C46.2111 152.515 47.1271 151.216 48.4368 150.65C49.2036 138.183 57.2101 127.666 68.3234 123.212L69.0065 126.67C59.4056 130.782 52.5424 140.021 51.8953 150.925V150.925ZM63.1783 140.877C66.1898 140.877 68.6313 143.308 68.6313 146.307C68.6313 149.305 66.1898 151.736 63.1783 151.736C60.1666 151.736 57.7254 149.305 57.7254 146.307C57.7254 143.308 60.1666 140.877 63.1783 140.877ZM86.1632 115.72C87.3589 115.72 88.3284 116.685 88.3284 117.876C88.3284 119.066 87.3589 120.032 86.1632 120.032C84.9672 120.032 83.9977 119.066 83.9977 117.876C83.9977 116.685 84.9672 115.72 86.1632 115.72ZM88.3939 106.121V99.2969H114.14V106.774H109.074V121.015L131.788 134.072V168.901L101.207 186.524L86.9631 178.336L87.4997 176.793L93.6379 173.766L100.611 177.742L105.974 171.868L102.041 165.4L104.782 159.288L112.113 157.152L111.845 149.527L104.723 147.866L101.982 141.872L105.766 134.693L100.045 128.937L94.3239 132.972L93.6684 133.328C93.6684 133.328 91.8806 131.607 90.2714 131.013C88.6623 130.42 87.53 130.657 87.53 130.657L86.2187 125.554L93.2513 121.104V106.388H88.3047L88.3939 106.121V106.121ZM122.328 140.592C123.52 140.592 124.487 141.555 124.487 142.743C124.487 143.931 123.52 144.894 122.328 144.894C121.135 144.894 120.168 143.931 120.168 142.743C120.168 141.555 121.135 140.592 122.328 140.592ZM112.263 133.953C114.567 133.953 116.434 135.813 116.434 138.107C116.434 139.475 115.77 140.689 114.745 141.446L119.96 152.783C120.041 152.777 120.123 152.774 120.206 152.774C121.902 152.774 123.277 154.143 123.277 155.832C123.277 157.522 121.902 158.891 120.206 158.891C119.791 158.891 119.396 158.809 119.034 158.661L115.066 163.493C115.451 164.004 115.679 164.639 115.679 165.327C115.679 167.016 114.304 168.385 112.607 168.385C110.911 168.385 109.535 167.016 109.535 165.327C109.535 163.637 110.911 162.268 112.607 162.268C112.96 162.268 113.299 162.327 113.614 162.436L117.647 157.526C117.323 157.041 117.134 156.458 117.134 155.832C117.134 154.865 117.585 154.003 118.288 153.443L113.106 142.176C112.833 142.231 112.552 142.261 112.263 142.261C109.959 142.261 108.091 140.401 108.091 138.107C108.091 135.813 109.959 133.953 112.263 133.953V133.953Z" fill="#FEFEFE"/>
<path d="M48.5689 233.877V242.927C48.5689 243.303 48.8114 243.583 49.2961 243.772C49.7018 243.934 49.9046 244.165 49.9046 244.468C49.9046 245.093 49.8897 245.439 49.8551 245.509C49.8205 245.575 49.677 245.61 49.4296 245.61H45.5911C45.3981 245.61 45.2744 245.544 45.23 245.413C45.1804 245.277 45.1557 244.953 45.1557 244.428C45.1557 244.192 45.2844 244.021 45.5416 243.929C46.0363 243.732 46.2837 243.509 46.2837 243.264V228.117C46.2837 227.75 46.244 227.474 46.1698 227.29C46.0955 227.106 45.9274 226.953 45.6603 226.835C45.4229 226.73 45.2696 226.621 45.1854 226.502C45.1063 226.38 45.0667 226.152 45.0667 225.82C45.0667 225.22 45.2448 224.918 45.5961 224.918H49.5879L54.4753 235.001V227.557C54.4753 227.146 54.2427 226.848 53.7729 226.678C53.4958 226.568 53.3127 226.441 53.2336 226.297C53.1495 226.157 53.1099 225.881 53.1099 225.47C53.1099 225.211 53.1397 225.058 53.199 225.001C53.2533 224.944 53.3671 224.918 53.5305 224.918H57.5273C57.7499 224.944 57.8588 225.225 57.8588 225.758C57.8588 226.074 57.839 226.271 57.7945 226.358C57.7499 226.441 57.651 226.511 57.4975 226.572C57.1612 226.691 56.9486 226.809 56.8595 226.918C56.7754 227.032 56.7308 227.185 56.7308 227.382V245.61H54.2575L48.5689 233.877V233.877ZM63.9681 236.603V241.842C63.9681 242.537 64.1214 243.08 64.4231 243.47C64.7299 243.864 65.1205 244.06 65.5955 244.06C66.3325 244.06 66.9212 243.785 67.3616 243.233C67.8018 242.678 68.0342 241.925 68.0638 240.966C68.0738 240.45 68.1283 240.144 68.232 240.039C68.331 239.938 68.6872 239.885 69.2907 239.885C69.8149 239.885 70.1464 239.934 70.2849 240.025C70.4284 240.122 70.4977 240.358 70.4977 240.734C70.4977 242.052 70.0129 243.225 69.0481 244.253C68.0788 245.281 66.7975 245.794 65.1998 245.794C63.3694 245.794 61.8163 245.058 60.54 243.592C59.2637 242.126 58.6256 239.92 58.6256 236.966C58.6256 234.017 59.2143 231.772 60.3966 230.227C61.5789 228.682 63.1272 227.912 65.0414 227.912C66.6838 227.912 68.0046 228.564 69.0038 229.864C69.9979 231.163 70.4977 233.014 70.4977 235.408V236.603H63.9681V236.603ZM65.9566 234.975V230.743C65.9566 229.942 65.6301 229.54 64.9722 229.54C64.3044 229.54 63.9681 229.942 63.9681 230.743V234.975H65.9566ZM72.3134 230.047C72.1946 229.999 72.1007 229.96 72.0363 229.933C71.8087 229.842 71.6604 229.75 71.601 229.658C71.5415 229.57 71.5119 229.386 71.5119 229.102C71.5119 228.949 71.5069 228.822 71.4971 228.721C71.4971 228.467 71.5367 228.297 71.6208 228.218C71.6999 228.135 71.883 228.095 72.16 228.095H76.6465C76.8691 228.095 77.0028 228.126 77.0474 228.187C77.0967 228.244 77.1213 228.389 77.1213 228.621V241.251C77.1213 242.354 77.4676 242.905 78.1552 242.905C78.6796 242.905 79.0754 242.708 79.3475 242.314V230.446C79.3475 230.139 79.1792 229.898 78.8379 229.728C78.6698 229.645 78.5709 229.553 78.5363 229.452C78.5016 229.356 78.4867 229.028 78.4867 228.467C78.4867 228.218 78.65 228.095 78.9813 228.095H83.7203C83.9231 228.095 84.0468 228.122 84.0913 228.174C84.1359 228.222 84.1555 228.362 84.1555 228.581V243.286C84.1555 243.57 84.2842 243.767 84.5414 243.877C84.8581 244.03 85.0164 244.284 85.0164 244.643C85.0164 245.15 84.9964 245.439 84.952 245.509C84.9074 245.575 84.754 245.61 84.497 245.61H80.0846C79.8074 245.61 79.6144 245.566 79.5057 245.474C79.4018 245.386 79.3475 245.19 79.3475 244.892V244.572C79.3475 244.231 79.3424 244.039 79.3326 243.995C77.7942 245.194 76.4932 245.794 75.4298 245.794C74.5245 245.794 73.7776 245.522 73.1888 244.984C72.6052 244.446 72.3134 243.408 72.3134 241.868V230.047V230.047Z" fill="#FEFEFE"/>
<path d="M100.195 220.119C100.683 219.69 100.924 219.353 100.924 219.109C100.924 218.759 100.631 218.436 100.045 218.139C99.249 217.723 98.8586 217.221 98.8586 216.627C98.8586 215.42 99.7972 214.819 101.675 214.819C102.823 214.819 103.657 215.024 104.183 215.439C104.716 215.855 104.979 216.357 104.979 216.951C104.979 218.092 104.025 219.432 102.11 220.97C105.347 222.99 106.961 225.755 106.961 229.259C106.961 232.256 106.023 234.632 104.153 236.381C102.283 238.13 100.12 239.008 97.6721 239.014C96.906 239.014 96.065 238.902 95.1565 238.684C94.6608 238.585 94.2853 238.532 94.0374 238.532C93.5644 238.532 93.0687 238.684 92.5507 238.994C92.0249 239.305 91.7696 239.641 91.7696 240.004C91.7696 240.638 92.5656 240.955 94.1726 240.955H100.188C102.328 240.955 104.085 241.344 105.452 242.116C106.819 242.888 107.502 244.129 107.502 245.845C107.502 249.475 103.98 251.29 96.9286 251.29C94.2177 251.29 92.0324 251.052 90.3804 250.577C88.7282 250.095 87.9022 249.343 87.9022 248.313C87.9022 247.759 88.0674 247.323 88.4053 247.007C88.7432 246.696 89.3365 246.347 90.1926 245.977C90.3052 245.924 90.4855 245.845 90.7184 245.746C88.7208 244.974 87.722 243.687 87.722 241.898C87.722 239.879 89.1487 238.367 92.0099 237.364C89.299 235.483 87.9473 232.929 87.9473 229.708C87.9473 226.831 88.8709 224.461 90.7108 222.6C92.5581 220.739 94.7884 219.809 97.4243 219.809C98.1676 219.809 99.0913 219.914 100.195 220.119V220.119ZM99.0763 224.976C99.0763 223.3 98.5431 222.462 97.4767 222.462C96.9435 222.462 96.5232 222.732 96.2076 223.267C95.8998 223.801 95.7421 224.369 95.7421 224.976V234.586C95.7421 235.114 95.8923 235.556 96.2002 235.906C96.5006 236.262 96.8911 236.44 97.3641 236.44C97.8673 236.44 98.2803 236.249 98.5957 235.873C98.9186 235.49 99.0763 235.001 99.0763 234.407V224.976V224.976ZM93.5944 246.419C92.6406 246.749 92.1601 247.165 92.1601 247.647C92.1601 248.135 92.5056 248.505 93.1888 248.749C93.8722 248.993 95.2841 249.112 97.4318 249.112C101.141 249.112 102.989 248.544 102.989 247.422C102.989 246.776 102.365 246.459 101.119 246.459H95.0063C94.5256 246.459 94.0526 246.446 93.5944 246.419Z" fill="#F08143"/>
<path d="M22.4438 264.186V266.732C22.4438 267.027 22.5858 267.222 22.8729 267.313C23.0118 267.358 23.1065 267.42 23.1597 267.501C23.216 267.579 23.2426 267.725 23.2426 267.941C23.2426 268.144 23.2101 268.272 23.1481 268.319C23.0827 268.369 22.9586 268.392 22.7662 268.392H18.8496C18.6425 268.392 18.5388 268.23 18.5388 267.91C18.5388 267.655 18.5538 267.498 18.5833 267.438C18.61 267.381 18.7104 267.329 18.8762 267.282C19.0271 267.24 19.1187 267.196 19.1571 267.149C19.1957 267.1 19.2134 267.016 19.2134 266.899V257.661C19.2134 257.442 19.0625 257.268 18.7608 257.135C18.601 257.059 18.5182 256.945 18.5123 256.791L18.5034 256.439C18.5034 256.288 18.5241 256.189 18.5684 256.142C18.6129 256.095 18.7076 256.072 18.8583 256.072H23.2929C24.568 256.072 25.5855 256.431 26.3457 257.15C27.1062 257.87 27.4848 258.865 27.4848 260.137C27.4848 260.853 27.3666 261.492 27.1328 262.052C26.899 262.61 26.6034 263.021 26.2482 263.287C25.8933 263.55 25.4821 263.767 25.0176 263.933C24.5502 264.103 24.0561 264.186 23.5296 264.186H22.4438V264.186ZM22.4438 256.916V263.311H23.0533C23.2633 263.311 23.4497 263.209 23.6153 263.008C23.7809 262.808 23.8638 262.474 23.8638 262.005V258.198C23.8638 257.343 23.5384 256.916 22.8877 256.916H22.4438V256.916ZM32.286 260.997V259.517C32.286 259.107 32.0967 258.902 31.718 258.902C31.1974 258.902 30.9371 259.209 30.9371 259.827C30.9371 260.176 30.8927 260.423 30.8039 260.569C30.7152 260.718 30.514 260.845 30.2004 260.95C29.8869 261.054 29.5496 261.106 29.1947 261.106C28.464 261.106 28.0971 260.76 28.0971 260.069C28.0971 259.418 28.4165 258.883 29.0555 258.472C29.6946 258.06 30.526 257.854 31.5553 257.854C32.2329 257.854 32.8392 257.935 33.3807 258.099C33.9219 258.261 34.3509 258.537 34.6734 258.922C34.996 259.308 35.1585 259.733 35.1616 260.197V267.162C35.1734 267.198 35.2591 267.274 35.4159 267.391C35.5313 267.467 35.5875 267.579 35.5875 267.727C35.5875 267.933 35.555 268.077 35.4929 268.16C35.4277 268.246 35.2739 268.322 35.0314 268.395C34.7858 268.465 34.4782 268.501 34.1083 268.501C33.6616 268.501 33.286 268.428 32.9872 268.283C32.6854 268.137 32.4546 267.853 32.286 267.428C31.7832 267.886 31.3749 268.181 31.0643 268.309C30.7508 268.436 30.4312 268.501 30.1029 268.501C29.3692 268.501 28.801 268.249 28.3988 267.743C27.9964 267.238 27.7953 266.409 27.7953 265.26C27.7953 264.111 27.9846 263.313 28.3604 262.87C28.736 262.425 29.4697 262.013 30.5614 261.638C31.2536 261.403 31.8304 261.189 32.286 260.997V260.997ZM32.286 261.989C31.6294 262.242 31.2388 262.529 31.1116 262.844C30.9843 263.162 30.9193 263.876 30.9193 264.986C30.9193 265.804 30.9725 266.32 31.0761 266.537C31.1797 266.753 31.3601 266.86 31.6144 266.86C32.0611 266.86 32.286 266.534 32.286 265.885V261.989V261.989ZM36.3329 259.011H35.9925C35.8921 259.011 35.8299 259.001 35.8033 258.98C35.7767 258.959 35.7649 258.904 35.7649 258.813V258.263C35.7649 258.161 35.7767 258.094 35.8033 258.063C35.8299 258.034 35.9069 258.01 36.0341 257.995C36.4511 257.94 36.8684 257.737 37.2913 257.385C37.7144 257.036 37.9657 256.661 38.0457 256.259C38.0754 256.116 38.1108 256.03 38.1552 255.996C38.1965 255.962 38.2854 255.946 38.4185 255.946H38.9836C39.1344 255.946 39.2083 256.035 39.2083 256.212V257.963H39.7407C39.942 257.963 40.0426 258.049 40.0426 258.216V258.766C40.0426 258.93 39.942 259.011 39.7407 259.011H39.2083V266.92C39.2083 267.191 39.3444 267.384 39.6166 267.501C39.7497 267.556 39.8355 267.626 39.8768 267.707C39.9152 267.787 39.9361 267.936 39.9361 268.147C39.9361 268.28 39.9272 268.353 39.9065 268.369C39.8859 268.384 39.8148 268.392 39.6936 268.392H36.957C36.5399 268.066 36.3329 267.576 36.3329 266.92V259.011V259.011ZM43.6989 258.93C44.5833 258.214 45.3615 257.854 46.0331 257.854C46.53 257.854 46.9618 258.018 47.3316 258.344C47.7014 258.67 47.8879 259.1 47.8879 259.634V266.917C47.8879 267.105 47.95 267.24 48.0713 267.321C48.2458 267.438 48.3316 267.608 48.3316 267.827C48.3316 268.072 48.3109 268.225 48.2724 268.293C48.231 268.358 48.1392 268.392 47.9944 268.392H45.7845C45.5921 268.392 45.4176 268.27 45.2549 268.025C45.0923 267.78 45.0123 267.49 45.0123 267.154V260.038C45.0123 259.907 44.9621 259.785 44.8616 259.676C44.758 259.566 44.6396 259.511 44.5006 259.511C44.2786 259.511 44.0125 259.629 43.6989 259.863V266.917C43.6989 267.084 43.7787 267.235 43.9385 267.368C44.0982 267.506 44.1781 267.623 44.1781 267.72C44.1781 268.072 44.1663 268.272 44.1425 268.319C44.122 268.369 44.0095 268.392 43.8053 268.392H40.6813C40.5482 268.392 40.4595 268.369 40.4123 268.319C40.3678 268.272 40.3441 268.157 40.3441 267.98C40.3441 267.759 40.356 267.621 40.3825 267.563C40.4062 267.503 40.4743 267.436 40.5838 267.36C40.7435 267.253 40.8235 267.105 40.8235 266.917V257.552C40.8235 257.21 40.7051 257.02 40.4654 256.979C40.3382 256.952 40.2732 256.885 40.2732 256.773V256.231C40.2732 256.124 40.3441 256.072 40.4891 256.072H43.3795C43.5924 256.072 43.6989 256.163 43.6989 256.345V258.93V258.93ZM55.6377 267.532H56.1406C56.401 267.532 56.5903 267.443 56.7145 267.264C56.8388 267.084 56.9986 266.67 57.1997 266.021C57.2678 265.771 57.3506 265.617 57.4482 265.565C57.543 265.51 57.7086 265.484 57.9424 265.484C58.1997 265.484 58.3653 265.502 58.4391 265.541C58.5132 265.58 58.5487 265.651 58.5487 265.752C58.5487 265.823 58.5339 265.937 58.5044 266.096L58.2025 267.926C58.1671 268.113 58.1228 268.238 58.0665 268.301C58.0133 268.361 57.9008 268.392 57.7323 268.392H52.0257C51.7831 268.392 51.6618 268.259 51.6618 267.996C51.6618 267.793 51.6765 267.662 51.709 267.602C51.7415 267.545 51.8096 267.501 51.9133 267.47C52.2416 267.378 52.4072 267.11 52.4072 266.667V257.601C52.4072 257.414 52.3007 257.278 52.0907 257.197C51.9103 257.13 51.8008 257.057 51.7594 256.976C51.7181 256.892 51.6972 256.757 51.6972 256.569C51.6972 256.345 51.7151 256.204 51.7506 256.152C51.7831 256.098 51.8778 256.072 52.0257 256.072H56.0282C56.1792 256.072 56.2827 256.103 56.3358 256.168C56.3921 256.231 56.4187 256.403 56.4187 256.684C56.4187 256.853 56.401 256.965 56.3624 257.025C56.324 257.083 56.2265 257.135 56.0726 257.182C55.7827 257.268 55.6377 257.437 55.6377 257.685V267.532V267.532ZM63.134 260.997V259.517C63.134 259.107 62.9446 258.902 62.566 258.902C62.0454 258.902 61.785 259.209 61.785 259.827C61.785 260.176 61.7405 260.423 61.6519 260.569C61.5631 260.718 61.3618 260.845 61.0484 260.95C60.7347 261.054 60.3975 261.106 60.0425 261.106C59.3118 261.106 58.9449 260.76 58.9449 260.069C58.9449 259.418 59.2645 258.883 59.9035 258.472C60.5425 258.06 61.3738 257.854 62.4033 257.854C63.0807 257.854 63.6871 257.935 64.2286 258.099C64.7698 258.261 65.1988 258.537 65.5214 258.922C65.8439 259.308 66.0065 259.733 66.0094 260.197V267.162C66.0212 267.198 66.1071 267.274 66.2639 267.391C66.3793 267.467 66.4355 267.579 66.4355 267.727C66.4355 267.933 66.403 268.077 66.3408 268.16C66.2757 268.246 66.1219 268.322 65.8793 268.395C65.6337 268.465 65.3262 268.501 64.9563 268.501C64.5094 268.501 64.134 268.428 63.8352 268.283C63.5333 268.137 63.3026 267.853 63.134 267.428C62.631 267.886 62.2229 268.181 61.9121 268.309C61.5987 268.436 61.279 268.501 60.9507 268.501C60.2171 268.501 59.649 268.249 59.2468 267.743C58.8444 267.238 58.6433 266.409 58.6433 265.26C58.6433 264.111 58.8326 263.313 59.2082 262.87C59.584 262.425 60.3177 262.013 61.4093 261.638C62.1016 261.403 62.6784 261.189 63.134 260.997V260.997ZM63.134 261.989C62.4772 262.242 62.0868 262.529 61.9596 262.844C61.8323 263.162 61.7673 263.876 61.7673 264.986C61.7673 265.804 61.8205 266.32 61.9241 266.537C62.0275 266.753 62.2079 266.86 62.4624 266.86C62.9091 266.86 63.134 266.534 63.134 265.885V261.989V261.989ZM70.1627 267.688V268.103C70.1627 268.296 70.0622 268.392 69.858 268.392H66.953C66.8199 268.392 66.7549 268.329 66.7549 268.202V267.691C66.7549 267.626 66.8169 267.566 66.9442 267.516C67.1719 267.42 67.2873 267.256 67.2873 267.027V257.39C67.2873 257.13 67.166 256.979 66.9264 256.932C66.811 256.911 66.7549 256.84 66.7549 256.718V256.33C66.7549 256.223 66.7724 256.155 66.808 256.121C66.8405 256.087 66.9264 256.072 67.0594 256.072H69.858C70.0622 256.072 70.1627 256.158 70.1627 256.332V258.644C70.7337 258.117 71.3401 257.854 71.9791 257.854C72.7246 257.854 73.3548 258.219 73.8665 258.948C74.3784 259.681 74.6357 261.13 74.6357 263.295C74.6357 265.346 74.3784 266.727 73.8636 267.436C73.3459 268.147 72.7216 268.501 71.9879 268.501C71.3994 268.501 70.7928 268.23 70.1627 267.688V267.688ZM71.4408 260.262C71.4408 259.626 71.2485 259.308 70.8609 259.308C70.6539 259.308 70.4853 259.355 70.3579 259.446C70.2277 259.537 70.1627 259.647 70.1627 259.774V266.644C70.1627 266.761 70.222 266.86 70.3402 266.941C70.4585 267.021 70.6006 267.063 70.7662 267.063C70.9793 267.063 71.145 266.966 71.2633 266.776C71.3815 266.586 71.4408 266.354 71.4408 266.078V260.262V260.262ZM81.3058 260.59C81.007 259.686 80.8591 259.037 80.8591 258.644C80.8591 257.846 81.149 257.161 81.7259 256.595C82.3028 256.027 83.001 255.743 83.8234 255.743C84.563 255.743 85.1635 255.957 85.6279 256.382C86.0924 256.806 86.3261 257.307 86.3261 257.88C86.3261 258.37 86.1396 258.847 85.764 259.316C85.3884 259.785 84.8883 260.165 84.2582 260.46L85.9771 264.118C86.4711 263.543 86.7167 263.021 86.7167 262.56C86.7167 262.37 86.6011 262.24 86.3704 262.169C86.2462 262.133 86.1841 262.091 86.1841 262.039V261.593C86.1841 261.393 86.2877 261.294 86.4977 261.294H88.7105C88.8968 261.294 88.9886 261.401 88.9886 261.617V262.039C88.9886 262.141 88.9234 262.214 88.7962 262.26C88.3643 262.419 87.8643 262.972 87.3023 263.918C87.0123 264.418 86.761 264.796 86.5481 265.056C86.7847 265.677 87.0834 265.987 87.4413 265.987C87.6217 265.987 87.8023 265.929 87.9886 265.817C88.0627 265.773 88.1188 265.75 88.1543 265.75C88.1927 265.75 88.3229 265.833 88.5388 266C88.7548 266.169 88.8644 266.289 88.8644 266.367C88.8644 266.438 88.7785 266.539 88.604 266.672C87.8289 267.258 87.1693 267.829 86.6249 268.376C86.2077 268.376 85.8469 268.303 85.5422 268.157C85.2405 268.012 84.8942 267.717 84.5068 267.274C83.705 268.019 82.847 268.392 81.9359 268.392C80.8 268.392 79.9213 267.965 79.2942 267.113C78.6699 266.26 78.3564 265.325 78.3564 264.309C78.3564 263.483 78.5931 262.769 79.0693 262.164C79.5426 261.557 80.2881 261.033 81.3058 260.59V260.59ZM83.8381 259.373C84.4564 259.071 84.764 258.623 84.764 258.023C84.764 257.692 84.6813 257.406 84.5155 257.166C84.3528 256.926 84.1458 256.806 83.8974 256.806C83.7229 256.806 83.5777 256.877 83.4566 257.017C83.3351 257.158 83.2731 257.322 83.2731 257.51C83.2731 257.971 83.4625 258.591 83.8381 259.373V259.373ZM83.8056 266.307C83.1458 265.249 82.4625 263.733 81.7525 261.757C81.2644 261.896 81.0188 262.219 81.0188 262.727C81.0188 263.217 81.2526 263.965 81.723 264.973C82.1904 265.979 82.6844 266.485 83.1992 266.485C83.3796 266.485 83.5807 266.425 83.8056 266.307V266.307ZM93.141 266.703V257.458C93.1233 257.356 93.0197 257.281 92.8304 257.229C92.6796 257.187 92.5791 257.127 92.5257 257.049C92.4753 256.971 92.4489 256.799 92.4489 256.538C92.4489 256.35 92.4873 256.225 92.5612 256.163C92.6382 256.103 92.8304 256.072 93.1442 256.072H97.3004C98.4867 256.072 99.4689 256.554 100.247 257.515C101.025 258.477 101.412 260.074 101.412 262.307C101.412 264.342 101.037 265.867 100.285 266.878C99.531 267.886 98.5371 268.392 97.2975 268.392H92.7152C92.5878 268.392 92.5021 268.366 92.4519 268.311C92.4016 268.259 92.3778 268.142 92.3778 267.959C92.3778 267.743 92.3867 267.605 92.4044 267.55C92.4223 267.493 92.5051 267.43 92.6559 267.36C92.9784 267.212 93.141 266.993 93.141 266.703V266.703ZM96.3715 256.979V267.548H96.833C97.1586 267.548 97.3952 267.43 97.546 267.193C97.6969 266.956 97.7739 266.534 97.7739 265.929V258.13C97.7739 257.789 97.6822 257.513 97.4958 257.299C97.3095 257.085 97.0461 256.979 96.7029 256.979H96.3715V256.979ZM104.258 255.79C104.912 255.79 105.238 255.983 105.238 256.371C105.238 256.676 105.019 256.934 104.584 257.145C104.149 257.356 103.652 257.463 103.099 257.463C102.383 257.463 102.025 257.252 102.025 256.83C102.025 256.494 102.276 256.236 102.779 256.059C103.279 255.879 103.773 255.79 104.258 255.79V255.79ZM101.865 258.724V258.216C101.865 258.047 101.98 257.963 102.208 257.963H104.945C105.14 257.963 105.238 258.047 105.238 258.216V266.995C105.238 267.118 105.246 267.196 105.264 267.23C105.279 267.266 105.329 267.3 105.415 267.331C105.616 267.402 105.717 267.561 105.717 267.803C105.717 268.084 105.702 268.251 105.675 268.309C105.646 268.363 105.554 268.392 105.4 268.392H102.072C101.992 268.382 101.939 268.35 101.918 268.296C101.895 268.243 101.883 268.103 101.883 267.873C101.883 267.597 101.954 267.438 102.099 267.391C102.273 267.337 102.362 267.235 102.362 267.086V259.483C102.362 259.188 102.247 259.008 102.013 258.948C101.915 258.922 101.865 258.849 101.865 258.724V258.724ZM110.515 260.997V259.517C110.515 259.107 110.326 258.902 109.947 258.902C109.426 258.902 109.166 259.209 109.166 259.827C109.166 260.176 109.122 260.423 109.033 260.569C108.944 260.718 108.743 260.845 108.429 260.95C108.116 261.054 107.779 261.106 107.424 261.106C106.693 261.106 106.326 260.76 106.326 260.069C106.326 259.418 106.646 258.883 107.285 258.472C107.923 258.06 108.755 257.854 109.784 257.854C110.462 257.854 111.068 257.935 111.61 258.099C112.151 258.261 112.58 258.537 112.902 258.922C113.225 259.308 113.388 259.733 113.39 260.197V267.162C113.402 267.198 113.488 267.274 113.645 267.391C113.76 267.467 113.816 267.579 113.816 267.727C113.816 267.933 113.784 268.077 113.722 268.16C113.657 268.246 113.503 268.322 113.26 268.395C113.015 268.465 112.707 268.501 112.337 268.501C111.89 268.501 111.515 268.428 111.216 268.283C110.914 268.137 110.684 267.853 110.515 267.428C110.012 267.886 109.604 268.181 109.293 268.309C108.98 268.436 108.66 268.501 108.332 268.501C107.598 268.501 107.03 268.249 106.628 267.743C106.225 267.238 106.024 266.409 106.024 265.26C106.024 264.111 106.214 263.313 106.589 262.87C106.965 262.425 107.699 262.013 108.79 261.638C109.483 261.403 110.059 261.189 110.515 260.997V260.997ZM110.515 261.989C109.858 262.242 109.468 262.529 109.341 262.844C109.213 263.162 109.148 263.876 109.148 264.986C109.148 265.804 109.202 266.32 109.305 266.537C109.409 266.753 109.589 266.86 109.843 266.86C110.29 266.86 110.515 266.534 110.515 265.885V261.989V261.989ZM119.085 257.976C119.277 257.807 119.372 257.674 119.372 257.578C119.372 257.44 119.256 257.312 119.026 257.195C118.712 257.03 118.558 256.832 118.558 256.598C118.558 256.121 118.928 255.884 119.668 255.884C120.12 255.884 120.449 255.965 120.656 256.129C120.866 256.293 120.969 256.491 120.969 256.726C120.969 257.177 120.594 257.705 119.839 258.313C121.114 259.11 121.75 260.202 121.75 261.586C121.75 262.769 121.381 263.707 120.644 264.397C119.907 265.088 119.055 265.434 118.091 265.437C117.789 265.437 117.458 265.393 117.1 265.307C116.905 265.268 116.757 265.247 116.659 265.247C116.473 265.247 116.278 265.307 116.073 265.429C115.866 265.552 115.766 265.684 115.766 265.828C115.766 266.078 116.079 266.203 116.713 266.203H119.082C119.925 266.203 120.617 266.357 121.156 266.662C121.694 266.966 121.963 267.456 121.963 268.134C121.963 269.567 120.576 270.284 117.798 270.284C116.73 270.284 115.869 270.19 115.219 270.002C114.568 269.812 114.242 269.515 114.242 269.109C114.242 268.89 114.307 268.718 114.44 268.593C114.574 268.47 114.807 268.332 115.145 268.186C115.189 268.165 115.26 268.134 115.352 268.095C114.565 267.79 114.171 267.282 114.171 266.576C114.171 265.778 114.733 265.182 115.861 264.785C114.793 264.043 114.26 263.034 114.26 261.763C114.26 260.627 114.624 259.691 115.349 258.956C116.076 258.221 116.955 257.854 117.993 257.854C118.286 257.854 118.65 257.896 119.085 257.976V257.976ZM118.644 259.894C118.644 259.233 118.434 258.902 118.014 258.902C117.804 258.902 117.638 259.008 117.514 259.22C117.393 259.431 117.331 259.655 117.331 259.894V263.689C117.331 263.897 117.39 264.071 117.511 264.21C117.63 264.35 117.783 264.421 117.97 264.421C118.168 264.421 118.331 264.345 118.455 264.197C118.582 264.045 118.644 263.853 118.644 263.618V259.894V259.894ZM116.485 268.361C116.109 268.491 115.92 268.655 115.92 268.845C115.92 269.038 116.056 269.184 116.325 269.281C116.594 269.377 117.15 269.424 117.996 269.424C119.458 269.424 120.186 269.2 120.186 268.757C120.186 268.501 119.94 268.376 119.449 268.376H117.041C116.851 268.376 116.665 268.371 116.485 268.361V268.361ZM125.549 258.993C126.241 258.234 127.031 257.854 127.918 257.854C128.522 257.854 128.986 258.026 129.309 258.37C129.631 258.714 129.791 259.144 129.791 259.665V266.98C129.791 267.144 129.862 267.269 130.004 267.355C130.134 267.425 130.199 267.608 130.199 267.905C130.199 268.137 130.178 268.277 130.134 268.324C130.093 268.369 130.001 268.392 129.862 268.392H127.433C127.087 268.131 126.915 267.793 126.915 267.376V260.108C126.915 259.709 126.726 259.511 126.35 259.511C126.105 259.511 125.836 259.623 125.549 259.847V266.98C125.549 267.165 125.649 267.305 125.848 267.407C125.969 267.47 126.028 267.582 126.028 267.743V268.134C126.028 268.306 125.886 268.392 125.605 268.392H122.54C122.389 268.392 122.295 268.374 122.253 268.335C122.215 268.296 122.194 268.202 122.194 268.048V267.767C122.194 267.618 122.244 267.514 122.348 267.454C122.484 267.368 122.573 267.287 122.614 267.209C122.653 267.133 122.673 266.966 122.673 266.706V259.243C122.673 259.066 122.576 258.935 122.377 258.855C122.268 258.808 122.212 258.727 122.212 258.61V258.201C122.212 258.042 122.292 257.963 122.454 257.963H125.28C125.401 257.963 125.478 257.979 125.504 258.008C125.534 258.039 125.549 258.102 125.549 258.198V258.993V258.993ZM134.347 257.854C135.435 257.854 136.34 258.284 137.071 259.141C137.799 259.999 138.163 261.273 138.163 262.964C138.163 264.788 137.793 266.167 137.053 267.1C136.314 268.035 135.391 268.501 134.287 268.501C133.524 268.501 132.862 268.288 132.299 267.86C131.74 267.433 131.305 266.862 131.004 266.148C130.699 265.437 130.548 264.46 130.548 263.225C130.548 261.455 130.897 260.121 131.592 259.214C132.291 258.307 133.208 257.854 134.347 257.854V257.854ZM134.968 259.769C134.968 259.139 134.761 258.823 134.347 258.823C133.897 258.823 133.672 259.209 133.672 259.983V266.331C133.672 267.1 133.876 267.485 134.284 267.485C134.74 267.485 134.968 267.1 134.968 266.331V259.769V259.769ZM143.168 258.135L143.647 260.249C143.659 260.314 143.665 260.374 143.665 260.423C143.665 260.567 143.511 260.637 143.201 260.637C142.994 260.637 142.84 260.614 142.745 260.569C142.65 260.522 142.544 260.4 142.423 260.202C142.281 259.967 142.068 259.689 141.778 259.368C141.491 259.047 141.23 258.886 141 258.886C140.914 258.886 140.834 258.922 140.766 258.993C140.698 259.063 140.665 259.149 140.665 259.246C140.665 259.503 141.091 260.241 141.94 261.453C142.674 262.505 143.171 263.334 143.431 263.933C143.695 264.535 143.825 265.213 143.825 265.966C143.825 266.766 143.627 267.389 143.233 267.834C142.84 268.28 142.375 268.501 141.843 268.501C141.506 268.501 141.154 268.395 140.781 268.178C140.58 268.061 140.444 268.004 140.373 268.004C140.293 268.004 140.245 268.061 140.234 268.178C140.21 268.316 140.177 268.405 140.13 268.444C140.083 268.483 139.932 268.501 139.677 268.501C139.482 268.501 139.355 268.475 139.296 268.426C139.237 268.374 139.198 268.285 139.174 268.157L138.739 266.029C138.722 265.927 138.713 265.864 138.713 265.838C138.713 265.695 138.905 265.625 139.293 265.625C139.494 265.625 139.633 265.648 139.71 265.692C139.79 265.739 139.887 265.869 140.009 266.088C140.464 266.915 140.893 267.329 141.301 267.329C141.565 267.329 141.695 267.191 141.695 266.917C141.695 266.672 141.597 266.37 141.402 266.01C141.21 265.648 140.831 265.056 140.269 264.231C139.677 263.357 139.248 262.625 138.985 262.034C138.722 261.445 138.589 260.853 138.589 260.257C138.589 259.449 138.787 258.847 139.18 258.448C139.577 258.052 140.053 257.854 140.618 257.854C140.914 257.854 141.251 257.943 141.627 258.12C141.819 258.211 141.949 258.255 142.02 258.255C142.112 258.255 142.168 258.203 142.186 258.096C142.207 257.984 142.254 257.916 142.325 257.893C142.393 257.867 142.541 257.854 142.769 257.854C142.914 257.854 143.008 257.867 143.05 257.896C143.094 257.924 143.133 258.005 143.168 258.135V258.135ZM144.544 259.011H144.203C144.103 259.011 144.041 259.001 144.014 258.98C143.988 258.959 143.976 258.904 143.976 258.813V258.263C143.976 258.161 143.988 258.094 144.014 258.063C144.041 258.034 144.118 258.01 144.245 257.995C144.662 257.94 145.079 257.737 145.502 257.385C145.925 257.036 146.177 256.661 146.257 256.259C146.286 256.116 146.322 256.03 146.366 255.996C146.407 255.962 146.496 255.946 146.629 255.946H147.194C147.345 255.946 147.419 256.035 147.419 256.212V257.963H147.952C148.153 257.963 148.253 258.049 148.253 258.216V258.766C148.253 258.93 148.153 259.011 147.952 259.011H147.419V266.92C147.419 267.191 147.555 267.384 147.827 267.501C147.96 267.556 148.046 267.626 148.088 267.707C148.126 267.787 148.147 267.936 148.147 268.147C148.147 268.28 148.138 268.353 148.117 268.369C148.097 268.384 148.026 268.392 147.904 268.392H145.168C144.751 268.066 144.544 267.576 144.544 266.92V259.011V259.011ZM150.948 255.79C151.602 255.79 151.927 255.983 151.927 256.371C151.927 256.676 151.709 256.934 151.274 257.145C150.839 257.356 150.342 257.463 149.789 257.463C149.073 257.463 148.715 257.252 148.715 256.83C148.715 256.494 148.966 256.236 149.469 256.059C149.969 255.879 150.463 255.79 150.948 255.79V255.79ZM148.555 258.724V258.216C148.555 258.047 148.67 257.963 148.898 257.963H151.635C151.83 257.963 151.927 258.047 151.927 258.216V266.995C151.927 267.118 151.936 267.196 151.954 267.23C151.969 267.266 152.019 267.3 152.105 267.331C152.306 267.402 152.407 267.561 152.407 267.803C152.407 268.084 152.392 268.251 152.365 268.309C152.336 268.363 152.244 268.392 152.09 268.392H148.762C148.682 268.382 148.629 268.35 148.608 268.296C148.585 268.243 148.573 268.103 148.573 267.873C148.573 267.597 148.644 267.438 148.789 267.391C148.963 267.337 149.052 267.235 149.052 267.086V259.483C149.052 259.188 148.937 259.008 148.703 258.948C148.605 258.922 148.555 258.849 148.555 258.724V258.724ZM155.98 259.337V266.75C155.98 266.928 156.039 267.086 156.158 267.227C156.279 267.368 156.445 267.438 156.661 267.438C156.954 267.438 157.178 267.282 157.338 266.966C157.498 266.651 157.578 266.245 157.578 265.742L157.569 265.528C157.569 265.257 157.625 265.096 157.737 265.044C157.85 264.994 158.042 264.968 158.311 264.968C158.548 264.968 158.711 265.007 158.796 265.083C158.882 265.158 158.927 265.32 158.927 265.565C158.927 266.354 158.693 267.042 158.223 267.626C157.755 268.21 157.09 268.501 156.229 268.501C155.217 268.499 154.386 268.051 153.738 267.157C153.09 266.263 152.768 264.994 152.768 263.35C152.768 262.117 152.933 261.093 153.262 260.277C153.59 259.462 153.989 258.852 154.463 258.453C154.933 258.055 155.519 257.857 156.226 257.854C157.063 257.854 157.726 258.099 158.214 258.589C158.702 259.079 158.944 259.647 158.944 260.293C158.944 260.629 158.864 260.913 158.702 261.145C158.539 261.38 158.293 261.497 157.965 261.497C157.625 261.497 157.362 261.385 157.181 261.161C156.998 260.934 156.909 260.655 156.909 260.317C156.909 260.173 156.924 260.009 156.959 259.819C157.007 259.6 157.027 259.425 157.027 259.298C157.027 259.165 156.974 259.053 156.865 258.962C156.755 258.87 156.628 258.823 156.483 258.823C156.344 258.823 156.226 258.878 156.128 258.985C156.03 259.092 155.98 259.209 155.98 259.337V259.337ZM163.725 258.135L164.204 260.249C164.216 260.314 164.222 260.374 164.222 260.423C164.222 260.567 164.068 260.637 163.757 260.637C163.55 260.637 163.396 260.614 163.302 260.569C163.207 260.522 163.101 260.4 162.979 260.202C162.837 259.967 162.624 259.689 162.334 259.368C162.047 259.047 161.787 258.886 161.556 258.886C161.471 258.886 161.391 258.922 161.323 258.993C161.255 259.063 161.222 259.149 161.222 259.246C161.222 259.503 161.648 260.241 162.497 261.453C163.231 262.505 163.728 263.334 163.988 263.933C164.251 264.535 164.381 265.213 164.381 265.966C164.381 266.766 164.183 267.389 163.79 267.834C163.396 268.28 162.932 268.501 162.399 268.501C162.062 268.501 161.71 268.395 161.338 268.178C161.136 268.061 161 268.004 160.929 268.004C160.849 268.004 160.802 268.061 160.79 268.178C160.766 268.316 160.734 268.405 160.687 268.444C160.639 268.483 160.488 268.501 160.234 268.501C160.039 268.501 159.912 268.475 159.852 268.426C159.793 268.374 159.755 268.285 159.731 268.157L159.296 266.029C159.278 265.927 159.27 265.864 159.27 265.838C159.27 265.695 159.462 265.625 159.849 265.625C160.051 265.625 160.19 265.648 160.267 265.692C160.346 265.739 160.444 265.869 160.565 266.088C161.021 266.915 161.45 267.329 161.858 267.329C162.122 267.329 162.252 267.191 162.252 266.917C162.252 266.672 162.154 266.37 161.959 266.01C161.766 265.648 161.388 265.056 160.826 264.231C160.234 263.357 159.805 262.625 159.542 262.034C159.278 261.445 159.145 260.853 159.145 260.257C159.145 259.449 159.344 258.847 159.737 258.448C160.133 258.052 160.61 257.854 161.175 257.854C161.471 257.854 161.808 257.943 162.184 258.12C162.376 258.211 162.506 258.255 162.577 258.255C162.669 258.255 162.725 258.203 162.743 258.096C162.763 257.984 162.811 257.916 162.882 257.893C162.95 257.867 163.098 257.854 163.325 257.854C163.47 257.854 163.565 257.867 163.606 257.896C163.651 257.924 163.689 258.005 163.725 258.135V258.135Z" fill="#FEFEFE"/>
<path d="M112.749 237.395V242.634C112.749 243.33 112.902 243.872 113.204 244.262C113.511 244.656 113.902 244.853 114.377 244.853C115.114 244.853 115.702 244.577 116.142 244.026C116.583 243.47 116.815 242.717 116.845 241.759C116.855 241.242 116.909 240.936 117.013 240.831C117.112 240.73 117.468 240.678 118.072 240.678C118.596 240.678 118.927 240.726 119.066 240.818C119.209 240.914 119.279 241.15 119.279 241.527C119.279 242.844 118.794 244.017 117.829 245.045C116.86 246.074 115.578 246.586 113.981 246.586C112.15 246.586 110.597 245.85 109.321 244.384C108.045 242.918 107.407 240.713 107.407 237.758C107.407 234.809 107.995 232.564 109.178 231.019C110.36 229.474 111.908 228.704 113.822 228.704C115.465 228.704 116.785 229.356 117.785 230.656C118.779 231.955 119.279 233.807 119.279 236.2V237.395H112.749V237.395ZM114.737 235.767V231.535C114.737 230.734 114.411 230.332 113.753 230.332C113.085 230.332 112.749 230.734 112.749 231.535V235.767H114.737ZM125.932 230.616C127.09 229.343 128.41 228.704 129.894 228.704C130.903 228.704 131.68 228.993 132.219 229.57C132.759 230.148 133.026 230.87 133.026 231.745V244.03C133.026 244.306 133.144 244.516 133.382 244.66C133.599 244.778 133.708 245.085 133.708 245.584C133.708 245.973 133.674 246.209 133.599 246.288C133.53 246.362 133.377 246.402 133.144 246.402H129.083C128.504 245.964 128.217 245.395 128.217 244.695V232.489C128.217 231.82 127.901 231.487 127.273 231.487C126.862 231.487 126.412 231.675 125.932 232.052V244.03C125.932 244.341 126.1 244.577 126.432 244.748C126.635 244.853 126.733 245.041 126.733 245.312V245.969C126.733 246.257 126.496 246.402 126.026 246.402H120.901C120.649 246.402 120.491 246.371 120.421 246.306C120.357 246.24 120.323 246.082 120.323 245.824V245.352C120.323 245.102 120.407 244.927 120.58 244.826C120.807 244.682 120.956 244.546 121.025 244.415C121.089 244.288 121.124 244.008 121.124 243.57V231.036C121.124 230.739 120.961 230.52 120.629 230.384C120.446 230.305 120.352 230.17 120.352 229.973V229.286C120.352 229.019 120.486 228.888 120.758 228.888H125.482C125.685 228.888 125.813 228.914 125.858 228.962C125.907 229.015 125.932 229.12 125.932 229.281V230.616V230.616Z" fill="#F08143"/>
<path fill-rule="evenodd" clip-rule="evenodd" d="M8 8V20.6154H172V8H8Z" fill="#9A0952"/>
<path d="M155.446 17.059H154.89V13.3728L153.775 13.7824V13.2801L155.359 12.6852H155.446V17.059ZM158.884 17.059H158.328V13.3728L157.213 13.7824V13.2801L158.797 12.6852H158.884V17.059ZM160.543 16.769C160.543 16.6733 160.571 16.5936 160.627 16.5298C160.685 16.466 160.77 16.4341 160.884 16.4341C160.997 16.4341 161.083 16.466 161.141 16.5298C161.201 16.5936 161.231 16.6733 161.231 16.769C161.231 16.8607 161.201 16.9374 161.141 16.9992C161.083 17.061 160.997 17.0918 160.884 17.0918C160.77 17.0918 160.685 17.061 160.627 16.9992C160.571 16.9374 160.543 16.8607 160.543 16.769ZM160.546 14.1292C160.546 14.0335 160.574 13.9538 160.63 13.89C160.688 13.8262 160.773 13.7943 160.887 13.7943C161 13.7943 161.086 13.8262 161.144 13.89C161.204 13.9538 161.234 14.0335 161.234 14.1292C161.234 14.2208 161.204 14.2976 161.144 14.3594C161.086 14.4212 161 14.452 160.887 14.452C160.773 14.452 160.688 14.4212 160.63 14.3594C160.574 14.2976 160.546 14.2208 160.546 14.1292ZM163.805 17.059H163.249V13.3728L162.134 13.7824V13.2801L163.718 12.6852H163.805V17.059ZM167.243 17.059H166.687V13.3728L165.572 13.7824V13.2801L167.156 12.6852H167.243V17.059Z" fill="white"/>
<path d="M130.453 17.6635L126.64 12.9126C127.881 12.0413 129.152 11.6057 130.453 11.6057C131.755 11.6057 133.026 12.0413 134.266 12.9126L130.453 17.6635Z" fill="white"/>
<path d="M135.925 17.8326L142.475 11.2828V17.8326H135.925Z" fill="white"/>
<path d="M149.146 11.9286C149.269 11.9286 149.371 11.9747 149.453 12.067C149.546 12.149 149.592 12.2515 149.592 12.3745V17.4021C149.592 17.5251 149.546 17.6276 149.453 17.7096C149.371 17.7916 149.269 17.8326 149.146 17.8326H146.747C146.624 17.8326 146.517 17.7916 146.425 17.7096C146.343 17.6276 146.302 17.5251 146.302 17.4021V12.3745C146.302 12.2515 146.343 12.149 146.425 12.067C146.517 11.9747 146.624 11.9286 146.747 11.9286H147.286V11.2828H148.608V11.9286H149.146Z" fill="white"/>
<path d="M18 16H162V0H18V16ZM164 18V358H180V18H164ZM162 360H18V376H162V360ZM16 358V18H0V358H16ZM18 360C16.8954 360 16 359.105 16 358H0C0 367.941 8.05888 376 18 376V360ZM164 358C164 359.105 163.105 360 162 360V376C171.941 376 180 367.941 180 358H164ZM162 16C163.105 16 164 16.8954 164 18H180C180 8.05887 171.941 0 162 0V16ZM18 0C8.05887 0 0 8.05888 0 18H16C16 16.8954 16.8954 16 18 16V0Z" fill="white"/>
<defs>
<linearGradient id="paint0_linear_1814_6162" x1="0" y1="0" x2="169.185" y2="357.547" gradientUnits="userSpaceOnUse">
<stop stop-color="#3E1347"/>
<stop offset="1" stop-color="#F5005C"/>
</linearGradient>
</defs>
</svg>
