<svg width="180" height="376" viewBox="0 0 180 376" fill="none" xmlns="http://www.w3.org/2000/svg">
<g clip-path="url(#clip0)">
<rect width="164" height="360" transform="translate(8 8)" fill="url(#paint0_linear)"/>
<path fill-rule="evenodd" clip-rule="evenodd" d="M71.3681 166.684C71.3681 178.66 61.6598 188.368 49.6841 188.368C37.7083 188.368 28 178.66 28 166.684C28 154.708 37.7083 145 49.6841 145C61.6598 145 71.3681 154.708 71.3681 166.684ZM45.0004 169.394H40.3359L35.1545 176.875H64.2149L61.8868 173.514H42.1471L45.0004 169.394ZM59.0326 163.974H54.3678L57.2211 159.854H37.4818L35.1537 156.492H64.2141L59.0326 163.974Z" fill="white"/>
<path d="M82.9455 176.995C81.4623 176.995 80.1255 176.663 78.9351 176C77.7446 175.317 76.8079 174.38 76.1248 173.19C75.4418 171.999 75.1002 170.653 75.1002 169.15C75.1002 167.647 75.4418 166.301 76.1248 165.11C76.8079 163.92 77.7446 162.993 78.9351 162.329C80.1255 161.666 81.4623 161.334 82.9455 161.334C84.4287 161.334 85.7655 161.666 86.956 162.329C88.1465 162.993 89.0734 163.92 89.737 165.11C90.42 166.301 90.7616 167.647 90.7616 169.15C90.7616 170.653 90.42 171.999 89.737 173.19C89.0734 174.38 88.1465 175.317 86.956 176C85.7655 176.663 84.4287 176.995 82.9455 176.995ZM82.9455 175.151C84.0384 175.151 85.0142 174.907 85.8729 174.419C86.7511 173.912 87.4341 173.199 87.922 172.282C88.4099 171.365 88.6539 170.321 88.6539 169.15C88.6539 167.979 88.4099 166.935 87.922 166.018C87.4341 165.1 86.7511 164.398 85.8729 163.91C85.0142 163.403 84.0384 163.149 82.9455 163.149C81.8527 163.149 80.8671 163.403 79.9889 163.91C79.1302 164.398 78.4472 165.1 77.9398 166.018C77.4519 166.935 77.2079 167.979 77.2079 169.15C77.2079 170.321 77.4519 171.365 77.9398 172.282C78.4472 173.199 79.1302 173.912 79.9889 174.419C80.8671 174.907 81.8527 175.151 82.9455 175.151ZM102.85 161.334C104.782 161.334 106.314 161.9 107.446 163.032C108.597 164.144 109.173 165.774 109.173 167.92V176.849H107.095V168.125C107.095 166.525 106.695 165.305 105.895 164.466C105.094 163.627 103.953 163.207 102.47 163.207C100.811 163.207 99.4934 163.705 98.5177 164.7C97.5614 165.676 97.0833 167.033 97.0833 168.769V176.849H95.0048V161.451H96.9954V164.291C97.5614 163.354 98.342 162.632 99.3373 162.124C100.352 161.597 101.523 161.334 102.85 161.334ZM128.28 169.794H115.4C115.517 171.394 116.132 172.692 117.244 173.687C118.357 174.663 119.762 175.151 121.46 175.151C122.416 175.151 123.294 174.985 124.094 174.653C124.894 174.302 125.587 173.795 126.173 173.131L127.344 174.478C126.661 175.297 125.802 175.922 124.768 176.351C123.753 176.781 122.631 176.995 121.401 176.995C119.82 176.995 118.415 176.663 117.186 176C115.976 175.317 115.029 174.38 114.346 173.19C113.663 171.999 113.322 170.653 113.322 169.15C113.322 167.647 113.644 166.301 114.288 165.11C114.951 163.92 115.849 162.993 116.981 162.329C118.132 161.666 119.42 161.334 120.845 161.334C122.269 161.334 123.548 161.666 124.68 162.329C125.812 162.993 126.7 163.92 127.344 165.11C127.988 166.281 128.31 167.628 128.31 169.15L128.28 169.794ZM120.845 163.12C119.362 163.12 118.113 163.598 117.098 164.554C116.103 165.491 115.537 166.72 115.4 168.242H126.319C126.182 166.72 125.607 165.491 124.592 164.554C123.597 163.598 122.348 163.12 120.845 163.12ZM138.014 156.357V176.849H134.209V159.548H129.876V156.357H138.014ZM149.163 156.357V176.849H145.358V159.548H141.025V156.357H149.163Z" fill="white"/>
<path fill-rule="evenodd" clip-rule="evenodd" d="M72.8864 301.523C76.1374 301.523 78.7728 298.888 78.7728 295.637C78.7728 292.386 76.1374 289.75 72.8864 289.75C69.6354 289.75 67 292.386 67 295.637C67 298.888 69.6354 301.523 72.8864 301.523ZM72.8865 297.402C73.8618 297.402 74.6525 296.612 74.6525 295.637C74.6525 294.661 73.8618 293.871 72.8865 293.871C71.9113 293.871 71.1206 294.661 71.1206 295.637C71.1206 296.612 71.9113 297.402 72.8865 297.402Z" fill="white"/>
<circle cx="78.7727" cy="301.523" r="1.76592" fill="white"/>
<path d="M81.349 298.498C80.7783 298.498 80.3036 298.284 79.925 297.854C79.552 297.419 79.3656 296.891 79.3656 296.269V294.786C79.3656 294.65 79.3684 294.551 79.374 294.489C79.3853 294.427 79.4108 294.353 79.4503 294.269C79.5294 294.116 79.7498 294.04 80.1115 294.04C80.5071 294.04 80.7387 294.147 80.8066 294.362C80.8405 294.452 80.8574 294.596 80.8574 294.794V296.278C80.8574 296.509 80.9224 296.69 81.0524 296.82C81.188 296.95 81.366 297.015 81.5864 297.015C81.8124 297.015 81.9933 296.947 82.1289 296.812C82.2701 296.676 82.3408 296.498 82.3408 296.278V294.777C82.3408 294.647 82.3436 294.551 82.3493 294.489C82.3606 294.421 82.3888 294.345 82.434 294.26C82.5075 294.113 82.725 294.04 83.0867 294.04C83.4427 294.04 83.6603 294.116 83.7394 294.269C83.7789 294.353 83.8016 294.43 83.8072 294.498C83.8185 294.56 83.8242 294.656 83.8242 294.786V297.786C83.8242 297.911 83.8185 298.007 83.8072 298.075C83.8016 298.137 83.7761 298.207 83.7309 298.286C83.6461 298.433 83.4286 298.507 83.0782 298.507C82.7335 298.507 82.5216 298.439 82.4425 298.303C82.386 298.207 82.3577 298.091 82.3577 297.956C82.3351 297.995 82.2843 298.052 82.2052 298.125C82.126 298.199 82.0498 298.261 81.9763 298.312C81.7842 298.436 81.5751 298.498 81.349 298.498ZM87.405 294.523C87.4389 294.206 87.6621 294.048 88.0746 294.048C88.295 294.048 88.4589 294.065 88.5662 294.099C88.6736 294.133 88.7471 294.192 88.7866 294.277C88.8318 294.362 88.8573 294.438 88.8629 294.506C88.8742 294.568 88.8799 294.664 88.8799 294.794V297.761C88.8799 297.891 88.8742 297.99 88.8629 298.058C88.8573 298.12 88.8347 298.193 88.7951 298.278C88.716 298.425 88.521 298.498 88.2102 298.498C87.9051 298.498 87.6988 298.462 87.5915 298.388C87.4897 298.309 87.4304 298.196 87.4134 298.049C87.2044 298.349 86.854 298.498 86.3624 298.498C85.8764 298.498 85.4243 298.275 85.0061 297.829C84.588 297.382 84.3789 296.865 84.3789 296.278C84.3789 295.684 84.588 295.167 85.0061 294.726C85.43 294.28 85.8933 294.057 86.3963 294.057C86.5884 294.057 86.7636 294.091 86.9218 294.158C87.08 294.226 87.1902 294.291 87.2524 294.353C87.3146 294.41 87.3654 294.466 87.405 294.523ZM85.8623 296.286C85.8623 296.473 85.9357 296.642 86.0827 296.795C86.2296 296.942 86.4076 297.015 86.6167 297.015C86.8258 297.015 86.9981 296.939 87.1337 296.786C87.275 296.634 87.3456 296.467 87.3456 296.286C87.3456 296.1 87.2778 295.927 87.1422 295.769C87.0122 295.611 86.8342 295.532 86.6082 295.532C86.3878 295.532 86.207 295.611 86.0657 295.769C85.9301 295.927 85.8623 296.1 85.8623 296.286ZM92.1492 295.549L91.5983 295.515V296.684C91.5983 296.837 91.6209 296.947 91.6661 297.015C91.7169 297.083 91.8074 297.117 91.9373 297.117C92.073 297.117 92.1747 297.122 92.2425 297.134C92.3159 297.139 92.3922 297.165 92.4713 297.21C92.6013 297.283 92.6663 297.473 92.6663 297.778C92.6663 298.134 92.5872 298.351 92.429 298.431C92.3442 298.47 92.2679 298.496 92.2001 298.507C92.1379 298.512 92.0447 298.515 91.9204 298.515C91.3327 298.515 90.8863 298.383 90.5811 298.117C90.276 297.851 90.1234 297.402 90.1234 296.769V295.515C90.016 295.532 89.9002 295.54 89.7758 295.54C89.6515 295.54 89.547 295.492 89.4622 295.396C89.3831 295.3 89.3436 295.136 89.3436 294.904C89.3436 294.673 89.3577 294.506 89.3859 294.404C89.4142 294.297 89.4537 294.221 89.5046 294.175C89.595 294.102 89.708 294.065 89.8437 294.065L90.1234 294.099V293.226C90.1234 293.096 90.1262 293 90.1319 292.938C90.1432 292.876 90.1714 292.808 90.2166 292.734C90.2901 292.593 90.5076 292.523 90.8693 292.523C91.2536 292.523 91.4824 292.627 91.5559 292.836C91.5841 292.927 91.5983 293.071 91.5983 293.268V294.099C91.8469 294.077 92.0334 294.065 92.1577 294.065C92.2877 294.065 92.3838 294.071 92.4459 294.082C92.5137 294.088 92.59 294.113 92.6748 294.158C92.8217 294.232 92.8952 294.449 92.8952 294.811C92.8952 295.167 92.8189 295.385 92.6663 295.464C92.5815 295.503 92.5052 295.529 92.4374 295.54C92.3753 295.546 92.2792 295.549 92.1492 295.549ZM96.3978 294.099C96.5051 294.133 96.5927 294.192 96.6605 294.277C96.734 294.356 96.7707 294.486 96.7707 294.667C96.7707 294.848 96.7171 295.046 96.6097 295.26C96.5023 295.475 96.3469 295.582 96.1435 295.582C96.0418 295.582 95.9429 295.56 95.8468 295.515C95.7564 295.469 95.6349 295.447 95.4823 295.447C95.3297 295.447 95.1856 295.501 95.05 295.608C94.9201 295.715 94.8551 295.845 94.8551 295.998V297.778C94.8551 297.908 94.8494 298.007 94.8381 298.075C94.8325 298.137 94.807 298.21 94.7618 298.295C94.6771 298.442 94.4567 298.515 94.1007 298.515C93.8294 298.515 93.6345 298.467 93.5158 298.371C93.4254 298.292 93.3745 298.171 93.3632 298.007C93.3632 297.95 93.3632 297.868 93.3632 297.761V294.786C93.3632 294.656 93.366 294.56 93.3717 294.498C93.383 294.43 93.4084 294.356 93.448 294.277C93.5271 294.125 93.7475 294.048 94.1091 294.048C94.4482 294.048 94.6601 294.113 94.7449 294.243C94.807 294.334 94.8381 294.427 94.8381 294.523C94.8664 294.483 94.9059 294.435 94.9568 294.379C95.0133 294.322 95.1291 294.246 95.3043 294.15C95.4795 294.054 95.6321 294.006 95.762 294.006C95.8977 294.006 96.0107 294.014 96.1011 294.031C96.1915 294.043 96.2904 294.065 96.3978 294.099ZM96.8534 296.286C96.8534 295.608 97.0908 295.048 97.5655 294.608C98.0401 294.167 98.5826 293.947 99.1929 293.947C99.8032 293.947 100.343 294.167 100.812 294.608C101.281 295.043 101.515 295.599 101.515 296.278C101.515 296.747 101.394 297.165 101.151 297.532C100.908 297.894 100.611 298.162 100.261 298.337C99.9163 298.507 99.5574 298.592 99.1845 298.592C98.8115 298.592 98.4498 298.501 98.0995 298.32C97.7491 298.134 97.4524 297.863 97.2095 297.507C96.9721 297.145 96.8534 296.738 96.8534 296.286ZM98.625 296.896C98.8058 297.032 98.9895 297.1 99.176 297.1C99.3625 297.1 99.5489 297.029 99.7354 296.888C99.9219 296.747 100.015 296.537 100.015 296.261C100.015 295.984 99.9276 295.777 99.7524 295.642C99.5772 295.506 99.3879 295.438 99.1845 295.438C98.981 295.438 98.7917 295.509 98.6165 295.65C98.4414 295.792 98.3538 296.001 98.3538 296.278C98.3538 296.549 98.4442 296.755 98.625 296.896ZM104.547 294.048C105.112 294.048 105.581 294.266 105.954 294.701C106.332 295.13 106.522 295.656 106.522 296.278V297.769C106.522 297.899 106.516 297.998 106.505 298.066C106.499 298.128 106.477 298.199 106.437 298.278C106.358 298.431 106.137 298.507 105.776 298.507C105.375 298.507 105.143 298.402 105.081 298.193C105.047 298.097 105.03 297.953 105.03 297.761V296.269C105.03 296.037 104.962 295.857 104.826 295.727C104.696 295.597 104.518 295.532 104.292 295.532C104.072 295.532 103.891 295.599 103.75 295.735C103.614 295.871 103.546 296.049 103.546 296.269V297.769C103.546 297.899 103.541 297.998 103.53 298.066C103.524 298.128 103.498 298.199 103.453 298.278C103.38 298.431 103.162 298.507 102.801 298.507C102.445 298.507 102.227 298.431 102.148 298.278C102.108 298.193 102.083 298.12 102.072 298.058C102.066 297.99 102.063 297.891 102.063 297.761V294.76C102.063 294.636 102.066 294.543 102.072 294.481C102.083 294.413 102.111 294.339 102.156 294.26C102.235 294.119 102.453 294.048 102.809 294.048C103.154 294.048 103.366 294.113 103.445 294.243C103.501 294.339 103.53 294.455 103.53 294.591C103.552 294.551 103.603 294.495 103.682 294.421C103.761 294.348 103.838 294.288 103.911 294.243C104.103 294.113 104.315 294.048 104.547 294.048ZM107.238 298.117C107.13 298.049 107.076 297.942 107.076 297.795C107.076 297.648 107.184 297.425 107.399 297.125C107.461 297.029 107.56 296.981 107.695 296.981C107.837 296.981 108.026 297.052 108.263 297.193C108.5 297.329 108.715 297.396 108.907 297.396C109.252 297.396 109.424 297.329 109.424 297.193C109.424 297.086 109.235 297.007 108.856 296.956C108.5 296.905 108.147 296.772 107.797 296.557C107.633 296.456 107.497 296.297 107.39 296.083C107.283 295.862 107.229 295.602 107.229 295.303C107.229 294.41 107.842 293.963 109.068 293.963C109.47 293.963 109.882 294.06 110.306 294.252C110.504 294.342 110.603 294.455 110.603 294.591C110.603 294.726 110.54 294.893 110.416 295.091C110.292 295.289 110.165 295.388 110.035 295.388C109.967 295.388 109.84 295.345 109.653 295.26C109.472 295.176 109.275 295.133 109.06 295.133C108.727 295.133 108.56 295.195 108.56 295.32C108.56 295.489 108.752 295.599 109.136 295.65C109.509 295.69 109.871 295.797 110.221 295.972C110.385 296.052 110.521 296.19 110.628 296.388C110.741 296.58 110.798 296.823 110.798 297.117C110.798 297.411 110.741 297.662 110.628 297.871C110.521 298.075 110.368 298.227 110.17 298.329C109.809 298.504 109.354 298.592 108.806 298.592C108.263 298.592 107.74 298.433 107.238 298.117Z" fill="white"/>
<path d="M74.6228 282.656V284.368H74.0461V279.995H75.6591C76.1377 279.995 76.5122 280.117 76.7825 280.361C77.0549 280.605 77.191 280.929 77.191 281.331C77.191 281.756 77.0579 282.083 76.7915 282.314C76.5272 282.542 76.1477 282.656 75.6531 282.656H74.6228ZM74.6228 282.184H75.6591C75.9675 282.184 76.2038 282.112 76.368 281.968C76.5322 281.822 76.6143 281.612 76.6143 281.337C76.6143 281.077 76.5322 280.869 76.368 280.713C76.2038 280.556 75.9785 280.475 75.6922 280.469H74.6228V282.184ZM77.6506 282.713C77.6506 282.395 77.7127 282.108 77.8368 281.854C77.963 281.6 78.1372 281.403 78.3595 281.265C78.5838 281.127 78.8391 281.058 79.1255 281.058C79.568 281.058 79.9255 281.211 80.1978 281.518C80.4721 281.824 80.6093 282.231 80.6093 282.74V282.779C80.6093 283.096 80.5482 283.38 80.4261 283.632C80.3059 283.883 80.1327 284.078 79.9064 284.218C79.6821 284.358 79.4238 284.428 79.1315 284.428C78.6909 284.428 78.3335 284.275 78.0591 283.969C77.7868 283.662 77.6506 283.257 77.6506 282.752V282.713ZM78.2093 282.779C78.2093 283.14 78.2924 283.429 78.4586 283.647C78.6268 283.866 78.8511 283.975 79.1315 283.975C79.4138 283.975 79.6381 283.865 79.8043 283.644C79.9705 283.422 80.0536 283.112 80.0536 282.713C80.0536 282.357 79.9685 282.068 79.7983 281.848C79.6301 281.626 79.4058 281.515 79.1255 281.515C78.8511 281.515 78.6298 281.624 78.4616 281.842C78.2934 282.06 78.2093 282.373 78.2093 282.779ZM84.1838 283.602L84.8086 281.118H85.3643L84.4181 284.368H83.9675L83.1775 281.905L82.4086 284.368H81.958L81.0148 281.118H81.5675L82.2073 283.551L82.9643 281.118H83.4118L84.1838 283.602ZM87.2807 284.428C86.8401 284.428 86.4817 284.284 86.2053 283.996C85.929 283.705 85.7908 283.318 85.7908 282.833V282.731C85.7908 282.409 85.8519 282.121 85.974 281.869C86.0982 281.615 86.2704 281.416 86.4907 281.274C86.713 281.13 86.9533 281.058 87.2116 281.058C87.6341 281.058 87.9625 281.197 88.1968 281.476C88.4311 281.754 88.5482 282.152 88.5482 282.671V282.902H86.3465C86.3545 283.223 86.4476 283.482 86.6258 283.68C86.8061 283.877 87.0344 283.975 87.3107 283.975C87.5069 283.975 87.6732 283.935 87.8093 283.855C87.9455 283.774 88.0646 283.668 88.1668 283.536L88.5062 283.8C88.2339 284.219 87.8253 284.428 87.2807 284.428ZM87.2116 281.515C86.9873 281.515 86.7991 281.597 86.6469 281.761C86.4947 281.923 86.4006 282.151 86.3645 282.446H87.9926V282.404C87.9765 282.121 87.9004 281.903 87.7643 281.749C87.6281 281.593 87.4439 281.515 87.2116 281.515ZM90.765 281.617C90.6809 281.603 90.5898 281.596 90.4917 281.596C90.1272 281.596 89.8799 281.751 89.7498 282.061V284.368H89.1941V281.118H89.7347L89.7437 281.494C89.926 281.203 90.1843 281.058 90.5187 281.058C90.6269 281.058 90.709 281.072 90.765 281.1V281.617ZM92.5673 284.428C92.1267 284.428 91.7683 284.284 91.4919 283.996C91.2156 283.705 91.0774 283.318 91.0774 282.833V282.731C91.0774 282.409 91.1385 282.121 91.2606 281.869C91.3848 281.615 91.557 281.416 91.7773 281.274C91.9996 281.13 92.2399 281.058 92.4982 281.058C92.9207 281.058 93.2491 281.197 93.4834 281.476C93.7177 281.754 93.8349 282.152 93.8349 282.671V282.902H91.6331C91.6411 283.223 91.7342 283.482 91.9125 283.68C92.0927 283.877 92.321 283.975 92.5973 283.975C92.7936 283.975 92.9598 283.935 93.0959 283.855C93.2321 283.774 93.3513 283.668 93.4534 283.536L93.7928 283.8C93.5205 284.219 93.112 284.428 92.5673 284.428ZM92.4982 281.515C92.2739 281.515 92.0857 281.597 91.9335 281.761C91.7813 281.923 91.6872 282.151 91.6511 282.446H93.2792V282.404C93.2632 282.121 93.1871 281.903 93.0509 281.749C92.9147 281.593 92.7305 281.515 92.4982 281.515ZM94.3455 282.716C94.3455 282.217 94.4637 281.817 94.7 281.515C94.9362 281.21 95.2456 281.058 95.6281 281.058C96.0086 281.058 96.31 281.188 96.5322 281.449V279.754H97.0879V284.368H96.5773L96.5503 284.02C96.328 284.292 96.0186 284.428 95.6221 284.428C95.2456 284.428 94.9383 284.274 94.7 283.966C94.4637 283.657 94.3455 283.255 94.3455 282.758V282.716ZM94.9012 282.779C94.9012 283.148 94.9773 283.436 95.1295 283.644C95.2817 283.853 95.4919 283.957 95.7603 283.957C96.1127 283.957 96.37 283.798 96.5322 283.482V281.989C96.366 281.683 96.1107 281.53 95.7663 281.53C95.4939 281.53 95.2817 281.635 95.1295 281.845C94.9773 282.055 94.9012 282.367 94.9012 282.779ZM102.23 282.779C102.23 283.276 102.116 283.675 101.888 283.978C101.66 284.278 101.353 284.428 100.969 284.428C100.558 284.428 100.241 284.283 100.017 283.993L99.9896 284.368H99.4789V279.754H100.035V281.476C100.259 281.197 100.568 281.058 100.963 281.058C101.357 281.058 101.667 281.207 101.891 281.506C102.117 281.804 102.23 282.212 102.23 282.731V282.779ZM101.675 282.716C101.675 282.338 101.602 282.045 101.455 281.839C101.309 281.633 101.099 281.53 100.825 281.53C100.458 281.53 100.195 281.7 100.035 282.04V283.446C100.205 283.786 100.47 283.957 100.831 283.957C101.097 283.957 101.304 283.854 101.452 283.647C101.601 283.441 101.675 283.131 101.675 282.716ZM103.961 283.554L104.717 281.118H105.312L104.006 284.87C103.803 285.41 103.482 285.681 103.041 285.681L102.936 285.672L102.729 285.633V285.182L102.879 285.194C103.067 285.194 103.214 285.156 103.318 285.08C103.424 285.004 103.511 284.865 103.579 284.663L103.702 284.332L102.543 281.118H103.15L103.961 283.554Z" fill="white"/>
<path fill-rule="evenodd" clip-rule="evenodd" d="M8 8V20.6154H172V8H8Z" fill="#9A0952"/>
<path d="M155.446 17.059H154.89V13.3728L153.775 13.7824V13.2801L155.359 12.6852H155.446V17.059ZM158.884 17.059H158.328V13.3728L157.213 13.7824V13.2801L158.797 12.6852H158.884V17.059ZM160.543 16.769C160.543 16.6733 160.571 16.5936 160.627 16.5298C160.685 16.466 160.77 16.4341 160.884 16.4341C160.997 16.4341 161.083 16.466 161.141 16.5298C161.201 16.5936 161.231 16.6733 161.231 16.769C161.231 16.8607 161.201 16.9374 161.141 16.9992C161.083 17.061 160.997 17.0918 160.884 17.0918C160.77 17.0918 160.685 17.061 160.627 16.9992C160.571 16.9374 160.543 16.8607 160.543 16.769ZM160.546 14.1292C160.546 14.0335 160.574 13.9538 160.63 13.89C160.688 13.8262 160.773 13.7943 160.887 13.7943C161 13.7943 161.086 13.8262 161.144 13.89C161.204 13.9538 161.234 14.0335 161.234 14.1292C161.234 14.2208 161.204 14.2976 161.144 14.3594C161.086 14.4212 161 14.452 160.887 14.452C160.773 14.452 160.688 14.4212 160.63 14.3594C160.574 14.2976 160.546 14.2208 160.546 14.1292ZM163.805 17.059H163.249V13.3728L162.134 13.7824V13.2801L163.718 12.6852H163.805V17.059ZM167.243 17.059H166.687V13.3728L165.572 13.7824V13.2801L167.156 12.6852H167.243V17.059Z" fill="white"/>
<path d="M130.453 17.6635L126.64 12.9126C127.881 12.0413 129.152 11.6057 130.453 11.6057C131.755 11.6057 133.026 12.0413 134.266 12.9126L130.453 17.6635Z" fill="white"/>
<path d="M135.925 17.8326L142.475 11.2828V17.8326H135.925Z" fill="white"/>
<path d="M149.146 11.9286C149.269 11.9286 149.371 11.9747 149.453 12.067C149.546 12.149 149.592 12.2515 149.592 12.3745V17.4021C149.592 17.5251 149.546 17.6276 149.453 17.7096C149.371 17.7916 149.269 17.8326 149.146 17.8326H146.747C146.624 17.8326 146.517 17.7916 146.425 17.7096C146.343 17.6276 146.302 17.5251 146.302 17.4021V12.3745C146.302 12.2515 146.343 12.149 146.425 12.067C146.517 11.9747 146.624 11.9286 146.747 11.9286H147.286V11.2828H148.608V11.9286H149.146Z" fill="white"/>
</g>
<rect x="4" y="4" width="172" height="368" rx="14" stroke="white" stroke-width="8"/>
<defs>
<linearGradient id="paint0_linear" x1="0" y1="0" x2="169.185" y2="357.547" gradientUnits="userSpaceOnUse">
<stop stop-color="#3E1347"/>
<stop offset="1" stop-color="#F5005C"/>
</linearGradient>
<clipPath id="clip0">
<rect width="164" height="360" fill="white" transform="translate(8 8)"/>
</clipPath>
</defs>
</svg>
