<svg width="70" height="24" viewBox="0 0 70 24" fill="none" xmlns="http://www.w3.org/2000/svg">
<path fill-rule="evenodd" clip-rule="evenodd" d="M24.9944 12C24.9944 18.6274 19.6218 24 12.9944 24C6.36697 24 0.994385 18.6274 0.994385 12C0.994385 5.37258 6.36697 0 12.9944 0C19.6218 0 24.9944 5.37258 24.9944 12ZM10.4027 13.4999H7.82128L4.95385 17.64H21.0359L19.7475 15.7797H8.82366L10.4027 13.4999ZM18.168 10.5002H15.5866L17.1656 8.22038L6.24178 8.22038L4.95336 6.3601H21.0354L18.168 10.5002Z" fill="url(#paint0_linear)"/>
<path d="M31.4013 18.2111C30.5805 18.2111 29.8407 18.0275 29.1819 17.6603C28.5231 17.2823 28.0047 16.7639 27.6267 16.1051C27.2487 15.4463 27.0597 14.7011 27.0597 13.8695C27.0597 13.0379 27.2487 12.2927 27.6267 11.6339C28.0047 10.9751 28.5231 10.4621 29.1819 10.0949C29.8407 9.72773 30.5805 9.54413 31.4013 9.54413C32.2221 9.54413 32.9619 9.72773 33.6207 10.0949C34.2795 10.4621 34.7925 10.9751 35.1597 11.6339C35.5377 12.2927 35.7267 13.0379 35.7267 13.8695C35.7267 14.7011 35.5377 15.4463 35.1597 16.1051C34.7925 16.7639 34.2795 17.2823 33.6207 17.6603C32.9619 18.0275 32.2221 18.2111 31.4013 18.2111ZM31.4013 17.1905C32.0061 17.1905 32.5461 17.0555 33.0213 16.7855C33.5073 16.5047 33.8853 16.1105 34.1553 15.6029C34.4253 15.0953 34.5603 14.5175 34.5603 13.8695C34.5603 13.2215 34.4253 12.6437 34.1553 12.1361C33.8853 11.6285 33.5073 11.2397 33.0213 10.9697C32.5461 10.6889 32.0061 10.5485 31.4013 10.5485C30.7965 10.5485 30.2511 10.6889 29.7651 10.9697C29.2899 11.2397 28.9119 11.6285 28.6311 12.1361C28.3611 12.6437 28.2261 13.2215 28.2261 13.8695C28.2261 14.5175 28.3611 15.0953 28.6311 15.6029C28.9119 16.1105 29.2899 16.5047 29.7651 16.7855C30.2511 17.0555 30.7965 17.1905 31.4013 17.1905ZM42.4165 9.54413C43.4857 9.54413 44.3335 9.85733 44.9599 10.4837C45.5971 11.0993 45.9157 12.0011 45.9157 13.1891V18.1301H44.7655V13.3025C44.7655 12.4169 44.5441 11.7419 44.1013 11.2775C43.6585 10.8131 43.0267 10.5809 42.2059 10.5809C41.2879 10.5809 40.5589 10.8563 40.0189 11.4071C39.4897 11.9471 39.2251 12.6977 39.2251 13.6589V18.1301H38.0749V9.60893H39.1765V11.1803C39.4897 10.6619 39.9217 10.2623 40.4725 9.98153C41.0341 9.68993 41.6821 9.54413 42.4165 9.54413ZM56.4896 14.2259H49.3616C49.4264 15.1115 49.7666 15.8297 50.3822 16.3805C50.9978 16.9205 51.7754 17.1905 52.715 17.1905C53.2442 17.1905 53.7302 17.0987 54.173 16.9151C54.6158 16.7207 54.9992 16.4399 55.3232 16.0727L55.9712 16.8179C55.5932 17.2715 55.118 17.6171 54.5456 17.8547C53.984 18.0923 53.363 18.2111 52.6826 18.2111C51.8078 18.2111 51.0302 18.0275 50.3498 17.6603C49.6802 17.2823 49.1564 16.7639 48.7784 16.1051C48.4004 15.4463 48.2114 14.7011 48.2114 13.8695C48.2114 13.0379 48.3896 12.2927 48.746 11.6339C49.1132 10.9751 49.61 10.4621 50.2364 10.0949C50.8736 9.72773 51.5864 9.54413 52.3748 9.54413C53.1632 9.54413 53.8706 9.72773 54.497 10.0949C55.1234 10.4621 55.6148 10.9751 55.9712 11.6339C56.3276 12.2819 56.5058 13.0271 56.5058 13.8695L56.4896 14.2259ZM52.3748 10.5323C51.554 10.5323 50.8628 10.7969 50.3012 11.3261C49.7504 11.8445 49.4372 12.5249 49.3616 13.3673H55.4042C55.3286 12.5249 55.01 11.8445 54.4484 11.3261C53.8976 10.7969 53.2064 10.5323 52.3748 10.5323ZM61.8764 6.79013V18.1301H59.7704V8.55593H57.3728V6.79013H61.8764ZM68.0463 6.79013V18.1301H65.9403V8.55593H63.5427V6.79013H68.0463Z" fill="#9A0952"/>
<defs>
<linearGradient id="paint0_linear" x1="5.25439" y1="2.895" x2="20.7194" y2="21.495" gradientUnits="userSpaceOnUse">
<stop stop-color="#F5005C"/>
<stop offset="1" stop-color="#3E1347"/>
</linearGradient>
</defs>
</svg>
