<?xml version="1.0" encoding="UTF-8" standalone="no"?>
<svg
   xmlns:dc="http://purl.org/dc/elements/1.1/"
   xmlns:cc="http://creativecommons.org/ns#"
   xmlns:rdf="http://www.w3.org/1999/02/22-rdf-syntax-ns#"
   xmlns:svg="http://www.w3.org/2000/svg"
   xmlns="http://www.w3.org/2000/svg"
   xmlns:sodipodi="http://sodipodi.sourceforge.net/DTD/sodipodi-0.dtd"
   xmlns:inkscape="http://www.inkscape.org/namespaces/inkscape"
   version="1.1"
   id="svg2"
   xml:space="preserve"
   width="2666.6667"
   height="2666.6667"
   viewBox="0 0 2666.6667 2666.6667"
   sodipodi:docname="shutterstock_1935754717.eps"><metadata
     id="metadata8"><rdf:RDF><cc:Work
         rdf:about=""><dc:format>image/svg+xml</dc:format><dc:type
           rdf:resource="http://purl.org/dc/dcmitype/StillImage" /></cc:Work></rdf:RDF></metadata><defs
     id="defs6" /><sodipodi:namedview
     pagecolor="#ffffff"
     bordercolor="#666666"
     borderopacity="1"
     objecttolerance="10"
     gridtolerance="10"
     guidetolerance="10"
     inkscape:pageopacity="0"
     inkscape:pageshadow="2"
     inkscape:window-width="640"
     inkscape:window-height="480"
     id="namedview4" /><g
     id="g10"
     inkscape:groupmode="layer"
     inkscape:label="ink_ext_XXXXXX"
     transform="matrix(1.3333333,0,0,-1.3333333,0,2666.6667)"><g
       id="g12"
       transform="scale(0.1)"><path
         d="M 20000,0 H 0 V 20000 H 20000 V 0"
         style="fill:#ffffff;fill-opacity:1;fill-rule:nonzero;stroke:none"
         id="path14" /><path
         d="m 8115.72,1311.4 c 26.66,21.9 40,53.1 40,93.6 0,40.5 -13.34,71.6 -40,93.2 -26.67,21.6 -65.33,32.4 -116,32.4 h -136 v -252 h 136 c 50.67,0 89.33,10.9 116,32.8 z m 42.4,-271.2 -120.8,172 c -14.94,-1.1 -26.68,-1.6 -35.2,-1.6 h -138.4 v -170.4 h -80 v 560 h 218.4 c 72.53,0 129.6,-17.3 171.2,-52 41.6,-34.7 62.4,-82.4 62.4,-143.2 0,-43.2 -10.67,-80 -32,-110.4 -21.34,-30.4 -51.74,-52.5 -91.2,-66.4 l 132.8,-188 h -87.2"
         style="fill:#5652cc;fill-opacity:1;fill-rule:nonzero;stroke:none"
         id="path16" /><path
         d="m 8562.92,1114.2 c 21.33,13.1 36.81,31.6 46.41,55.6 v 59.2 h -118.41 c -65.07,0 -97.59,-21.9 -97.59,-65.6 0,-21.3 8.26,-38.1 24.8,-50.4 16.52,-12.3 39.46,-18.4 68.79,-18.4 29.33,0 54.67,6.5 76,19.6 z m 76.41,310.8 c 31.19,-28.8 46.79,-71.7 46.79,-128.8 v -256 h -72.79 v 56 c -12.81,-19.7 -31.08,-34.8 -54.8,-45.2 -23.74,-10.4 -51.88,-15.6 -84.4,-15.6 -47.48,0 -85.48,11.5 -114.01,34.4 -28.53,22.9 -42.8,53.1 -42.8,90.4 0,37.3 13.6,67.3 40.81,90 27.19,22.7 70.4,34 129.59,34 h 121.61 v 15.2 c 0,33.1 -9.6,58.4 -28.81,76 -19.2,17.6 -47.47,26.4 -84.8,26.4 -25.07,0 -49.6,-4.1 -73.6,-12.4 -23.99,-8.3 -44.27,-19.3 -60.8,-33.2 l -31.99,57.6 c 21.86,17.6 47.99,31.1 78.39,40.4 30.41,9.3 62.67,14 96.81,14 58.66,0 103.6,-14.4 134.8,-43.2"
         style="fill:#5652cc;fill-opacity:1;fill-rule:nonzero;stroke:none"
         id="path18" /><path
         d="m 9085.31,1121.4 c 21.86,12.5 38.92,30.1 51.19,52.8 12.27,22.7 18.41,48.7 18.41,78 0,29.3 -6.14,55.3 -18.41,78 -12.27,22.7 -29.33,40.1 -51.19,52.4 -21.88,12.3 -46.14,18.4 -72.81,18.4 -27.19,0 -51.6,-6.1 -73.19,-18.4 -21.6,-12.3 -38.68,-29.7 -51.2,-52.4 -12.54,-22.7 -18.8,-48.7 -18.8,-78 0,-29.3 6.26,-55.3 18.8,-78 12.52,-22.7 29.6,-40.3 51.2,-52.8 21.59,-12.5 46,-18.8 73.19,-18.8 26.67,0 50.93,6.3 72.81,18.8 z m 145.59,512.4 v -593.6 h -73.6 v 67.2 c -17.07,-23.5 -38.67,-41.3 -64.8,-53.6 -26.13,-12.3 -54.93,-18.4 -86.4,-18.4 -41.07,0 -77.87,9.1 -110.4,27.2 -32.53,18.1 -57.99,43.6 -76.39,76.4 -18.41,32.8 -27.61,70.5 -27.61,113.2 0,42.7 9.2,80.3 27.61,112.8 18.4,32.5 43.86,57.9 76.39,76 32.53,18.1 69.33,27.2 110.4,27.2 30.4,0 58.41,-5.7 84.01,-17.2 25.59,-11.5 46.92,-28.4 64,-50.8 v 233.6 h 76.79"
         style="fill:#5652cc;fill-opacity:1;fill-rule:nonzero;stroke:none"
         id="path20" /><path
         d="m 9376.5,1464.2 h 76.8 v -424 h -76.8 z m 1.2,96 c -9.87,9.6 -14.8,21.3 -14.8,35.2 0,13.9 4.93,25.7 14.8,35.6 9.86,9.9 22.27,14.8 37.2,14.8 14.92,0 27.33,-4.7 37.2,-14 9.86,-9.3 14.8,-20.9 14.8,-34.8 0,-14.4 -4.94,-26.5 -14.8,-36.4 -9.87,-9.9 -22.28,-14.8 -37.2,-14.8 -14.93,0 -27.34,4.8 -37.2,14.4"
         style="fill:#5652cc;fill-opacity:1;fill-rule:nonzero;stroke:none"
         id="path22" /><path
         d="m 9854.49,1121.4 c 21.6,12.5 38.53,30.1 50.8,52.8 12.27,22.7 18.41,48.7 18.41,78 0,29.3 -6.14,55.3 -18.41,78 -12.27,22.7 -29.2,40.1 -50.8,52.4 -21.59,12.3 -45.99,18.4 -73.2,18.4 -27.19,0 -51.6,-6.1 -73.19,-18.4 -21.61,-12.3 -38.68,-29.7 -51.21,-52.4 -12.53,-22.7 -18.79,-48.7 -18.79,-78 0,-29.3 6.26,-55.3 18.79,-78 12.53,-22.7 29.6,-40.3 51.21,-52.8 21.59,-12.5 46,-18.8 73.19,-18.8 27.21,0 51.61,6.3 73.2,18.8 z m -186.79,-58 c -33.6,18.7 -59.88,44.4 -78.8,77.2 -18.94,32.8 -28.41,70 -28.41,111.6 0,41.6 9.47,78.8 28.41,111.6 18.92,32.8 45.2,58.4 78.8,76.8 33.59,18.4 71.46,27.6 113.59,27.6 42.13,0 79.87,-9.2 113.2,-27.6 33.33,-18.4 59.47,-44 78.41,-76.8 18.92,-32.8 28.4,-70 28.4,-111.6 0,-41.6 -9.48,-78.8 -28.4,-111.6 -18.94,-32.8 -45.08,-58.5 -78.41,-77.2 -33.33,-18.7 -71.07,-28 -113.2,-28 -42.13,0 -80,9.3 -113.59,28"
         style="fill:#5652cc;fill-opacity:1;fill-rule:nonzero;stroke:none"
         id="path24" /><path
         d="m 10107.7,1633.8 h 76.8 v -593.6 h -76.8 v 593.6"
         style="fill:#5652cc;fill-opacity:1;fill-rule:nonzero;stroke:none"
         id="path26" /><path
         d="m 10585.7,1121.4 c 21.6,12.5 38.5,30.1 50.8,52.8 12.3,22.7 18.4,48.7 18.4,78 0,29.3 -6.1,55.3 -18.4,78 -12.3,22.7 -29.2,40.1 -50.8,52.4 -21.6,12.3 -46,18.4 -73.2,18.4 -27.2,0 -51.6,-6.1 -73.2,-18.4 -21.6,-12.3 -38.7,-29.7 -51.2,-52.4 -12.6,-22.7 -18.8,-48.7 -18.8,-78 0,-29.3 6.2,-55.3 18.8,-78 12.5,-22.7 29.6,-40.3 51.2,-52.8 21.6,-12.5 46,-18.8 73.2,-18.8 27.2,0 51.6,6.3 73.2,18.8 z m -186.8,-58 c -33.6,18.7 -59.9,44.4 -78.8,77.2 -18.9,32.8 -28.4,70 -28.4,111.6 0,41.6 9.5,78.8 28.4,111.6 18.9,32.8 45.2,58.4 78.8,76.8 33.6,18.4 71.5,27.6 113.6,27.6 42.1,0 79.8,-9.2 113.2,-27.6 33.3,-18.4 59.4,-44 78.4,-76.8 18.9,-32.8 28.4,-70 28.4,-111.6 0,-41.6 -9.5,-78.8 -28.4,-111.6 -19,-32.8 -45.1,-58.5 -78.4,-77.2 -33.4,-18.7 -71.1,-28 -113.2,-28 -42.1,0 -80,9.3 -113.6,28"
         style="fill:#5652cc;fill-opacity:1;fill-rule:nonzero;stroke:none"
         id="path28" /><path
         d="m 11098.5,1142.6 c 22.1,11.7 39.4,28.1 52,49.2 12.5,21.1 18.8,44.9 18.8,71.6 0,41.1 -13.6,74.3 -40.8,99.6 -27.2,25.3 -62.2,38 -104.8,38 -43.2,0 -78.4,-12.7 -105.6,-38 -27.2,-25.3 -40.8,-58.5 -40.8,-99.6 0,-26.7 6.2,-50.5 18.8,-71.6 12.5,-21.1 29.8,-37.5 52,-49.2 22.1,-11.7 47.3,-17.6 75.6,-17.6 27.7,0 52.6,5.9 74.8,17.6 z m 146,321.6 v -366.4 c 0,-74.1 -18.4,-128.898 -55.2,-164.398 -36.8,-35.5 -91.8,-53.203 -164.8,-53.203 -40,0 -78.2,5.5 -114.4,16.403 -36.3,10.898 -65.6,26.597 -88,46.8 l 36.8,59.198 c 19.7,-16.998 44.1,-30.498 73.2,-40.401 29,-9.797 59,-14.797 90,-14.797 49.6,0 86.2,11.801 110,35.2 23.7,23.498 35.6,59.198 35.6,107.198 v 33.6 c -18.2,-21.9 -40.4,-38.3 -66.8,-49.2 -26.4,-10.9 -55.1,-16.4 -86,-16.4 -40.6,0 -77.2,8.7 -110,26 -32.8,17.3 -58.6,41.6 -77.2,72.8 -18.7,31.2 -28,66.8 -28,106.8 0,40 9.3,75.6 28,106.8 18.6,31.2 44.4,55.3 77.2,72.4 32.8,17.1 69.4,25.6 110,25.6 32,0 61.7,-5.9 89.2,-17.6 27.4,-11.7 50,-29.1 67.6,-52 v 65.6 h 72.8"
         style="fill:#5652cc;fill-opacity:1;fill-rule:nonzero;stroke:none"
         id="path30" /><path
         d="m 11390.9,1464.2 h 76.8 v -424 h -76.8 z m 1.2,96 c -9.9,9.6 -14.8,21.3 -14.8,35.2 0,13.9 4.9,25.7 14.8,35.6 9.8,9.9 22.2,14.8 37.2,14.8 14.9,0 27.3,-4.7 37.2,-14 9.8,-9.3 14.8,-20.9 14.8,-34.8 0,-14.4 -5,-26.5 -14.8,-36.4 -9.9,-9.9 -22.3,-14.8 -37.2,-14.8 -15,0 -27.4,4.8 -37.2,14.4"
         style="fill:#5652cc;fill-opacity:1;fill-rule:nonzero;stroke:none"
         id="path32" /><path
         d="m 11635.7,1049.4 c -32,9.3 -57.1,21.2 -75.2,35.6 l 32,60.8 c 18.6,-13.3 41.3,-24 68,-32 26.6,-8 53.6,-12 80.8,-12 67.2,0 100.8,19.2 100.8,57.6 0,12.8 -4.6,22.9 -13.6,30.4 -9.1,7.5 -20.4,12.9 -34,16.4 -13.6,3.5 -33,7.3 -58,11.6 -34.2,5.3 -62,11.5 -83.6,18.4 -21.6,6.9 -40.2,18.7 -55.6,35.2 -15.5,16.5 -23.2,39.7 -23.2,69.6 0,38.4 16,69.2 48,92.4 32,23.2 74.9,34.8 128.8,34.8 28.2,0 56.5,-3.5 84.8,-10.4 28.2,-6.9 51.4,-16.3 69.6,-28 l -32.8,-60.8 c -34.7,22.4 -75.5,33.6 -122.4,33.6 -32.6,0 -57.4,-5.3 -74.4,-16 -17.1,-10.7 -25.6,-24.8 -25.6,-42.4 0,-13.9 4.8,-24.8 14.4,-32.8 9.6,-8 21.4,-13.9 35.6,-17.6 14.1,-3.7 34,-8 59.6,-12.8 34.1,-5.9 61.7,-12.1 82.8,-18.8 21,-6.7 39,-18 54,-34 14.9,-16 22.4,-38.4 22.4,-67.2 0,-38.4 -16.4,-68.9 -49.2,-91.6 -32.8,-22.7 -77.5,-34 -134,-34 -34.7,0 -68,4.7 -100,14"
         style="fill:#5652cc;fill-opacity:1;fill-rule:nonzero;stroke:none"
         id="path34" /><path
         d="m 12253.3,1065 c -11.2,-9.6 -25.1,-16.9 -41.6,-22 -16.6,-5.1 -33.7,-7.6 -51.3,-7.6 -42.6,0 -75.7,11.5 -99.1,34.4 -23.5,22.9 -35.2,55.7 -35.2,98.4 V 1401 h -72 v 63.2 h 72 v 92.8 h 76.8 v -92.8 h 121.6 V 1401 h -121.6 v -229.6 c 0,-22.9 5.7,-40.5 17.1,-52.8 11.5,-12.3 27.9,-18.4 49.2,-18.4 23.5,0 43.5,6.7 60,20 l 24.1,-55.2"
         style="fill:#5652cc;fill-opacity:1;fill-rule:nonzero;stroke:none"
         id="path36" /><path
         d="m 7051.82,3490.1 c 0,105.6 1203.73,191.1 2688.61,191.1 1484.87,0 2688.57,-85.5 2688.57,-191.1 0,-105.6 -1203.7,-191.1 -2688.57,-191.1 -1484.88,0 -2688.61,85.5 -2688.61,191.1"
         style="fill:#e9edf7;fill-opacity:1;fill-rule:nonzero;stroke:none"
         id="path38" /><path
         d="m 2882.09,5834.9 c -11.01,0 -21.09,7.4 -24.11,18.5 -3.61,13.3 4.27,27 17.59,30.7 839.98,227.6 2400.74,400 2866.04,375 13.79,-0.7 24.37,-12.5 23.63,-26.3 -0.74,-13.8 -12.6,-24.6 -26.3,-23.6 -462.29,24.8 -2014.31,-146.9 -2850.29,-373.4 -2.19,-0.6 -4.39,-0.9 -6.56,-0.9"
         style="fill:#e9edf7;fill-opacity:1;fill-rule:nonzero;stroke:none"
         id="path40" /><path
         d="m 2850.61,5916.2 c -41.78,38.1 -106.5,35 -144.53,-6.8 -38.03,-41.8 -35,-106.5 6.8,-144.5 41.81,-38 106.53,-35 144.55,6.8 38.02,41.8 35,106.5 -6.82,144.5 z"
         style="fill:none;stroke:#e9edf7;stroke-width:50;stroke-linecap:round;stroke-linejoin:round;stroke-miterlimit:4;stroke-dasharray:none;stroke-opacity:1"
         id="path42" /><path
         d="m 3566.31,6496.2 c -40.46,36.9 -103.16,33.9 -139.96,-6.6 -36.85,-40.5 -33.88,-103.1 6.59,-140 40.49,-36.8 103.15,-33.8 139.98,6.6 36.83,40.5 33.87,103.2 -6.61,140 z"
         style="fill:none;stroke:#e9edf7;stroke-width:50;stroke-linecap:round;stroke-linejoin:round;stroke-miterlimit:4;stroke-dasharray:none;stroke-opacity:1"
         id="path44" /><path
         d="m 4337.67,5828.4 c -45.95,41.8 -117.08,38.4 -158.87,-7.5 -41.79,-45.9 -38.45,-117.1 7.5,-158.8 45.94,-41.8 117.05,-38.5 158.85,7.5 41.79,45.9 38.44,117 -7.48,158.8 z"
         style="fill:none;stroke:#e9edf7;stroke-width:50;stroke-linecap:round;stroke-linejoin:round;stroke-miterlimit:4;stroke-dasharray:none;stroke-opacity:1"
         id="path46" /><path
         d="m 4704.64,6603.9 c -53.15,48.4 -135.49,44.5 -183.85,-8.7 -48.38,-53.1 -44.5,-135.5 8.66,-183.8 53.14,-48.4 135.49,-44.5 183.86,8.6 48.35,53.2 44.49,135.5 -8.67,183.9 z"
         style="fill:none;stroke:#e9edf7;stroke-width:50;stroke-linecap:round;stroke-linejoin:round;stroke-miterlimit:4;stroke-dasharray:none;stroke-opacity:1"
         id="path48" /><path
         d="m 3088.64,5659.3 c -34.67,31.5 -88.42,29 -119.98,-5.7 -31.57,-34.7 -29.03,-88.4 5.66,-120 34.7,-31.5 88.42,-29 119.99,5.7 31.56,34.7 29.04,88.4 -5.67,120 z"
         style="fill:none;stroke:#e9edf7;stroke-width:50;stroke-linecap:round;stroke-linejoin:round;stroke-miterlimit:4;stroke-dasharray:none;stroke-opacity:1"
         id="path50" /><path
         d="m 3079.14,5641.7 c -5.51,0 -11.04,1.8 -15.66,5.5 -10.76,8.7 -12.46,24.4 -3.81,35.2 7.57,9.3 17.56,22.2 29.33,37.4 87.84,113 187.09,236.4 253.14,270.8 12.24,6.3 27.35,1.5 33.71,-10.7 6.36,-12.3 1.59,-27.4 -10.66,-33.7 -61.87,-32.1 -179.96,-184.1 -236.71,-257.1 -11.98,-15.4 -22.15,-28.5 -29.85,-38.1 -4.94,-6.1 -12.18,-9.3 -19.49,-9.3"
         style="fill:#e9edf7;fill-opacity:1;fill-rule:nonzero;stroke:none"
         id="path52" /><path
         d="m 4004.01,6055 c -2.84,0 -5.73,0.5 -8.55,1.5 -177.12,64.5 -381.67,228.8 -439.36,281.2 -10.22,9.3 -10.96,25.2 -1.68,35.4 9.29,10.2 25.1,10.9 35.32,1.6 45.44,-41.3 250.35,-208.4 422.82,-271.2 12.97,-4.7 19.66,-19.1 14.94,-32.1 -3.7,-10.1 -13.28,-16.4 -23.49,-16.4"
         style="fill:#e9edf7;fill-opacity:1;fill-rule:nonzero;stroke:none"
         id="path54" /><path
         d="m 4337.67,5803.4 c -2.78,0 -5.6,0.5 -8.37,1.5 -13.01,4.6 -19.81,18.9 -15.19,31.9 23.09,65 198.46,297 290.03,345.5 12.19,6.5 27.32,1.9 33.79,-10.3 6.47,-12.2 1.82,-27.4 -10.38,-33.8 -79.64,-42.2 -246.13,-261.3 -266.32,-318.2 -3.64,-10.2 -13.28,-16.6 -23.56,-16.6"
         style="fill:#e9edf7;fill-opacity:1;fill-rule:nonzero;stroke:none"
         id="path56" /><path
         d="m 5171.63,6189 c -2.66,0 -5.37,0.4 -8.03,1.3 -71.5,24.2 -389.32,214.1 -439.94,245.6 -11.73,7.3 -15.33,22.7 -8.03,34.4 7.29,11.7 22.7,15.3 34.42,8 64.23,-39.9 367.43,-219.6 429.6,-240.7 13.07,-4.4 20.09,-18.6 15.65,-31.7 -3.53,-10.4 -13.25,-16.9 -23.67,-16.9"
         style="fill:#e9edf7;fill-opacity:1;fill-rule:nonzero;stroke:none"
         id="path58" /><path
         d="m 11324.3,15419.8 c -125.7,0 -305.4,61.5 -527.6,301.9 -9.3,10.1 -8.7,25.9 1.4,35.3 10.2,9.4 26,8.8 35.3,-1.4 249.1,-269.4 435.3,-301.3 547.7,-280.8 113.9,20.9 184,101.6 211.7,170.1 4.5,11.3 16.4,17.6 28.3,15.1 100.2,-21.1 204.5,10.8 286.1,87.5 116.6,109.6 165.9,293.3 135.1,503.8 -2,13.7 7.5,26.4 21.2,28.4 13.6,2 26.3,-7.5 28.3,-21.1 33.2,-227 -21.6,-426.5 -150.4,-547.6 -86.9,-81.6 -201.7,-119.5 -310.6,-103.5 -37.2,-76.2 -117.1,-159.2 -240.7,-181.8 -19.9,-3.7 -41.9,-5.9 -65.8,-5.9"
         style="fill:#e9edf7;fill-opacity:1;fill-rule:nonzero;stroke:none"
         id="path60" /><path
         d="m 11379.4,15550.4 c -28.4,0 -57.4,3.1 -86.5,9.3 -185.4,39.5 -348.8,191.7 -448.5,417.8 -5.5,12.6 0.2,27.4 12.8,32.9 12.7,5.6 27.4,-0.1 33,-12.8 93.1,-211.1 243.6,-352.9 413.1,-389 108.2,-23.1 209.2,1.7 284.2,69.7 4,3.6 9.1,5.8 14.5,6.3 85.8,8.1 176.8,69.9 237.4,161.3 94.6,142.6 109,340.5 40.7,557.2 -4.2,13.1 3.1,27.2 16.3,31.3 13.2,4.2 27.2,-3.1 31.4,-16.3 72.9,-231.3 56.3,-444.4 -46.8,-599.9 -66.8,-100.7 -168.1,-170 -266.1,-182.4 -64.7,-55.9 -147.3,-85.4 -235.5,-85.4"
         style="fill:#e9edf7;fill-opacity:1;fill-rule:nonzero;stroke:none"
         id="path62" /><path
         d="m 11472.6,15642.1 c -54.4,0 -107.8,17.7 -159.7,53.1 -198.1,135 -309.7,489.6 -301.8,597.1 1,13.7 13.3,24.1 26.8,23.1 13.8,-1.1 24.1,-13.1 23.1,-26.8 -6.4,-85.7 97.9,-427.9 280.1,-552.1 75.2,-51.3 154.1,-57.7 234.4,-19 3,1.4 6.2,2.2 9.5,2.4 43,2.4 86.4,36.1 122.1,95 90.2,148.9 124,444.3 8.7,698.6 -5.7,12.6 -0.1,27.4 12.5,33.1 12.6,5.7 27.4,0.1 33.1,-12.5 122.3,-269.9 85.3,-585.3 -11.6,-745.1 -43.9,-72.4 -98.1,-113.3 -157,-118.7 -40.5,-18.8 -80.6,-28.2 -120.2,-28.2"
         style="fill:#e9edf7;fill-opacity:1;fill-rule:nonzero;stroke:none"
         id="path64" /><path
         d="m 11586.3,15669.9 c -4.5,0 -9,1.3 -13,3.7 -164.4,100.2 -354.2,397.2 -375.5,519.5 -2.4,13.7 6.7,26.6 20.3,29 13.6,2.3 26.6,-6.8 28.9,-20.4 18,-102.8 184.7,-365 328.5,-469.5 78.3,186.4 127.1,488 111.3,570.6 -2.6,13.5 6.3,26.6 19.8,29.2 13.6,2.6 26.7,-6.3 29.3,-19.8 9.3,-48.8 0.5,-156.1 -23.1,-279.9 -25.7,-134.7 -63.5,-261.5 -103.8,-347.9 -3,-6.5 -8.6,-11.3 -15.4,-13.4 -2.4,-0.7 -4.8,-1.1 -7.3,-1.1"
         style="fill:#e9edf7;fill-opacity:1;fill-rule:nonzero;stroke:none"
         id="path66" /><path
         d="m 11586.4,15669.9 c -1.1,0 -2.3,0.1 -3.4,0.3 -13.7,1.8 -23.3,14.4 -21.4,28.1 25.7,189.4 54.8,404 -29.9,716.7 -3.6,13.3 4.3,27.1 17.6,30.7 13.3,3.5 27.1,-4.3 30.7,-17.6 87.3,-322.5 57.5,-542.4 31.1,-736.5 -1.7,-12.6 -12.4,-21.7 -24.7,-21.7"
         style="fill:#e9edf7;fill-opacity:1;fill-rule:nonzero;stroke:none"
         id="path68" /><path
         d="m 11592.9,15718.5 c -7.5,0 -14.9,3.3 -19.8,9.7 -118,151.7 -248.7,609.1 -221.9,776.9 2.2,13.6 15,22.9 28.7,20.8 13.6,-2.2 22.9,-15 20.7,-28.7 -24.2,-151.7 104.5,-600.3 212,-738.3 8.5,-10.9 6.5,-26.6 -4.4,-35.1 -4.6,-3.6 -10,-5.3 -15.3,-5.3"
         style="fill:#e9edf7;fill-opacity:1;fill-rule:nonzero;stroke:none"
         id="path70" /><path
         d="m 12256.1,14178 c -8.2,0 -16.3,4.1 -21.1,11.6 -228.1,356.2 -616.9,1286.1 -643.7,1441.7 -2.3,13.6 6.8,26.6 20.4,28.9 13.7,2.3 26.5,-6.8 28.9,-20.4 26.3,-153 410.7,-1070.6 636.5,-1423.3 7.5,-11.6 4.1,-27.1 -7.5,-34.5 -4.2,-2.7 -8.9,-4 -13.5,-4"
         style="fill:#e9edf7;fill-opacity:1;fill-rule:nonzero;stroke:none"
         id="path72" /><path
         d="M 8270.86,5206 C 7727,5897.9 6912.26,5778.4 6194.14,5031.1 6809.77,4504.8 7836.74,4347.6 8270.86,5206"
         style="fill:#362e94;fill-opacity:1;fill-rule:nonzero;stroke:none"
         id="path74" /><path
         d="m 7717.27,7320.4 c 358.72,360.9 232.71,820.1 -246.73,1179.5 C 7211.89,8109.5 7194,7509.1 7717.27,7320.4"
         style="fill:#6b67e9;fill-opacity:1;fill-rule:nonzero;stroke:none"
         id="path76" /><path
         d="m 13786.8,14628.7 c 308.9,612.4 949.8,646.6 1613.6,186.4 -389.3,-496.9 -1149.6,-775.3 -1613.6,-186.4"
         style="fill:#ced3f8;fill-opacity:1;fill-rule:nonzero;stroke:none"
         id="path78" /><path
         d="m 13700.6,14641.4 c 999.1,237.2 1271.4,1158.7 831.7,2285.2 -858.9,-394.3 -1528.3,-1405 -831.7,-2285.2"
         style="fill:#dde2f8;fill-opacity:1;fill-rule:nonzero;stroke:none"
         id="path80" /><path
         d="m 13700.6,14616.4 c -2.4,0 -4.8,0.3 -7.2,1 -13.2,4 -20.7,17.9 -16.7,31.2 56.7,188.8 178.2,495.7 306.9,820.7 155.5,392.7 331.7,837.8 436.2,1180 4,13.2 18,20.6 31.2,16.6 13.2,-4 20.6,-18 16.6,-31.2 -105,-344.1 -281.7,-790.2 -437.5,-1183.8 -128.3,-324 -249.4,-629.9 -305.5,-816.7 -3.3,-10.8 -13.2,-17.8 -24,-17.8"
         style="fill:#ced3f8;fill-opacity:1;fill-rule:nonzero;stroke:none"
         id="path82" /><path
         d="m 16070.7,8075.7 c 318.5,-38.9 457.7,230 526.6,396.2 -98.3,4.5 -497.3,-0.6 -526.6,-396.2"
         style="fill:#dde2f8;fill-opacity:1;fill-rule:nonzero;stroke:none"
         id="path84" /><path
         d="m 14194.5,5939.7 c -3.7,0 -7.3,0.8 -10.8,2.4 -12.5,6 -17.7,21 -11.7,33.4 158.5,329.6 410.6,704 709.7,1054.1 354.9,415.6 774.4,795.2 1213,1097.9 11.3,7.9 26.9,5 34.7,-6.4 7.9,-11.3 5,-26.9 -6.3,-34.7 -435.1,-300.3 -851.2,-676.9 -1203.4,-1089.2 -296.4,-347 -545.9,-717.6 -702.7,-1043.4 -4.3,-8.9 -13.2,-14.1 -22.5,-14.1"
         style="fill:#dde2f8;fill-opacity:1;fill-rule:nonzero;stroke:none"
         id="path86" /><path
         d="m 14283.6,6421.2 c 35.3,647 -421.2,781.8 -765.4,898.4 4.2,-198.8 -35.7,-892.8 765.4,-898.4"
         style="fill:#dde2f8;fill-opacity:1;fill-rule:nonzero;stroke:none"
         id="path88" /><path
         d="m 14617.2,6945 c 156.6,496 -171.4,692 -415.8,851.4 -36.4,-155.4 -206,-687 415.8,-851.4"
         style="fill:#dde2f8;fill-opacity:1;fill-rule:nonzero;stroke:none"
         id="path90" /><path
         d="m 15086.2,7431.9 c 230.7,383 -4,612.7 -176.1,795 -61.7,-122.4 -310.3,-532.5 176.1,-795"
         style="fill:#dde2f8;fill-opacity:1;fill-rule:nonzero;stroke:none"
         id="path92" /><path
         d="m 15576.5,7864.5 c 204,188.6 103.6,366.4 32.5,505 -58,-62.4 -277.4,-264.1 -32.5,-505"
         style="fill:#dde2f8;fill-opacity:1;fill-rule:nonzero;stroke:none"
         id="path94" /><path
         d="m 14595.4,6290.3 c 459,340.9 780.4,70.4 1033.7,-126.2 -148.4,-93.7 -639.7,-460.7 -1033.7,126.2"
         style="fill:#dde2f8;fill-opacity:1;fill-rule:nonzero;stroke:none"
         id="path96" /><path
         d="m 14968.8,6853.1 c 345.4,352.1 655.5,164.8 897.8,31.3 -113.8,-99.7 -483.2,-478.5 -897.8,-31.3"
         style="fill:#dde2f8;fill-opacity:1;fill-rule:nonzero;stroke:none"
         id="path98" /><path
         d="m 15508.2,7449.1 c 293.3,165.9 461.6,-15.8 595.4,-149.2 -93.6,-43.9 -407.7,-222.8 -595.4,149.2"
         style="fill:#dde2f8;fill-opacity:1;fill-rule:nonzero;stroke:none"
         id="path100" /><path
         d="m 15899.9,7825 c 150.3,126.4 266.1,40.3 357,-21.8 -49,-35.2 -209.7,-171.2 -357,21.8"
         style="fill:#dde2f8;fill-opacity:1;fill-rule:nonzero;stroke:none"
         id="path102" /><path
         d="m 8531,5626.3 c -216.5,-396.5 -906.61,-696.6 -1319.19,-532.2 -412.56,164.4 -366.98,583.8 -615.15,610.7 -248.16,27 -662.44,-307.5 -952.65,-129.7 -515.68,316.1 147.95,1060.1 -208.13,1331.9 -356.05,271.8 -699.53,-166.2 -1072.16,35.7 -372.65,201.9 210.69,784.2 -113.24,1187 -323.9,402.8 -855.43,1383.2 -252.8,1622.1 476.36,188.9 455.32,-460.2 668.43,-519.4 243.11,-67.6 365.83,230.5 617.39,97.3 355.49,-188.1 213.76,-701.7 530.99,-807.9 317.25,-106.2 538.17,276.4 814.69,-67.5 342.37,-425.7 -355.35,-932.9 300.35,-1225.3 655.71,-292.3 659.28,632.8 1089.56,509.4 469.58,-134.7 136.65,-951.5 469,-965.6 452.25,-19.2 378.74,-531.3 42.91,-1146.5"
         style="fill:#fcba06;fill-opacity:1;fill-rule:nonzero;stroke:none"
         id="path104" /><path
         d="m 8464.69,5500.9 c -2.9,0 -5.85,0.5 -8.73,1.6 -31.57,11.8 -84.14,16.6 -145.02,22.2 -142.42,13 -337.47,30.8 -442.8,161.8 -54.6,67.9 -99.39,145 -142.72,219.6 -71.01,122.2 -144.43,248.6 -264.06,341 -246.33,190.3 -495.56,209.1 -715.45,225.7 -166.24,12.6 -323.26,24.4 -447.42,111.2 -114.31,79.8 -120.77,178.3 -127.6,282.6 -6.53,99.7 -13.29,202.8 -106.78,319.1 -89.81,111.7 -159.32,128.5 -239.79,148 -89.87,21.9 -191.71,46.6 -324.89,212.2 -113.89,141.6 -119.87,247.8 -125.66,350.5 -5.67,100.7 -11.03,195.7 -111.06,332.9 -193.59,265.4 -422.82,335.8 -590.2,387.1 -106.93,32.8 -191.39,58.8 -237.11,122 -104.48,144.5 -36.03,265.5 -33.07,270.6 6.97,11.9 22.28,15.9 34.2,8.9 11.92,-6.9 15.95,-22.2 8.99,-34.2 -2.19,-3.8 -54.37,-98.7 30.39,-216 35.91,-49.6 113.3,-73.4 211.27,-103.5 174.09,-53.4 412.52,-126.6 615.93,-405.4 108.73,-149.1 114.76,-256.1 120.59,-359.6 5.58,-99.2 10.86,-192.8 114.69,-322 122.53,-152.4 211.59,-174 297.71,-194.9 81.86,-19.8 166.51,-40.4 266.97,-165.3 103.39,-128.6 111,-244.7 117.71,-347.1 6.55,-99.9 11.72,-178.9 106.35,-244.9 112.93,-79 256.41,-89.8 422.54,-102.3 226.9,-17.1 484.07,-36.5 742.26,-236 127.37,-98.4 203.29,-229.1 276.72,-355.5 44.34,-76.3 86.23,-148.4 138.46,-213.3 92.04,-114.5 267.45,-130.6 408.39,-143.5 64.44,-5.8 120.1,-10.9 157.92,-25 12.94,-4.9 19.52,-19.3 14.7,-32.2 -3.75,-10.1 -13.29,-16.3 -23.43,-16.3"
         style="fill:#ed9f00;fill-opacity:1;fill-rule:nonzero;stroke:none"
         id="path106" /><path
         d="m 12358.4,4644.8 c -329.5,216.4 -1141.4,1811.6 -503.1,2120.8 605,293 796.9,-954.8 832.9,-1116.8 126.1,612.3 291.1,1206.6 694.9,1098.5 403.7,-108 0,-972.5 0,-972.5 367.7,468.2 1284,1188.9 1701.2,972.6 417.1,-216.3 -847.3,-992.2 -847.3,-992.2 574.6,326 2291.6,764.8 576.8,-63.6 785.1,253.9 2316.2,378.5 614.2,-151.2 1024.4,89 1544.4,-50.5 1562.4,-194.6 18,-144.1 -282.5,-347.9 -1606.3,-381.4 653.8,-108.1 981.8,-261 813.3,-319.6 -267.5,0 -3839,0 -3839,0"
         style="fill:#fcba06;fill-opacity:1;fill-rule:nonzero;stroke:none"
         id="path108" /><path
         d="m 14552.2,5414.7 c 0,29.4 23.8,53.2 53.1,53.2 29.4,0 53.2,-23.8 53.2,-53.2 0,-29.3 -23.8,-53.1 -53.2,-53.1 -29.3,0 -53.1,23.8 -53.1,53.1"
         style="fill:#ffffff;fill-opacity:1;fill-rule:nonzero;stroke:none"
         id="path110" /><path
         d="m 12726.5,5101.7 c 0,45.3 36.6,81.9 81.8,81.9 45.2,0 81.9,-36.6 81.9,-81.9 0,-45.1 -36.7,-81.8 -81.9,-81.8 -45.2,0 -81.8,36.7 -81.8,81.8"
         style="fill:#ffffff;fill-opacity:1;fill-rule:nonzero;stroke:none"
         id="path112" /><path
         d="m 13792.1,5708.1 c 0,38.6 31.3,69.8 69.9,69.8 38.6,0 69.8,-31.2 69.8,-69.8 0,-38.6 -31.2,-69.9 -69.8,-69.9 -38.6,0 -69.9,31.3 -69.9,69.9"
         style="fill:#ffffff;fill-opacity:1;fill-rule:nonzero;stroke:none"
         id="path114" /><path
         d="m 15261.7,10629.2 -3388.6,-897.5 -1153.3,4354.1 3388.7,897.5 1153.2,-4354.1"
         style="fill:#362e94;fill-opacity:1;fill-rule:nonzero;stroke:none"
         id="path116" /><path
         d="m 11617.6,13925.5 -478.6,-126.8 -17.7,67 478.6,126.8 17.7,-67"
         style="fill:#9f9cff;fill-opacity:1;fill-rule:nonzero;stroke:none"
         id="path118" /><path
         d="m 11492.1,13761.3 -320.7,-84.9 -17.7,67 320.7,84.9 17.7,-67"
         style="fill:#9f9cff;fill-opacity:1;fill-rule:nonzero;stroke:none"
         id="path120" /><path
         d="m 12867.2,10302.8 c -69.2,-9.4 -250.3,-96.2 -260.2,9 -9.9,105.3 85.8,253.5 105.6,393.6 19.8,140.2 21.6,665.1 47.9,995.8 26.4,330.6 150.8,1082.9 146.5,1189.7 -4.3,106.7 -82.3,243.3 -46.2,287.4 40.8,49.8 184.9,123.1 257.7,68.3 61.8,-46.6 93.9,-286.8 45.2,-419.6 -48.8,-132.8 -235.8,-787.8 -244.6,-1239.7 -8.7,-451.9 47,-820.7 91.2,-964.9 44.2,-144.1 129.9,-196.3 54.2,-261.3 -75.7,-65 -104.7,-45.8 -197.3,-58.3"
         style="fill:#6b67e9;fill-opacity:1;fill-rule:nonzero;stroke:none"
         id="path122" /><path
         d="m 13475.6,13290.2 c -51.2,-10.5 -122.1,-14.3 -197.1,19.7 -56,25.5 -136.4,-41.8 -102.5,-94.7 41.9,-70.2 64,-266.6 15.6,-398.5 -20.5,-55.7 -64.7,-201.2 -109.9,-384.4 3.8,-81.9 4.3,-161.3 -3,-212.3 -21.2,-146.4 51.8,-693.6 61.9,-810.8 10.1,-117.2 -28.3,-502.8 -65.9,-708.6 -14.3,-78.2 -2.3,-153.5 14.6,-185.8 23.6,-45.2 46.1,-88.5 28.8,-131.4 46.1,-14 90.9,-41.7 137.9,-46.5 73.2,-7.6 25.9,210.6 -1.4,302.3 -27.3,91.7 16.2,199.1 66.9,596.2 50.7,397 21.6,485 -35.8,904.6 -49.9,364.6 13,515 34.5,650.5 29.3,184.6 116.1,240.6 199.9,331.7 83.7,91.1 6.6,178.6 -44.5,168"
         style="fill:#6b67e9;fill-opacity:1;fill-rule:nonzero;stroke:none"
         id="path124" /><path
         d="m 13601.6,13549.9 c 20.5,-77.5 -32.4,-154.1 -91.2,-156.1 -21.1,-31 -16.9,-80.9 -59.1,-80 -42.1,0.8 -143.2,-2.3 -200.5,44.1 -57.2,46.4 -79.8,-11.2 -139.1,-41.4 -45.3,-23.1 -185.9,-58.7 -221.2,-1.4 -35.1,-3.3 -133.9,30.4 -100.7,120.1 33.2,89.7 97.8,343.6 80.1,500.8 -17.6,157.2 -54.9,411.1 -83,460.6 93.2,21.6 282.9,74.9 282.9,74.9 11.4,-65.9 160.4,-559.6 301.5,-708.4 57.3,-60.4 202.5,-108.2 230.3,-213.2"
         style="fill:#6b67e9;fill-opacity:1;fill-rule:nonzero;stroke:none"
         id="path126" /><path
         d="m 13510.4,13393.8 c 58.8,2 111.7,78.6 91.2,156.1 -27.8,105 -173,152.8 -230.3,213.2 -141.1,148.8 -290.1,642.5 -301.5,708.4 0,0 -15.2,-4.3 -38.5,-10.7 36.3,-324.1 306.2,-801.2 382.6,-848.4 78.3,-48.3 81.8,-120.4 37,-168.7 -44.9,-48.3 -178.5,-22.4 -272.5,-1.2 -93.9,21.2 -188.2,-130.5 -287.9,-127.4 35.3,-57.3 175.9,-21.7 221.2,1.4 59.3,30.2 81.9,87.8 139.1,41.4 57.3,-46.4 158.4,-43.3 200.5,-44.1 42.2,-0.9 38,49 59.1,80"
         style="fill:#5652cc;fill-opacity:1;fill-rule:nonzero;stroke:none"
         id="path128" /><path
         d="m 13163.7,12827 c 48.7,132.8 16.6,373 -45.2,419.6 -40.7,30.6 -103.5,21.2 -158.2,-1.6 l -3.9,-5.2 c 47.5,-8.7 123.3,-19.3 139,-107.4 15.6,-88 20.8,-324.3 -68.2,-663.1 -89,-338.9 -239.2,-1202.7 -104.5,-1759.5 64,-264.6 6.5,-256.7 -31.8,-286 -38.4,-29.4 -139.2,-98.3 -160.7,-104 -10.6,-2.8 -33.9,-31.3 -54.7,-59.6 61.5,0.6 148.5,36.7 191.7,42.6 92.6,12.5 121.6,-6.7 197.3,58.3 75.7,65 -10,117.2 -54.2,261.3 -44.2,144.2 -99.9,513 -91.2,964.9 8.8,451.9 195.8,1106.9 244.6,1239.7"
         style="fill:#5652cc;fill-opacity:1;fill-rule:nonzero;stroke:none"
         id="path130" /><path
         d="m 13470.8,13208.8 c -5.3,-37.9 -165.1,-193.5 -177.7,-300.6 -12.7,-107.1 -120.5,-512.1 -71.3,-727 49.3,-214.9 101.3,-546.8 72,-726.2 -29.3,-179.3 -106.4,-719.6 -97.1,-788.9 9.4,-69.2 33.8,-327 -0.1,-313.2 19.6,-7.6 39.3,-14 59.4,-16 73.2,-7.6 25.9,210.6 -1.4,302.3 -27.3,91.7 16.2,199.1 66.9,596.2 50.7,397 21.6,485 -35.8,904.6 -49.9,364.6 13,515 34.5,650.5 29.3,184.6 116.1,240.6 199.9,331.7 83.7,91.1 6.6,178.6 -44.5,168 -44.2,-9.1 -103.2,-13.1 -166.8,8 l -0.1,-0.1 c 35.1,-23.1 167.5,-51.4 162.1,-89.3"
         style="fill:#5652cc;fill-opacity:1;fill-rule:nonzero;stroke:none"
         id="path132" /><path
         d="m 16325.7,9208.1 -2337.5,873.8 1122.8,3003.5 2337.5,-873.8 -1122.8,-3003.5"
         style="fill:#423eaf;fill-opacity:1;fill-rule:nonzero;stroke:none"
         id="path134" /><path
         d="m 15566.4,12622.7 -330.1,123.4 17.3,46.2 330.1,-123.4 -17.3,-46.2"
         style="fill:#9f9cff;fill-opacity:1;fill-rule:nonzero;stroke:none"
         id="path136" /><path
         d="m 15425.9,12579 -221.2,82.7 17.3,46.2 221.2,-82.7 -17.3,-46.2"
         style="fill:#9f9cff;fill-opacity:1;fill-rule:nonzero;stroke:none"
         id="path138" /><path
         d="m 16339,12135.8 c 118,-50.7 242.5,-195.9 196.2,-293.6 -46.4,-97.7 -101.6,-140.7 -95.1,-182.3 6.5,-41.6 -55.5,-30.6 -92.6,-11.9 -37,18.8 -149.7,31.5 -173.1,47.6 -23.3,16.1 -159.1,32.7 -174.3,64 -15.2,31.3 -176,59.6 -178.2,99.6 -12.3,38.9 -122.7,116.9 -84.4,153.9 38.4,37.1 144.3,39.1 207.9,71.6 63.6,32.5 160.9,116.1 222.1,103 61.2,-13.1 135.3,-36.3 171.5,-51.9"
         style="fill:#807dfb;fill-opacity:1;fill-rule:nonzero;stroke:none"
         id="path140" /><path
         d="m 15722.6,11914.3 c 28,-47.5 21.6,-99.5 -36.4,-97.4 -57.9,2.1 -158.5,-22.3 -175.2,-58.5 -16.8,-36.1 -2.8,-103.4 -51.5,-85.2 -48.6,18.2 -123.8,52.8 -112.8,91.1 11.1,38.3 63.7,74.2 125.9,109.6 62.2,35.5 121.5,150.4 177.3,116.5 55.8,-33.9 62.6,-59 72.7,-76.1"
         style="fill:#807dfb;fill-opacity:1;fill-rule:nonzero;stroke:none"
         id="path142" /><path
         d="m 15339.9,11689.4 c 23.1,-31.5 31.8,-65.7 0.9,-76.2 -30.8,-10.5 -96.8,-29.9 -119.6,-58.1 -22.8,-28.2 -38.3,-95.8 -94.6,-69.9 -56.4,26 -85.7,78.6 -36.6,111.6 49,33.1 109.6,83.8 127.8,106.4 18.3,22.6 75.1,50.3 122.1,-13.8"
         style="fill:#807dfb;fill-opacity:1;fill-rule:nonzero;stroke:none"
         id="path144" /><path
         d="m 15054.9,11490 c 25.6,-19 48.9,-91.7 -10.9,-101.2 -59.8,-9.4 -121.8,-37.7 -143.4,-47.5 -21.6,-9.9 -74.3,10.6 -28.6,52.3 45.8,41.6 116.5,145.7 182.9,96.4"
         style="fill:#807dfb;fill-opacity:1;fill-rule:nonzero;stroke:none"
         id="path146" /><path
         d="m 15812.9,11819.8 c 35.2,-13.1 144.5,-32.5 162.1,-81.5 17.6,-49 -97,-89.3 -126.8,-138.5 -29.9,-49.3 -104.1,-116.9 -159.4,-234.2 -17.6,-37.4 -21.9,-84.8 -56.7,-125.6 -34.9,-40.9 -66.8,-60.7 -113.2,-40.9 -46.5,19.8 -75.1,69.7 -49.6,104.2 25.6,34.5 72.5,48.7 118.9,107.3 46.3,58.5 155.1,218.5 166.6,255.9 11.5,37.3 9.5,171.5 58.1,153.3"
         style="fill:#807dfb;fill-opacity:1;fill-rule:nonzero;stroke:none"
         id="path148" /><path
         d="m 15427.8,11192.3 c 30,-0.1 202.4,-18.5 182.2,-68.1 -20.1,-49.6 -90.5,-64.7 -154.2,-134.9 -52.5,-57.7 -88.9,-97.3 -94.2,-145.9 -5.3,-48.6 -7,-136.1 -81.2,-116.5 -74.3,19.6 -134.3,73.1 -95.7,123.9 38.6,50.8 82,56.6 115.8,100.3 71.7,92.3 89.7,241.4 127.3,241.2"
         style="fill:#807dfb;fill-opacity:1;fill-rule:nonzero;stroke:none"
         id="path150" /><path
         d="m 15210,10719.8 c 40.9,-25.8 37.1,-57.9 21,-81.3 -16.1,-23.4 -50.6,-76.5 -62.4,-101.5 -11.8,-25 -14.7,-85.1 -67.8,-50.5 -53.2,34.6 -63.2,60.3 -29.4,111.3 33.8,51 47.4,114.5 62,123.7 14.6,9.2 29.1,28.3 76.6,-1.7"
         style="fill:#807dfb;fill-opacity:1;fill-rule:nonzero;stroke:none"
         id="path152" /><path
         d="m 15043.7,10473.6 c 35.8,-26 51.9,-73.3 14.6,-100.9 -37.4,-27.7 -119.9,-104.5 -143.8,-83.3 -23.9,21.1 2.8,66.5 20.8,108 17.9,41.5 59.6,111.5 108.4,76.2"
         style="fill:#807dfb;fill-opacity:1;fill-rule:nonzero;stroke:none"
         id="path154" /><path
         d="m 16019.1,11705.7 c 36.6,-8.2 147.5,-12.3 171.7,-58.4 24.2,-46.1 -83.8,-101.9 -106.5,-154.8 -22.8,-52.8 -87,-130.1 -125.5,-253.8 -12.3,-39.5 -10,-87.1 -38.9,-132.3 -28.9,-45.2 -57.8,-69.3 -106.5,-56.1 -48.7,13.2 -84,58.6 -63.5,96.3 20.6,37.7 65.1,58.3 103,122.7 37.8,64.4 123.5,237.9 129.7,276.5 6.2,38.5 -14.3,171.2 36.5,159.9"
         style="fill:#807dfb;fill-opacity:1;fill-rule:nonzero;stroke:none"
         id="path156" /><path
         d="m 15724.2,11031 c 29.7,4.1 202.9,9.6 189.8,-42.3 -13.2,-51.9 -66.3,-55.8 -120.2,-148.5 -39.2,-67.5 -56,-100.1 -77.8,-159.6 -16.8,-45.9 -13.6,-208.7 -89.8,-199.6 -76.3,9.2 -143.1,53.9 -111.9,109.5 31.3,55.7 78.9,131.3 106.4,179.2 58.2,101.3 66.1,256.3 103.5,261.3"
         style="fill:#807dfb;fill-opacity:1;fill-rule:nonzero;stroke:none"
         id="path158" /><path
         d="m 15557.4,10464.3 c 44.1,-20 44.8,-52.3 32.1,-77.6 -12.7,-25.4 -39.7,-82.8 -47.9,-109.2 -8.2,-26.3 -2.8,-86.3 -60.2,-59.4 -57.4,26.9 -70.8,51.1 -44.4,106.3 26.4,55.1 31.1,119.9 44.3,131 13.2,11.2 24.9,32 76.1,8.9"
         style="fill:#807dfb;fill-opacity:1;fill-rule:nonzero;stroke:none"
         id="path160" /><path
         d="m 15420.7,10198.2 c 41.3,-15.9 68.9,-57.5 39.9,-93.8 -29.1,-36.3 -89.3,-131.6 -117.8,-117.3 -28.5,14.4 -14.2,65.1 -7.5,109.8 6.8,44.7 29.2,123.1 85.4,101.3"
         style="fill:#807dfb;fill-opacity:1;fill-rule:nonzero;stroke:none"
         id="path162" /><path
         d="m 16227.2,11628.8 c 37.5,-1.7 71.8,22.2 103.6,-19.1 31.7,-41.3 -26.9,-121.9 -40.2,-177.9 -13.3,-56 -35.3,-85.3 -71.3,-220.7 -10.6,-39.9 -0.1,-110.5 -20.7,-160 -20.7,-49.5 -33.8,-63.2 -84.1,-58.6 -50.3,4.7 -70.6,25.8 -56.8,66.4 13.7,40.7 17,43.3 43.3,113.2 26.2,70 80.8,255.6 80.3,294.6 -0.5,39.1 -6,164.5 45.9,162.1"
         style="fill:#807dfb;fill-opacity:1;fill-rule:nonzero;stroke:none"
         id="path164" /><path
         d="m 16392.3,11561.8 c 32.5,-1.5 62.2,19.2 89.6,-16.5 27.5,-35.8 -23.2,-105.6 -34.7,-154.1 -11.6,-48.4 -30.6,-73.8 -61.8,-191 -9.1,-34.6 0,-95.6 -17.9,-138.5 -17.9,-42.9 -29.2,-54.8 -72.8,-50.8 -43.5,4.1 -61.1,22.4 -49.2,57.6 12,35.2 14.8,37.4 37.5,98 22.7,60.5 70,221.2 69.6,255 -0.4,33.8 -5.2,142.4 39.7,140.3"
         style="fill:#807dfb;fill-opacity:1;fill-rule:nonzero;stroke:none"
         id="path166" /><path
         d="m 15859.1,10443.5 c 40.2,-27 35.5,-59 18.8,-81.9 -16.7,-22.9 -52.8,-75 -65.3,-99.7 -12.4,-24.6 -17,-84.6 -69.2,-48.6 -52.1,36.1 -61.4,62.1 -26.2,112.1 35.2,50.1 50.6,113.1 65.4,121.9 14.9,8.8 29.9,27.5 76.5,-3.8"
         style="fill:#807dfb;fill-opacity:1;fill-rule:nonzero;stroke:none"
         id="path168" /><path
         d="m 16196.4,10491.3 c 44.7,-18.4 33,-45.6 21.2,-71.4 -11.7,-25.8 -38.7,-83.3 -46,-110 -7.2,-26.6 -20.5,-70.1 -62.1,-51.6 -57.9,25.9 -52.9,32.7 -28.5,88.8 24.4,56.1 26.8,121 39.6,132.6 12.8,11.6 23.8,32.9 75.8,11.6"
         style="fill:#807dfb;fill-opacity:1;fill-rule:nonzero;stroke:none"
         id="path170" /><path
         d="m 15714.4,10185.1 c 39.2,-20.6 44.9,-53.7 11.9,-86.4 -32.9,-32.7 -103.6,-120.6 -130.3,-103.1 -26.7,17.5 7.6,95.1 29.5,134.7 28.2,51.1 35.5,82.8 88.9,54.8"
         style="fill:#807dfb;fill-opacity:1;fill-rule:nonzero;stroke:none"
         id="path172" /><path
         d="m 16085.2,10221.1 c 43.7,-6.7 40.2,-33.4 17,-73.7 -23.2,-40.3 -56.8,-124 -87.2,-114.1 -30.4,9.8 -18,69.8 -7.3,113.8 13.7,56.8 36.1,80.3 77.5,74"
         style="fill:#807dfb;fill-opacity:1;fill-rule:nonzero;stroke:none"
         id="path174" /><path
         d="m 16051.2,10937.2 c 25.8,-9.6 75.2,-21.5 66.1,-45.9 -9.1,-24.3 -111.3,-175.4 -121.6,-213.9 -10.3,-38.6 -15.1,-129.8 -28.8,-149.2 -13.8,-19.3 -55.7,-57.4 -92.2,-41.3 -36.4,16 -66.1,89.1 -40.8,115.5 25.4,26.4 63.1,66.2 93.2,138.1 30.2,72 23.1,170.9 38.3,189.7 15.2,18.8 60.1,16.7 85.8,7"
         style="fill:#807dfb;fill-opacity:1;fill-rule:nonzero;stroke:none"
         id="path176" /><path
         d="m 16284.2,10944.3 c 24.2,-4 69.4,-6 65.6,-28.8 -3.8,-22.8 -67.2,-172.4 -69.6,-207.8 -2.5,-35.5 9,-116.1 0.3,-135.3 -8.7,-19.3 -38.8,-59.7 -73.4,-52 -34.6,7.8 -73.1,66.6 -55.5,94 17.6,27.5 43.8,68.7 57.8,136.7 14,68.1 -9.1,153.3 1,172.3 10,19.1 49.6,24.9 73.8,20.9"
         style="fill:#807dfb;fill-opacity:1;fill-rule:nonzero;stroke:none"
         id="path178" /><path
         d="m 16174.4,11695.6 c 23.4,-16.1 136.1,-28.8 173.1,-47.6 37.1,-18.7 99.1,-29.7 92.6,11.9 -6.5,41.6 48.7,84.6 95.1,182.3 20,42.3 8,93.4 -21.5,141.9 -41.6,-104.1 -141.1,-243.9 -157.4,-268.2 -21.2,-31.6 -264.4,42.4 -283,68.2 -18.6,25.8 -169,61.3 -176.1,82.7 -7,21.5 -108.9,38.8 -124.6,56.4 21.5,-24.3 44.1,-47.6 49.3,-64 2.2,-40 163,-68.3 178.2,-99.6 15.2,-31.4 151,-47.9 174.3,-64"
         style="fill:#6b67e9;fill-opacity:1;fill-rule:nonzero;stroke:none"
         id="path180" /><path
         d="M 7731.11,9619.6 5314.36,7715.5 2867.73,10820.8 5284.48,12724.9 7731.11,9619.6"
         style="fill:#362e94;fill-opacity:1;fill-rule:nonzero;stroke:none"
         id="path182" /><path
         d="m 3646.79,11004.7 -341.35,-269 -37.66,47.8 341.36,269 37.65,-47.8"
         style="fill:#9f9cff;fill-opacity:1;fill-rule:nonzero;stroke:none"
         id="path184" /><path
         d="m 3602.9,10828.7 -228.7,-180.2 -37.65,47.8 228.7,180.1 37.65,-47.7"
         style="fill:#9f9cff;fill-opacity:1;fill-rule:nonzero;stroke:none"
         id="path186" /><path
         d="m 5755.69,9621.2 c -28.32,25.3 -63.31,-32 -67.35,-39.6 -4.04,-7.7 17.62,-56.7 25.04,-79.4 8.28,-25.4 45.06,-84.9 62.8,-83.3 17.74,1.7 84.13,59.6 85.7,67.5 1.57,8 -95.02,124.8 -106.19,134.8"
         style="fill:#6b67e9;fill-opacity:1;fill-rule:nonzero;stroke:none"
         id="path188" /><path
         d="m 5632.85,9548.7 c -10.2,-5.1 -21.75,-17.9 -21.72,-25.5 0.04,-7.7 48.63,-113.9 60.05,-130.3 11.42,-16.4 28.95,-13 47.68,-6.5 18.74,6.6 23.03,28.6 23.44,35.7 0.42,7 -37.13,56.6 -41.75,63.4 -4.63,6.8 -26,53.6 -30.24,62.1 -7.08,14.1 -27.25,6.1 -37.46,1.1"
         style="fill:#6b67e9;fill-opacity:1;fill-rule:nonzero;stroke:none"
         id="path190" /><path
         d="m 5515.74,9459.1 c 18.58,-33.5 71.09,-94.2 85.83,-107.2 14.74,-13 38.91,-15.3 50.92,-9.2 11.99,6.1 24.27,30.4 13.38,44.2 -10.89,13.8 -78.56,75.5 -106.14,110.5 -9.75,5.2 -50.91,-25.5 -43.99,-38.3"
         style="fill:#6b67e9;fill-opacity:1;fill-rule:nonzero;stroke:none"
         id="path192" /><path
         d="m 5449.77,9413.8 c -3.31,-1.5 -7.5,-16.6 -13.43,-19.5 -5.93,-2.9 -20.09,-1 -26.09,-4.8 -5.99,-3.7 -11.02,-14.4 -14.15,-16.1 -3.13,-1.8 -16.29,-10.6 -17.31,-12.2 6.15,-11.6 41.85,-60.7 61.69,-66.9 19.85,-6.2 30.92,3.4 30.92,3.4 5.63,-6.2 22.88,-15.8 33.7,-2 14.27,-3 30.09,-6.9 37.81,8.9 24.85,-8.8 50.48,13.6 54.59,23.6 3.64,9.6 -79.25,108.3 -94.18,110 -11.03,1.3 -50.24,-22.9 -53.55,-24.4"
         style="fill:#6b67e9;fill-opacity:1;fill-rule:nonzero;stroke:none"
         id="path194" /><path
         d="m 6139.02,10310.4 c -12.02,-8 -45.55,-47.8 -50.83,-92.3 72.67,-84.6 180.71,-314.6 176.36,-358.4 -23.38,-13.9 8.22,-46.5 -3.83,-79.7 11.2,-19.2 -8.66,-28.2 -15.97,-46.6 4.21,-21.7 -28.3,-38.8 -37.3,-45 -9,-6.3 -7.66,-28.9 -16.53,-38 -8.86,-9 -18.38,-1.8 -21.96,-10.1 4.18,-16.5 -14.5,-36.7 -22.76,-42.8 -8.28,-6.1 -24.34,-2.3 -30.47,-6.3 -6.14,-4 -2.49,-42.9 -14.39,-53.9 -11.89,-11.1 -26.32,-7.7 -44.26,-15.8 -17.92,-8.2 -5.24,-34 -47,-51.6 -4.54,-1.9 -9.73,-23.2 -26.54,-34.7 -12.61,-8.7 -30.4,2.3 -54.34,-21.3 -11.7,-9.2 -15.2,-32.3 -26.59,-42.5 -15.19,-13.6 -37.05,-13.7 -39.97,-17.7 -26.88,-36.5 -49.05,-18.1 -61.17,-33.6 -12.12,-15.5 -12.17,-30.4 -25.7,-39.3 -13.54,-9 -50.49,3.6 -55.8,-1.4 -5.31,-5 -5.39,-21.5 -13.25,-28.2 -7.86,-6.6 -31.86,-20 -46.96,-12.1 -8.91,-1.5 -4.07,-12.5 -14.98,-19 -10.92,-6.4 -32.54,0.1 -40.72,-7.2 -8.18,-7.2 -32.42,-34.8 -52.53,-25.7 -19.64,-2.8 -32.96,-20 -48.99,-4.6 -35.19,-3.9 -59.41,34.4 -78.42,14.9 -43.57,6 -241.92,164.9 -307.21,255.4 -44.48,5.2 -91.08,-18 -101.65,-27.9 -10.58,-9.8 -49.06,-10.2 -59.41,-34.1 -12.63,-29.1 129.59,-59.2 145.81,-75.5 16.21,-16.4 146.11,-178.4 182.72,-207.8 36.61,-29.4 129.98,-150.8 166.25,-151.3 36.27,-0.5 46.7,-39.4 99.78,-35.6 53.07,3.7 164.91,-35.9 187.15,-38.5 22.24,-2.7 115.28,1.2 176.12,22.2 60.84,21.1 115.05,2 152.33,21.8 80.33,42.8 133.49,117.8 146.43,128.3 31,35.8 105.3,49.5 165.66,117.6 28,31.6 22.16,88.8 56.87,143 34.7,54.3 60.21,143.8 62.85,166.1 2.64,22.2 -9.68,140.2 6.36,190.9 16.05,50.8 -19.26,70 -11.3,105.4 7.95,35.4 -88.18,154.5 -108.2,197 -20.03,42.5 -147.16,206.7 -159.26,226.3 -12.09,19.6 -8.08,164.9 -39.33,159.4 -25.6,-4.5 -35.04,-41.8 -47.07,-49.8"
         style="fill:#6b67e9;fill-opacity:1;fill-rule:nonzero;stroke:none"
         id="path196" /><path
         d="m 5886.44,10608.8 c 39.65,-88.3 2.87,-149.9 -16.13,-191.9 -18.99,-42 -66.31,-52.3 -97.59,-56 -31.29,-3.8 -193.57,-74.9 -239.83,-81.5 -46.27,-6.5 -84.77,28.9 -102.83,53.5 -18.06,24.6 -91.57,65.2 -113.85,173.1 -22.29,107.9 113.87,185.3 141.91,210.4 28.04,25.1 231.33,62.8 282.21,55.1 50.88,-7.7 113.05,-89.2 146.11,-162.7 z m -208.52,-715.4 c -58.78,-44.8 -97.43,-18.5 -107.06,-8.2 -9.63,10.3 -27.59,35 -40.65,27.7 -13.06,-7.3 8.56,-30.6 15.62,-41.5 7.07,-10.8 43.71,-61.1 -24.09,-111.5 -67.8,-50.5 -126.87,15 -172.22,76.4 -45.35,61.3 -57.88,230.3 -47.39,255.4 10.5,25 -11.72,49 -17.42,59.1 -5.7,10 -28.18,42.3 4.45,68.1 31.71,24.9 59.13,-5.7 70.02,-19.5 10.89,-13.9 21.06,-26.8 96.51,-31.5 75.45,-4.8 207.57,-102.4 228.63,-129.1 21.05,-26.7 52.38,-100.6 -6.4,-145.4 z m -490.7,113.7 c -17.23,-43.4 -124.33,-184.6 -135.29,-214.1 -10.95,-29.6 -31.99,-73.2 -77.31,-81.8 -45.32,-8.6 -113.81,-30 -190.33,29.2 -63.77,49.4 -128.4,128.9 -123.99,180.1 4.41,51.3 88.64,240.1 119.58,261.5 30.94,21.4 138.06,135.7 237.75,88.8 99.69,-46.9 122.02,-127.9 141.72,-151.2 19.69,-23.3 45.09,-69.1 27.87,-112.5 z m 799.78,668.1 c -22.92,159.8 -86.66,315.8 -193.7,451.7 -324.38,411.7 -921.08,482.5 -1332.79,158.1 -411.7,-324.4 -482.49,-921.1 -158.12,-1332.8 107.05,-135.9 243.84,-234.3 393.76,-294 l -0.46,-0.1 c 29.57,-45.6 40.08,-221 65.8,-236.6 25.72,-15.6 112.45,4.2 155.28,-0.9 42.84,-5.1 80.76,18.8 141.86,55 61.1,36.2 210.83,16.8 223.9,0.2 13.07,-16.6 35.3,-82.7 56.8,-98.6 21.5,-16 25.19,-13 43.16,1.1 17.97,14.2 112.54,79 112.54,79 2.19,11.4 47.96,55.7 66.35,52.3 18.39,-3.5 45.66,4.6 43.27,16.1 -2.39,11.6 30.82,38.1 57.49,38 4.61,1.7 5.86,10.7 17.61,28.3 28.95,43.3 69.83,56.9 69.83,56.9 0,0 22.71,36.6 71.64,54.6 19.82,7.3 28.93,6.4 31.68,10.4 6.13,26 39.64,52.1 50.32,47.1 10.69,-5.1 24.89,19.6 25.85,38.2 0.96,18.7 54.72,52.9 66.35,52.3 0,0 85.13,76.8 103.1,91 17.96,14.1 21.65,17 11.21,41.7 -10.45,24.6 -69.54,61.7 -82.61,78.3 -13.07,16.5 3.08,166.7 52.56,217.6 49.48,50.9 81.59,82.2 86.68,125.1 5.08,42.8 44.61,122.5 35.48,151.1 -9.13,28.7 -177.23,80 -214.65,119.4 l -0.19,-0.5"
         style="fill:#6b67e9;fill-opacity:1;fill-rule:nonzero;stroke:none"
         id="path198" /><path
         d="m 5820.01,9418.7 c 2.1,-14 33.2,-26.5 40.53,-38.6 7.33,-12.2 28.84,-5.3 32.63,-2.3 3.79,3 16.76,27.7 13.53,37.5 -3.22,9.8 -24.96,36.9 -37.32,38.4 -8.73,1 -51.46,-20.9 -49.37,-35"
         style="fill:#6b67e9;fill-opacity:1;fill-rule:nonzero;stroke:none"
         id="path200" /><path
         d="m 5765.12,9410.2 c -13.25,-2.6 -14.66,-12.7 -17.83,-21.3 -3.17,-8.7 26.9,-34.3 41.59,-40.1 14.68,-5.9 34.61,-17 45.78,-9.3 11.17,7.7 -16.68,46.3 -26.48,58.7 -9.8,12.4 -22.84,15.9 -43.06,12"
         style="fill:#6b67e9;fill-opacity:1;fill-rule:nonzero;stroke:none"
         id="path202" /><path
         d="m 5727.36,9300.3 c 8.07,-8.8 29.09,-21.3 39.32,-14.4 10.23,7 11.86,26.2 12.74,33.6 0.88,7.4 -36.19,48.8 -46.01,58.4 -9.81,9.6 -39.91,-3.3 -50.97,-12 -12.44,-9.8 36.86,-56.8 44.92,-65.6"
         style="fill:#6b67e9;fill-opacity:1;fill-rule:nonzero;stroke:none"
         id="path204" /><path
         d="m 5641.37,9270.1 c 17.42,-22.1 32.35,-28.3 40.63,-27.3 8.27,0.9 20.46,19.4 24.21,24.6 3.75,5.2 -32.88,50.3 -40.17,57.4 -7.29,7.2 -43.01,7.1 -49.94,1.6 -11.72,-9.2 7.84,-34.2 25.27,-56.3"
         style="fill:#6b67e9;fill-opacity:1;fill-rule:nonzero;stroke:none"
         id="path206" /><path
         d="m 5501.19,9195 c 15.41,-15.3 33.72,-1.6 38.39,2.4 4.67,4 29.88,-6.6 36.89,3 7.01,9.6 27.7,25.9 30.59,23.7 2.89,-2.3 29.58,-4.9 35.29,9.2 5.72,14.1 -34.26,63.4 -49.07,62.3 -13.95,-1 -36.37,-5 -46.68,-11.8 -10.31,-6.8 -27.13,4.5 -37.5,-3.6 -10.36,-8.2 -40.99,2.4 -48.03,-6.5 -7.05,-8.9 24.71,-63.4 40.12,-78.7"
         style="fill:#6b67e9;fill-opacity:1;fill-rule:nonzero;stroke:none"
         id="path208" /><path
         d="m 5829.33,9692.7 c -8.4,-2.2 -72.25,-22.8 -54.28,-56.2 7.07,-13.2 98.08,-134.5 106.18,-134.8 8.11,-0.4 79.95,50.6 85.7,67.5 5.77,16.9 -43.5,66.6 -66.25,80.5 -20.39,12.6 -62.95,45.1 -71.35,43"
         style="fill:#6b67e9;fill-opacity:1;fill-rule:nonzero;stroke:none"
         id="path210" /><path
         d="m 5874.29,9738.9 c -7.3,-8.7 -19.8,-26.5 -7.69,-36.7 7.23,-6.1 47.72,-37.8 53.26,-43.9 5.55,-6.1 44.95,-54.2 51.9,-55.4 6.96,-1.3 29.4,-2.3 40.15,14.4 10.75,16.7 18.11,33 4.84,47.9 -13.26,14.9 -105.16,87 -112.57,88.9 -7.41,1.8 -22.58,-6.4 -29.89,-15.2"
         style="fill:#6b67e9;fill-opacity:1;fill-rule:nonzero;stroke:none"
         id="path212" /><path
         d="m 5941.24,9798 c 27.58,-35 71.75,-115.2 82.64,-129 10.89,-13.9 37.32,-7.6 46.06,2.6 8.73,10.3 12.2,34.3 2.99,51.7 -9.21,17.4 -55.89,82.6 -84.14,108.5 -10.83,9.7 -50.34,-23.1 -47.55,-33.8"
         style="fill:#6b67e9;fill-opacity:1;fill-rule:nonzero;stroke:none"
         id="path214" /><path
         d="m 6100.15,9928.1 c -2.4,-2.7 -13.96,-5.1 -19.03,-10 -5.06,-5 -6.56,-19.2 -10.77,-24.2 -4.21,-5.1 -19.83,-5.7 -22.05,-8.5 -2.22,-2.9 -34.99,-35.4 -36.3,-46.4 -1.78,-14.9 74.79,-118.6 84.97,-117.3 10.64,1.6 38.45,21.3 35.71,47.5 17.16,3.9 17.01,20.2 17.49,34.7 15.9,7.3 10.63,26.3 5.92,33.3 0,0 11.97,8.5 10.56,29.2 -1.42,20.8 -40.81,67 -50.64,75.7 -1.74,-0.7 -13.46,-11.4 -15.86,-14"
         style="fill:#6b67e9;fill-opacity:1;fill-rule:nonzero;stroke:none"
         id="path216" /><path
         d="m 5911.33,9486.7 c -1.46,-12.3 19.79,-39.8 28.54,-45.2 8.76,-5.5 35.88,1.4 39.68,4.3 3.79,3 15.49,22.3 5.4,32.3 -10.1,10 -14.94,43.1 -28.09,48.4 -13.15,5.4 -44.49,-31 -45.53,-39.8"
         style="fill:#6b67e9;fill-opacity:1;fill-rule:nonzero;stroke:none"
         id="path218" /><path
         d="m 5977.99,9577.9 c -8.55,-18.7 -8.21,-32.2 1.59,-44.7 9.81,-12.4 40.77,-48.5 50.85,-39.4 10.08,9 3.97,31 1.73,46.6 -2.25,15.7 -20.08,50.9 -29.25,49.9 -9.17,-1.1 -19.32,-0.1 -24.92,-12.4"
         style="fill:#6b67e9;fill-opacity:1;fill-rule:nonzero;stroke:none"
         id="path220" /><path
         d="m 6016.79,9601.2 c 7.05,-11.8 38.59,-57.5 46,-58.4 7.42,-0.9 26.51,-3.8 35.64,4.5 9.12,8.4 1.92,31.7 -4.76,41.6 -6.69,9.9 -40.78,68.8 -53.22,59 -11.06,-8.7 -30.72,-34.9 -23.66,-46.7"
         style="fill:#6b67e9;fill-opacity:1;fill-rule:nonzero;stroke:none"
         id="path222" /><path
         d="m 6094.34,9703.2 c -6.93,-5.5 -15.41,-40.2 -10.18,-48.9 5.23,-8.8 40.48,-54.9 46.41,-52.5 5.92,2.4 26.82,9.9 29.65,17.8 2.83,7.8 0.34,23.7 -17.09,45.9 -17.42,22.1 -37.07,46.9 -48.79,37.7"
         style="fill:#6b67e9;fill-opacity:1;fill-rule:nonzero;stroke:none"
         id="path224" /><path
         d="m 6164.31,9796.4 c -10.37,-8.2 -3.23,-27.2 -12.26,-35.6 -9.05,-8.4 -18.16,-29.3 -22.44,-42.6 -4.54,-14.2 34.05,-64.6 49.07,-62.3 15.02,2.3 18.74,28.8 17.23,32.1 -1.5,3.4 19.27,19.7 30.23,24.2 10.97,4.6 6.49,31.6 11.49,35.2 5.01,3.6 22.64,18.2 11.38,36.8 -11.27,18.5 -56.85,62.2 -67.16,57.4 -10.31,-4.8 -7.18,-37 -17.54,-45.2"
         style="fill:#6b67e9;fill-opacity:1;fill-rule:nonzero;stroke:none"
         id="path226" /><path
         d="m 6153.43,10330.1 c 7.11,-42.3 17.29,-105.8 19.66,-135.6 3.73,-46.9 257.36,-393.4 250.79,-486.9 -3.24,-46 -122.85,-312.7 -163.46,-351.6 -40.61,-38.8 -79.95,-155.7 -138.77,-193.8 -58.82,-38 -140.48,-135.5 -232.12,-182.8 -91.64,-47.3 -259.56,-69.3 -303.48,-60.8 v 0 c 56.74,-7.9 133.5,-34.3 151.51,-36.4 22.24,-2.7 115.28,1.2 176.12,22.2 60.84,21.1 115.05,2 152.33,21.8 80.33,42.8 133.49,117.8 146.43,128.3 31,35.8 105.3,49.5 165.66,117.6 28,31.6 22.16,88.8 56.87,143 34.7,54.3 60.21,143.8 62.85,166.1 2.64,22.2 -9.68,140.2 6.36,190.9 16.05,50.8 -19.26,70 -11.3,105.4 7.95,35.4 -88.18,154.5 -108.2,197 -20.03,42.5 -147.16,206.7 -159.26,226.3 -12.09,19.6 -8.08,164.9 -39.33,159.4 -15.37,-2.7 -24.88,-17.2 -32.66,-30.1"
         style="fill:#5652cc;fill-opacity:1;fill-rule:nonzero;stroke:none"
         id="path228" /><path
         d="m 5604.65,9525.7 c -2.39,11.6 30.82,38.1 57.49,38 4.61,1.7 5.86,10.7 17.61,28.3 28.95,43.3 69.83,56.9 69.83,56.9 0,0 22.71,36.6 71.64,54.6 19.82,7.3 28.93,6.4 31.68,10.4 6.13,26 39.64,52.1 50.32,47.1 10.69,-5.1 24.89,19.6 25.85,38.2 0.96,18.7 54.72,52.9 66.35,52.3 0,0 85.13,76.8 103.1,91 17.96,14.1 21.65,17 11.21,41.7 -10.45,24.6 -69.54,61.7 -82.61,78.3 -13.07,16.5 3.08,166.7 52.56,217.6 49.48,50.9 81.59,82.2 86.68,125.1 5.08,42.8 44.61,122.5 35.48,151.1 -9.13,28.7 -177.23,80 -214.65,119.4 l -0.19,-0.5 c -22.92,159.8 -86.66,315.8 -193.7,451.7 -267.22,339.1 -719.16,446.7 -1100.33,292.8 919.33,178.2 1225.2,-733.1 1241.18,-774.5 15.98,-41.3 53.83,-152.6 60.02,-192 6.19,-39.5 35.79,-135 -4.63,-162.7 -40.42,-27.7 -24.13,-164.2 -38.32,-225.2 -14.2,-61 74.78,-73.9 84.32,-107 9.53,-33.2 -41.27,-58.2 -75.96,-59.9 -34.7,-1.6 -67.17,-74.5 -80.21,-107.2 -13.04,-32.7 -92.62,-75.4 -157.95,-75.8 -65.34,-0.5 -75.71,-73.4 -81.89,-103.1 -6.19,-29.8 -89.25,-70.4 -119.3,-55.1 -30.05,15.2 -128.21,-77.7 -134.65,-99.4 -4.92,-16.5 -40.72,-39.4 -72.68,-41.9 8.47,-16.8 17.5,-32.1 26.43,-38.7 21.5,-16 25.19,-13 43.16,1.1 17.97,14.2 112.54,79 112.54,79 2.19,11.4 47.96,55.7 66.35,52.3 18.39,-3.5 45.66,4.6 43.27,16.1"
         style="fill:#5652cc;fill-opacity:1;fill-rule:nonzero;stroke:none"
         id="path230" /><path
         d="m 5221.52,10747.6 c -74.62,-75.3 28.37,-255.6 89.17,-365.4 60.8,-109.8 164.63,-106.8 222.2,-102.8 -46.27,-6.5 -84.77,28.9 -102.83,53.5 -18.06,24.6 -91.57,65.2 -113.85,173.1 -22.29,107.9 113.87,185.3 141.91,210.4 28.04,25.1 231.33,62.8 282.21,55.1 24.4,-3.7 51.37,-24.4 76.5,-53.1 l 0.3,0.6 c 0,0 -75.23,85.9 -174.86,138.7 -99.63,52.7 -346.14,-34.7 -420.75,-110.1"
         style="fill:#5652cc;fill-opacity:1;fill-rule:nonzero;stroke:none"
         id="path232" /><path
         d="m 4679.97,9822.7 56.36,-39.4 h -0.04 c -15.19,15.6 -29.24,32.1 -41.06,48.6 -1.88,2.4 -3.88,5 -5.83,7.5 -8.98,-6.2 -12.86,-11.8 -9.43,-16.7"
         style="fill:#5652cc;fill-opacity:1;fill-rule:nonzero;stroke:none"
         id="path234" /><path
         d="m 5125.29,10236.1 c -92.49,84.8 -243.66,227.2 -334.41,172.2 -90.74,-54.9 -233.37,-274.1 -205.42,-383.3 16.51,-64.5 66.06,-136.9 103.94,-185.6 0.14,0.1 0.32,0.2 0.45,0.3 -19.52,29.1 -31.53,57.8 -29.55,80.8 4.41,51.3 88.64,240.1 119.58,261.5 30.94,21.4 138.06,135.7 237.75,88.8 99.69,-46.9 122.02,-127.9 141.72,-151.2 19.69,-23.3 45.09,-69.1 27.87,-112.5 17.38,55 30.57,144.2 -61.93,229"
         style="fill:#5652cc;fill-opacity:1;fill-rule:nonzero;stroke:none"
         id="path236" /><path
         d="m 5439.11,9156.4 c 44.55,-1 55.49,10.7 49.78,26.8 -27.96,4.9 -48.33,31.2 -64.78,14.3 -43.56,6 -241.91,164.9 -307.2,255.4 -44.48,5.2 -91.08,-18 -101.65,-27.9 -10.58,-9.8 -49.06,-10.2 -59.41,-34.1 -11.93,-27.5 114.06,-55.8 141.83,-72.6 40.42,15.5 73.6,23.7 100.7,-3.8 41.43,-42.1 173.15,-156.6 240.73,-158.1"
         style="fill:#5652cc;fill-opacity:1;fill-rule:nonzero;stroke:none"
         id="path238" /><path
         d="m 8304.96,10372.6 -3566.22,710.2 912.44,4582.2 3566.22,-710.1 -912.44,-4582.3"
         style="fill:#423eaf;fill-opacity:1;fill-rule:nonzero;stroke:none"
         id="path240" /><path
         d="m 6414.42,15106.1 -503.71,100.3 14.05,70.5 503.7,-100.3 -14.04,-70.5"
         style="fill:#9f9cff;fill-opacity:1;fill-rule:nonzero;stroke:none"
         id="path242" /><path
         d="m 6222.55,15010.4 -337.48,67.2 14.04,70.5 337.49,-67.2 -14.05,-70.5"
         style="fill:#9f9cff;fill-opacity:1;fill-rule:nonzero;stroke:none"
         id="path244" /><path
         d="m 6344.22,14771.7 c 23.12,-18.2 41.59,-37.8 81.05,-31.9 39.47,5.9 138.85,-12.2 185.92,-42.7 57.39,-37.2 239.74,-156.9 324.56,-179.7 84.82,-22.8 167.77,-84.5 209.5,-72.2 41.73,12.3 60.03,35.2 50.95,58.6 -9.09,23.4 -14.21,51.9 -42.54,52.7 -28.33,0.7 -74.03,-11.8 -112.38,2.7 -38.35,14.5 -327.24,176.1 -357.67,200.8 -30.43,24.8 -120.9,33.9 -167.37,42.2 -46.46,8.3 -83.1,6.7 -98.59,22.6 -15.51,15.8 -66.89,33.9 -83.12,16.5 -16.22,-17.4 -20.08,-46.3 9.69,-69.6"
         style="fill:#807dfb;fill-opacity:1;fill-rule:nonzero;stroke:none"
         id="path246" /><path
         d="m 7255.98,14450.7 c 23.09,-15.1 62.12,0.7 69.49,-19.8 13.37,-37.1 62.59,-63.5 30.39,-110.1 -32.19,-46.6 -5.69,-31.6 -25.06,-56.5 -19.37,-25 -59.99,-93.1 -85.07,-89.5 -25.07,3.7 -30.57,7.6 -45.87,9.6 -15.3,2.1 -41.15,-16.8 -51.67,19.2 -10.51,36 -29.88,170.4 -25.1,206.8 4.79,36.3 28.44,13.7 43.95,17.7 15.5,3.8 52.16,46.6 88.94,22.6"
         style="fill:#807dfb;fill-opacity:1;fill-rule:nonzero;stroke:none"
         id="path248" /><path
         d="m 7201.83,14168.8 c 15.34,-5.3 64.21,-2.9 71.4,-19.4 7.19,-16.5 -5.03,-86.1 -24.57,-123.4 18.44,-73.4 -8.88,-151.4 -15.65,-185.4 -6.77,-34 0.61,-51.2 6.48,-66.1 5.87,-14.9 5.73,-79.7 -8.98,-104.3 -14.71,-24.5 -9.75,-50.1 -9.94,-67.7 -0.18,-17.6 7.81,-72.3 -20.31,-102 -28.13,-29.8 -31.13,-49.8 -22.99,-73 8.14,-23.2 7.77,-34.9 -11.29,-46.8 -19.07,-12 -55.87,-36.5 -71.16,-46.8 -15.29,-10.2 -84.97,-17.4 -105.58,2.4 -20.6,19.8 -37.6,25.7 -37.99,36.1 -0.38,10.3 11.3,37 1.1,49.8 -10.21,12.8 -29.29,20.6 -24.21,36.2 5.09,15.7 24.53,29.5 27.15,52.6 2.62,23 0.82,79.4 2.06,94.8 1.25,15.5 16.51,57.6 29.53,73.7 13.02,16 3.93,56.1 5.8,79.3 1.86,23.2 17.5,67.2 39.19,87.5 21.71,20.2 18.84,60 20.52,83.3 1.68,23.2 11.28,61.5 30.15,82.3 18.87,20.8 24.86,85.4 24.66,99.2 -0.2,13.8 23.94,51.2 41.69,56.5 17.75,5.3 33.36,8.1 52.94,1.2"
         style="fill:#807dfb;fill-opacity:1;fill-rule:nonzero;stroke:none"
         id="path250" /><path
         d="m 6988.8,14611.2 c -8.91,-1.7 -86.02,28.3 -87.79,45.7 -1.78,17.3 8.89,61 38.97,70.7 30.08,9.8 86.85,25.3 108.61,52.4 21.76,27.1 51.21,36.9 62.92,33.3 11.72,-3.7 33.53,-42 45,-53.5 11.46,-11.4 34.76,-19.4 47.23,-22.5 12.47,-3.1 47.5,-40.9 38.08,-58.6 -9.43,-17.8 -17.09,-49.7 -44.8,-34.3 -27.71,15.3 -37.94,49.4 -59.85,54.5 -21.91,5 -37.16,17.2 -62.7,3.9 -25.55,-13.2 -55.38,-24.9 -65.44,-45.9 -10.05,-20.9 -8.64,-43.4 -20.23,-45.7"
         style="fill:#807dfb;fill-opacity:1;fill-rule:nonzero;stroke:none"
         id="path252" /><path
         d="m 7120.2,14247.9 c 9.26,-13.8 22.99,-48.1 13.47,-63 -9.53,-15 -8.75,-34.1 -37.97,-26.3 -29.22,7.7 -94.35,14.8 -120.6,29.9 -26.24,15 -100.13,58.2 -137.17,99 -37.06,40.7 -127.24,154.9 -113.32,224.8 13.91,69.9 12.09,80.9 22.92,75.9 10.83,-5.1 73.73,-19.5 69.21,-37.3 -4.51,-17.8 -7.66,-92.7 40.16,-143.5 47.83,-50.8 100.76,-100.5 121.9,-110.2 50.4,-23.1 131.95,-35.1 141.4,-49.3"
         style="fill:#807dfb;fill-opacity:1;fill-rule:nonzero;stroke:none"
         id="path254" /><path
         d="m 7088.7,14097.1 c -0.54,-11 -5.42,-71.6 -29.2,-87.5 -23.78,-15.8 -76.1,-12.3 -94.8,-7.6 -18.7,4.7 -96.9,16.4 -147.35,49 -50.45,32.6 -219.4,165.4 -237.25,282.9 -17.85,117.4 69.92,163.8 86.73,169.3 16.8,5.5 48.13,29.7 44.57,6.8 -3.57,-22.8 3.34,-81.8 -7.93,-84.1 -11.27,-2.4 -46.95,-14 -45.24,-34.9 1.72,-21 27.61,-73.4 48.9,-104.6 21.29,-31.1 120.55,-158.9 205.16,-177.7 84.63,-18.8 177.08,2.1 176.41,-11.6"
         style="fill:#807dfb;fill-opacity:1;fill-rule:nonzero;stroke:none"
         id="path256" /><path
         d="m 7022.33,13933.6 c 5.44,-7.2 17.05,-29.9 10.83,-46.4 -6.22,-16.4 -27.71,-55.3 -37.15,-63.3 -9.43,-7.9 -125.15,-30 -187.15,-7.9 -31.87,11.4 -60.46,31.7 -60.46,31.7 -30.22,6 -123.58,79.6 -184.65,162.5 -61.07,82.8 -103.27,186.5 -79.54,256.4 23.74,69.9 71.31,101.6 74.14,103.5 5.29,-10.3 18.47,-32.9 11.18,-46.5 -7.29,-13.7 -22.87,-52.4 -11.5,-94 11.36,-41.5 46.7,-136.9 155.04,-217.4 40.82,-31.7 74.09,-68.4 74.09,-68.4 24.05,-0.9 113.71,-24 130.08,-24 16.37,0 99.19,21.5 105.09,13.8"
         style="fill:#807dfb;fill-opacity:1;fill-rule:nonzero;stroke:none"
         id="path258" /><path
         d="m 6966.8,13751.2 c 7.72,-11.5 13.94,-39.1 7.57,-58.4 -6.37,-19.4 -18.05,-53.4 -37.12,-55.5 -19.08,-2.1 -213.4,-11.5 -281.81,34.5 -51.76,21.1 -107.38,62.3 -137.69,92.6 -30.3,30.2 -123.86,117.6 -141.91,243.9 -18.05,126.3 52.61,178.5 82,185 11.26,2.4 22.18,2.1 6.99,-27.8 -15.19,-29.8 -33.36,-65.2 -9.89,-121.6 23.46,-56.3 109.13,-158.6 138.63,-186.4 29.51,-27.7 119.44,-69.2 118.19,-78.7 6.93,-11.2 64.62,-40.4 107.68,-41.1 43.06,-0.7 139.17,25.8 147.36,13.5"
         style="fill:#807dfb;fill-opacity:1;fill-rule:nonzero;stroke:none"
         id="path260" /><path
         d="m 6932.4,13562 c 8.62,-12.9 12.87,-37.2 8.73,-51.5 -4.14,-14.2 -22.87,-52.4 -42.76,-56.9 -19.89,-4.6 -174.32,-68.4 -235.9,-47.3 -61.59,21.1 -134.53,69 -156.08,93.9 -21.55,24.9 -154.98,138.9 -187.36,232.7 -32.37,93.9 -62.37,130.6 -23.28,218.4 22.83,51.3 68.93,73.3 70.07,65.9 1.14,-7.4 -11.68,-28.5 -13.49,-51 -1.81,-22.6 -4.37,-117.6 29.41,-164.9 33.79,-47.3 79.54,-116.7 109.28,-138.3 29.73,-21.6 78.31,-72.6 94.71,-81.1 16.41,-8.5 122.15,-54.1 181.82,-46.3 59.67,7.8 157.99,36.7 164.85,26.4"
         style="fill:#807dfb;fill-opacity:1;fill-rule:nonzero;stroke:none"
         id="path262" /><path
         d="m 6923.26,13420.2 c 10.12,-11.6 21.55,-25.9 15.53,-51.3 -6.02,-25.3 10.46,-30.5 -23.82,-55.1 -34.28,-24.6 -56.07,-50.6 -92.7,-97.7 -31.69,-40.9 -92.81,-130.8 -140.63,-147.5 -47.84,-16.6 -109.13,-60.7 -178.95,-46.8 -69.81,13.9 -108.58,3.3 -119.42,14.6 -10.84,11.3 -36.06,62.2 -64.55,96.6 -28.48,34.5 -95.02,108 -119.48,149.5 -24.47,41.5 -52.99,128.4 -42.19,169.4 10.79,41.1 26.3,122.4 42.55,138.4 9.29,-1.6 20.25,-17.1 16.24,-42.2 -4,-25 8.46,-120 16.53,-138.7 8.07,-18.6 80.12,-169.1 111.42,-202.8 31.3,-33.7 59.79,-74.7 73.96,-77.6 14.17,-2.8 98.22,-14.6 113.14,-13.7 14.92,1 77.79,16 97.61,36.6 19.81,20.6 71.14,61.4 73.59,68.8 -20.21,-2.9 -169.57,-28.1 -223.6,-3.6 -54.04,24.5 -59.62,70.4 -71.11,71.9 -11.49,1.5 -89.92,76 -104.86,99.6 -14.94,23.6 -23.7,68.4 -39.67,96.7 -15.96,28.3 -43.96,87.2 -42.58,118.4 0.84,18.8 -16.55,33.4 -13.91,46.6 2.63,13.2 6.42,140.8 65.82,172.8 9.59,-14.4 35.45,-75.2 26.9,-88.5 -8.55,-13.4 -34.95,-63.7 -25.23,-97.1 9.72,-33.3 120.03,-196.1 136.54,-218.3 16.51,-22.3 42.86,-60.9 46.14,-64.2 16.75,-4.6 59.12,-18.3 76.41,-30.3 17.29,-11.9 75.11,-40.5 105.44,-29.5 30.34,11 82.94,38.5 100.32,40.3 17.37,1.8 89.25,7.7 102.72,19.4 13.46,11.8 75.07,73 81.84,65.3"
         style="fill:#807dfb;fill-opacity:1;fill-rule:nonzero;stroke:none"
         id="path264" /><path
         d="m 6565.73,13004.3 c 20.08,-4 125.92,55.5 122.73,39.4 -3.2,-16 -67.32,-126 -128.87,-154 -61.54,-28 -136.11,-62.3 -181.44,-53.2 -45.34,9 -53.27,13.5 -71.05,37.7 -17.77,24.1 -28.27,99.6 -46.49,121.5 -18.22,22 -81.52,72.8 -82.49,95.6 -0.96,22.8 7.49,70.2 10.5,85.3 3.02,15.1 -22.71,63.5 -18.2,86.1 4.52,22.7 -4.34,47.9 12.56,23.9 16.89,-24.1 61.78,-70.3 62.67,-92.6 0.89,-22.4 25.26,-97.3 44.79,-114.2 19.53,-17 43.37,-71.5 50.17,-83.4 6.82,-11.8 35.06,-57.3 63.64,-58.4 28.58,-1.1 107.49,33.5 119.06,52.2 18.5,14 25.73,17.4 42.42,14.1"
         style="fill:#807dfb;fill-opacity:1;fill-rule:nonzero;stroke:none"
         id="path266" /><path
         d="m 6684.61,14622.1 c -29.82,-9.7 -85.31,-60.3 -100.43,-50.7 -15.12,9.5 -33.29,62.9 -39.35,78.5 -6.06,15.6 -22.16,59.6 -51.02,59.4 -28.85,-0.3 -49.49,-18.5 -74.67,-13.4 -25.19,5 -71.52,9 -76.29,-8.4 -4.77,-17.4 -10.98,-55.1 3.23,-69.2 14.21,-14.1 38.14,-18.9 51.74,-22.9 -10.56,-13.6 -43.75,-75.1 -50.55,-82.9 -6.79,-7.8 -24.39,-37.1 -12.79,-57.7 11.6,-20.6 -3.47,-63.5 27.01,-81.3 30.49,-17.9 58.17,-145.3 62.03,-170.8 13.91,-0.1 35.26,-4.7 37.7,7.6 2.45,12.3 3.98,121.6 80.88,169.5 17.93,11.1 27.17,27.9 31.12,42.8 3.96,15 41.79,91 132.49,113.1 24.52,6 13,35.7 13.93,45.3 0.94,9.7 -5.64,50.6 -35.03,41.1"
         style="fill:#807dfb;fill-opacity:1;fill-rule:nonzero;stroke:none"
         id="path268" /><path
         d="m 8235,14395.2 c -28.31,-8 -52.86,-19 -87.06,1.6 -34.2,20.5 -132.92,41.9 -188.09,31.8 -67.27,-12.4 -281.58,-53.2 -368.65,-41.7 -87.08,11.4 -187.34,-13.8 -221.17,13.6 -33.83,27.3 -41.97,55.4 -24.61,73.6 17.36,18.1 33.01,42.5 59.46,32.3 26.45,-10.1 63.87,-39.2 104.85,-40.5 40.98,-1.3 369.75,37.4 407.33,48.5 37.57,11.2 124.65,-15 170.74,-25.1 46.09,-10.2 79.34,-25.7 99.73,-16.9 20.39,8.7 74.79,5.7 83.11,-16.6 8.33,-22.3 0.82,-50.4 -35.64,-60.6"
         style="fill:#807dfb;fill-opacity:1;fill-rule:nonzero;stroke:none"
         id="path270" /><path
         d="m 7578.13,14493.9 c 7.56,-5.1 90.28,-6.9 98.58,8.5 8.3,15.4 15.19,59.8 -8.88,80.3 -24.06,20.5 -70.55,56.6 -80.28,90 -9.72,33.3 -33.15,53.7 -45.37,54.8 -12.21,1.1 -47.06,-26 -62.04,-32.1 -14.98,-6.2 -39.53,-4.6 -52.25,-2.7 -12.72,1.9 -59.54,-19.6 -57.63,-39.6 1.9,-20 -3.23,-52.4 28.24,-48.8 31.48,3.5 53.99,31.1 76.15,27.4 22.17,-3.8 40.92,1.6 59.45,-20.4 18.52,-22 41.58,-44.3 42.86,-67.4 1.28,-23.2 -8.65,-43.5 1.17,-50"
         style="fill:#807dfb;fill-opacity:1;fill-rule:nonzero;stroke:none"
         id="path272" /><path
         d="m 7317.59,14208.6 c -13.84,-9.2 -39.66,-35.6 -36.59,-53.1 3.07,-17.4 -4.98,-34.8 25,-38.8 29.97,-4 92.84,-22.4 122.85,-18.6 30.01,3.8 114.79,15.4 164.63,38.9 49.84,23.5 176.88,94.4 190.8,164.3 13.91,69.9 19.84,79.4 7.9,78.9 -11.93,-0.5 -75.59,10.2 -78.22,-8 -2.63,-18.1 -28.44,-88.6 -92.06,-117.1 -63.62,-28.6 -131.57,-54.3 -154.82,-55.1 -55.41,-2.1 -135.33,18.1 -149.49,8.6"
         style="fill:#807dfb;fill-opacity:1;fill-rule:nonzero;stroke:none"
         id="path274" /><path
         d="m 7282,14058.6 c -27.18,-21.4 -15.5,-69.6 0.39,-93.3 15.89,-23.8 65.57,-40.6 84.65,-43.4 19.07,-2.8 95.76,-22 154.87,-11.2 59.1,10.8 266.04,68.8 327.52,170.4 61.48,101.7 -1.85,178.1 -15.27,189.6 -13.41,11.5 -33.09,45.9 -38.54,23.4 -5.46,-22.5 -34.43,-74.3 -24.93,-80.8 9.51,-6.4 38.05,-30.8 28.44,-49.5 -9.62,-18.7 -53.62,-57.2 -85.22,-77.9 -31.61,-20.6 -172.24,-100.6 -257.61,-85.5 -85.38,15 -163.53,66.7 -174.3,58.2"
         style="fill:#807dfb;fill-opacity:1;fill-rule:nonzero;stroke:none"
         id="path276" /><path
         d="m 7265.15,13885.2 c -7.78,-4.5 -19.92,-35.6 -20.47,-53.2 -0.55,-17.6 7.96,-45.7 13.63,-56.7 5.68,-10.9 115.69,-81.6 181.44,-84.9 33.79,-1.7 67.98,6.1 67.98,6.1 30.22,-6 144.65,26.2 232.8,79.3 88.15,53.2 166.83,132.8 171.69,206.4 4.84,73.7 -26.93,121.2 -28.82,124.1 -8.86,-7.6 -29.69,-23.4 -28.17,-38.8 1.53,-15.3 1.06,-57.1 -25.35,-91.1 -26.41,-34.1 -95.6,-108.6 -226.51,-141.5 -49.85,-13.6 -94.65,-34.8 -94.65,-34.8 -22.55,8.4 -114.22,21.4 -129.33,27.7 -15.11,6.3 -105.84,62.3 -114.24,57.4"
         style="fill:#807dfb;fill-opacity:1;fill-rule:nonzero;stroke:none"
         id="path278" /><path
         d="m 7269.02,13691 c -11.55,-7.7 -32.68,-29.8 -34.2,-50.1 -1.53,-20.3 1.05,-57.2 17.87,-66.4 16.82,-9.2 192.71,-92.4 273.53,-76.1 55.9,-0.3 123.06,16.4 162.64,32.8 39.58,16.3 159.47,61.2 224.53,171 65.07,109.7 19.79,185 -4.89,202.2 -9.45,6.6 -19.68,10.5 -17.08,-22.9 2.58,-33.4 5.83,-73 -37.44,-116.1 -43.28,-43.1 -161.59,-104.8 -199.47,-119.1 -37.88,-14.3 -136.83,-18.2 -139.34,-27.5 -10.7,-7.7 -75.16,-12.5 -115.21,3.3 -40.05,15.8 -118.67,77.1 -130.94,68.9"
         style="fill:#807dfb;fill-opacity:1;fill-rule:nonzero;stroke:none"
         id="path280" /><path
         d="m 7228.32,13503.1 c -12.91,-8.6 -36.73,-36.6 -38.35,-51.3 -1.63,-14.7 11.62,-50.1 28.25,-61.9 16.63,-11.8 134.83,-130 199.8,-134.1 64.97,-4.1 150.7,12.3 180.15,27 29.44,14.8 196.35,68.9 262.2,143.2 65.85,74.3 107.63,96.7 105.16,192.8 -1.45,56.1 -35.59,94.1 -39.49,87.7 -3.89,-6.4 -0.1,-30.7 -7.07,-52.3 -6.96,-21.5 -41.01,-110.3 -90.34,-141 -49.33,-30.8 -118.16,-77.3 -153.91,-85.9 -35.75,-8.6 -100.12,-37 -118.54,-38.6 -18.41,-1.6 -133.55,-3.2 -185.7,26.8 -52.15,30.1 -131.88,94.4 -142.16,87.6"
         style="fill:#807dfb;fill-opacity:1;fill-rule:nonzero;stroke:none"
         id="path282" /><path
         d="m 7182.43,13368.5 c -13.8,-6.8 -29.84,-15.6 -33.97,-41.3 -4.13,-25.7 -21.36,-24.2 0.88,-60.1 22.24,-35.8 32.43,-68.2 48.19,-125.8 13.64,-49.8 35.64,-156.3 73.44,-190 37.8,-33.7 77.53,-97.9 147.35,-111.8 69.81,-13.9 101.56,-38.6 115.91,-32.3 14.35,6.3 57.12,43.6 96.64,64.6 39.52,20.9 129.13,63.3 167.63,92.3 38.5,29 98.12,98.3 103.88,140.3 5.75,42.1 22.58,123.1 13.69,144.1 -9.19,2.1 -25.25,-8 -31.16,-32.7 -5.9,-24.7 -53.8,-107.7 -68.39,-121.8 -14.6,-14.1 -138.8,-125.5 -180.63,-144.7 -41.83,-19.1 -83.86,-46.1 -98.03,-43.3 -14.16,2.8 -96.34,24.1 -109.75,30.7 -13.42,6.6 -65.76,44.5 -76.17,71.1 -10.41,26.6 -42.19,84 -41.63,91.8 17.58,-10.4 145.88,-90.9 205.18,-89 59.3,1.9 82.04,42.2 93.22,39.2 11.18,-3 112.19,35.8 135.03,51.8 22.84,16.1 48.08,54.1 73.67,74.1 25.59,20.1 74.02,63.8 84.67,93.1 6.44,17.7 28.09,24.5 30.72,37.7 2.63,13.2 47.99,132.5 5.38,184.8 -14.34,-9.5 -61.51,-55.8 -58.73,-71.4 2.78,-15.6 7.86,-72.3 -13.89,-99.3 -21.76,-27.1 -185.98,-135.2 -209.76,-149.4 -23.78,-14.3 -62.92,-39.9 -67.2,-41.6 -17.25,2.1 -61.64,5.7 -82.18,1.3 -20.56,-4.4 -84.89,-8.6 -108.71,13.1 -23.81,21.8 -61.87,67.3 -77.24,75.6 -15.36,8.3 -79.48,41.4 -87.42,57.4 -7.95,15.9 -41.41,96.1 -50.62,91.5"
         style="fill:#807dfb;fill-opacity:1;fill-rule:nonzero;stroke:none"
         id="path284" /><path
         d="m 7353.4,12847.5 c -20.08,4 -95.09,99.4 -98.28,83.4 -3.2,-16.1 13.91,-142.2 60.03,-191.7 46.12,-49.4 101.89,-109.6 147.22,-118.6 45.33,-9.1 54.4,-7.9 80.07,7.6 25.67,15.5 64.27,81.2 89.5,94.4 25.23,13.3 103.21,36.1 112.83,56.8 9.61,20.6 19.96,67.7 22.97,82.8 3.01,15.1 45.28,49.9 49.79,72.5 4.52,22.7 22.36,42.6 -2.46,26.9 -24.83,-15.8 -83.99,-41.3 -93.37,-61.6 -9.38,-20.2 -60.57,-80.1 -85.11,-88.3 -24.55,-8.2 -67.45,-49.4 -78.27,-57.7 -10.82,-8.3 -54.36,-39.6 -81.18,-29.7 -26.83,9.9 -86.43,72.2 -89.98,93.9 -11.72,20 -17.08,26 -33.76,29.3"
         style="fill:#807dfb;fill-opacity:1;fill-rule:nonzero;stroke:none"
         id="path286" /><path
         d="m 7863.28,14387.3 c 23.83,-20.3 55.72,-88.3 73.34,-85.3 17.63,3.1 54.86,45.4 66.43,57.5 11.57,12.1 43.32,46.6 69.87,35.3 26.55,-11.3 38.66,-36 63.85,-41 25.18,-5 69.51,-19 67.26,-36.9 -2.25,-17.9 -10.97,-55.1 -29.5,-62.7 -18.53,-7.6 -42.46,-2.9 -56.56,-1.4 4.54,-16.6 11.65,-86.1 14.94,-95.9 3.28,-9.8 8.34,-43.5 -10.28,-58.2 -18.62,-14.6 -21.1,-59.9 -56.1,-64.7 -35,-4.8 -109.41,-112 -122.72,-134 -12.9,5.2 -34.37,9.1 -31.92,21.4 2.44,12.3 42.91,113.9 -9.79,187.5 -12.29,17.2 -14.39,36.3 -12.32,51.6 2.07,15.3 -3.76,100 -79.07,155.2 -20.37,14.9 1.66,37.9 4.49,47.2 2.83,9.2 24.58,44.5 48.08,24.4"
         style="fill:#807dfb;fill-opacity:1;fill-rule:nonzero;stroke:none"
         id="path288" /><path
         d="m 6965.27,13329.3 c 10.25,6.9 25.51,-19.8 82.16,-16.4 30.55,1.9 50.36,1.4 55.03,-4.7 4.66,-6.2 -48.6,-83.9 -81.96,-86.1 -25.87,-1.7 -86.38,86.4 -55.23,107.2"
         style="fill:#807dfb;fill-opacity:1;fill-rule:nonzero;stroke:none"
         id="path290" /><path
         d="m 7254.77,14701 c 21.52,-3.7 104.39,-18.2 107.03,-21.3 -1.38,-10.3 -4.3,-18.3 -2.01,-29.8 2.29,-11.5 -3.64,-33.9 19.12,-54.8 -3.55,-15 -19.65,-43.2 -40.17,-39.5 -20.53,3.8 -94.82,12 -104.77,17.9 -12.6,12.4 -28.37,51.5 -18.93,56.2 9.44,4.6 27.62,21.7 35.47,33.5 13.08,19.6 -6.53,39.6 4.26,37.8"
         style="fill:#807dfb;fill-opacity:1;fill-rule:nonzero;stroke:none"
         id="path292" /><path
         d="m 7209.01,14556.9 c 12.51,5.8 10.89,8.5 22.21,6.1 11.32,-2.3 98.72,-17.1 110.93,-18.2 12.21,-1.1 40.69,-22.5 27.09,-31.6 -13.59,-9.1 -33.22,-22.2 -38.75,-36.8 -5.52,-14.6 -3.88,-22.8 -17.22,-22.4 -13.35,0.4 -22.33,-7 -48.57,6.7 -26.24,13.7 -51.3,16.1 -54.83,28 -3.54,11.8 -24.7,57.2 -0.86,68.2"
         style="fill:#807dfb;fill-opacity:1;fill-rule:nonzero;stroke:none"
         id="path294" /><path
         d="m 7056.24,11373.3 c -20.13,-22.2 -63.16,-47.7 -99.43,-32.6 -36.28,15.1 -88.93,46.5 -99.28,66.9 -10.34,20.4 -22.22,72.5 -11.41,93.9 10.81,21.4 38.98,57.7 91.12,49.9 52.13,-7.7 158.66,-31.6 158.66,-31.6 -9.29,-20.4 -19.53,-124.4 -39.66,-146.5 z m -342.55,259.3 c -3.83,-0.9 -6.8,-3.1 -10.02,-4.9 -2.27,2.9 -4.18,6.1 -7.37,8.4 -40.68,29.7 -165.72,52.6 -178.62,106.2 -12.88,53.7 -56.3,32.9 -100.95,124.2 -44.65,91.4 0.23,178.7 21.75,198 21.51,19.2 75.48,63.5 101.93,48.4 26.46,-15.1 -9.38,-66.9 12.17,-86.9 21.55,-20 42.33,-37.2 42.33,-37.2 -12.32,-15.9 -34.95,-57.2 -20.07,-87.6 14.89,-30.5 27.27,-86.6 49.94,-104.3 19.42,-15 82.73,-53 101.31,-56.6 38.31,-7.7 91.59,7 115.29,13.5 27.69,7.6 60.64,54.7 86.05,77.1 25.42,22.5 20.34,69.3 15.04,88.7 0,0 25.8,7.9 53.36,18.2 27.57,10.2 14.3,71.7 44.51,75.5 30.22,3.9 63.13,-57.7 75.62,-83.7 12.48,-26.1 20.49,-123.9 -55.75,-191.2 -76.24,-67.3 -108.37,-31.5 -140.82,-76.1 -32.45,-44.5 -156.73,-17.8 -205.7,-29.7 z m -236.45,-149.3 c -17.36,-14.9 -78.04,-23.7 -117.32,-23.7 -39.29,-0.1 -69.29,39.9 -79.38,68.1 -10.1,28.2 20.28,128.2 19.51,150.6 0,0 107.54,-18.8 158.67,-31.6 51.13,-12.8 63.25,-57.1 65.03,-81 1.79,-23.9 -29.15,-67.5 -46.51,-82.4 z m 1070.5,376 c 22.65,15.1 87.19,82.8 102.26,185.8 15.07,103.1 24.69,215.1 -182.01,330.8 -206.71,115.8 -359.72,14.7 -419.19,-93.2 -57.08,61.7 -87.24,-17.4 -103.61,-14.1 -16.37,3.3 -14.14,47.3 -33.03,51.1 -18.88,3.7 -40.78,-7.6 -45.55,-25 -1.01,-5 -16.37,3.3 -29.22,4.5 -12.34,3.8 -29.71,2 -28.7,7.1 2.24,17.8 -13.64,36.7 -32.52,40.5 -18.9,3.7 -33.71,-37.8 -50.09,-34.6 -16.36,3.3 -13.92,87.9 -90.31,52.7 -13.58,122.5 -116.2,274.5 -351.48,246.7 -235.3,-27.7 -269.31,-134.9 -294.85,-235.8 -25.55,-101 8.14,-188.2 23.26,-210.9 15.14,-22.6 128.33,-50 128.93,-141.5 0.43,-66.8 -66.8,-69.2 -69.42,-92.2 -2.63,-23 31,-41.5 28.77,-82.3 -2.24,-40.8 6.44,-83.8 42.19,-122.3 35.76,-38.6 -0.08,-100.2 -2.31,-141 -2.23,-40.7 40.2,-192.6 143.34,-217 103.13,-24.5 260.21,34.6 287.39,62.5 27.16,28 74.45,73.6 98.01,70.9 3.65,2.5 15.01,0.3 17.39,-3.5 22.8,-6.5 49.03,-66.7 63.41,-103 14.38,-36.2 136.86,-150.9 241.5,-167.8 104.64,-16.9 201.99,107 215.55,145.6 13.57,38.5 4.06,109.1 51.85,131 47.79,21.9 72.26,58.3 85.83,96.8 13.56,38.6 51.71,42.8 58.11,65.1 6.4,22.2 -54.81,50.1 -28.8,111.7 35.6,84.3 150.65,66.3 173.3,81.4"
         style="fill:#807dfb;fill-opacity:1;fill-rule:nonzero;stroke:none"
         id="path296" /><path
         d="m 6668.3,11746.7 c -13.6,-9.1 25.05,-34.4 21.85,-43.1 -3.21,-8.7 36.27,-15.1 44.2,-17.2 7.93,-2 60.53,-1.7 63.55,6 3.01,7.8 15.84,30.3 7.24,36.4 -8.6,6.1 -57.41,-2.3 -73.75,1.9 -16.34,4.2 -48.65,25.7 -63.09,16"
         style="fill:#807dfb;fill-opacity:1;fill-rule:nonzero;stroke:none"
         id="path298" /><path
         d="m 6689.12,11688.6 c 16.9,-1.4 31.74,-8.3 46.28,-9.2 14.54,-1 44.13,2.1 45.44,-8.5 1.32,-10.7 3.59,-23.9 -5.37,-27 -8.97,-3.1 -57.69,-6.2 -65.53,-3.7 l -20.82,48.4"
         style="fill:#807dfb;fill-opacity:1;fill-rule:nonzero;stroke:none"
         id="path300" /><path
         d="m 6540.41,12112.9 c -7.15,59.4 -17.53,119 16.18,156.8 33.71,37.8 79.18,95.2 79.18,95.2 -6.51,58.7 -33.77,124.1 -86.04,173.3 -53,-50.3 -118.89,-125.8 -138.68,-205.5 -22.06,-88.8 13.41,-192.1 42.19,-255.7 25.64,20.9 65.51,48.3 87.17,35.9"
         style="fill:#6b67e9;fill-opacity:1;fill-rule:nonzero;stroke:none"
         id="path302" /><path
         d="m 7040.34,12013.3 c 29.36,52.1 61.8,103.3 45.14,151.1 -16.66,47.8 -36.68,118.3 -36.68,118.3 28.51,51.7 78.73,101.6 145.86,127.1 29.71,-66.7 61.64,-161.7 49.39,-242.9 -13.66,-90.6 -85.99,-172.4 -136.94,-220.1 -15.66,29.1 -42.03,69.7 -66.77,66.5"
         style="fill:#6b67e9;fill-opacity:1;fill-rule:nonzero;stroke:none"
         id="path304" /><path
         d="m 6300.05,11678.3 c -18.54,3.7 -106.73,24 -145.87,30.1 13.83,-35.5 -7.97,-81.5 -12.38,-115.9 41.3,-2.9 98.5,-8.2 140.07,-14.6 6.19,39 18.69,85.9 18.18,100.4"
         style="fill:#6b67e9;fill-opacity:1;fill-rule:nonzero;stroke:none"
         id="path306" /><path
         d="m 7242.25,11491.9 c -0.08,0 -0.15,0 -0.22,0 -27.19,0.7 -146.13,27.9 -146.13,27.9 -4.38,-9.6 -8.99,-37.8 -14.74,-67.3 48.98,-13.4 98.08,-28.5 133.74,-43.1 4.12,29.4 7.91,62.3 27.35,82.5"
         style="fill:#6b67e9;fill-opacity:1;fill-rule:nonzero;stroke:none"
         id="path308" /><path
         d="m 6680.18,11509.7 c 60.44,-17 107.32,-2.9 165.83,-8.5 0.05,0.1 0.06,0.2 0.11,0.3 10.81,21.4 38.99,57.7 91.12,49.9 -129.58,26.7 -193.68,26.4 -219.15,10.6 -21.5,-13.3 -10.98,-41.4 -34.72,-36.3 -22.04,4.8 -8.57,33.5 -26.35,54.2 -21.62,25.2 -80.92,44.4 -198.3,66.8 51.13,-12.8 63.25,-57.1 65.03,-81 0.4,-5.4 -1.03,-11.9 -3.43,-18.7 76.75,-8.8 102.15,-21.1 159.86,-37.3"
         style="fill:#6b67e9;fill-opacity:1;fill-rule:nonzero;stroke:none"
         id="path310" /><path
         d="m 10385.1,3603.1 c -31.3,2.2 -72.7,-29.8 -80.3,-66.3 -43.8,3.1 -55.5,3.9 -57.1,4 0,0 -49.3,98.7 -11.2,218.3 24,75.4 42.4,55.6 61,34.3 42.8,-40.1 227.2,-65.4 246.2,-4.1 47.3,-10.6 529.7,-186.9 526.5,-232.5 -5.2,-73.8 -63,-69.5 -102.4,-66.7 -465.8,32.8 -402.1,57.1 -582.7,113"
         style="fill:#362e94;fill-opacity:1;fill-rule:nonzero;stroke:none"
         id="path312" /><path
         d="m 10478.9,3889.2 c -11.1,71.3 -147.2,150.3 -173,16.7 -5.3,-27.9 -20.5,-75.7 -31.7,-97.6 h 0.1 c 37.4,-56.7 457.7,-201.1 534,-115 -46.9,29.5 -302.2,97.1 -329.4,195.9"
         style="fill:#f8d8d0;fill-opacity:1;fill-rule:nonzero;stroke:none"
         id="path314" /><path
         d="m 7511.46,4284.1 c -22.83,21.6 -75.11,23.1 -104.09,-0.4 -31.95,30.2 -40.49,38.3 -41.62,39.4 0,0 24.41,107.5 129.73,175.9 66.34,43.1 68.04,16.1 68.84,-12.1 7.68,-58.2 134.34,-194.6 187.8,-159.3 29.93,-38.1 291.22,-480.4 259.89,-513.5 -50.8,-53.8 -92.83,-13.8 -121.54,13.3 -339.44,320.6 -274.79,299 -379.01,456.7"
         style="fill:#362e94;fill-opacity:1;fill-rule:nonzero;stroke:none"
         id="path316" /><path
         d="m 7765.31,4445.9 c 36.68,62.2 -71.02,213.7 -147.93,116.9 -17.68,-22.2 -39.02,-39.8 -61.61,-49.7 l 0.08,-0.1 c -0.08,-77.8 226.49,-445.6 340.09,-427.4 -17.59,52.6 -172.11,266.7 -130.63,360.3"
         style="fill:#f8d8d0;fill-opacity:1;fill-rule:nonzero;stroke:none"
         id="path318" /><path
         d="m 8379,12657.1 c -12,75.4 -96.66,182.5 -119.99,292.3 -35.03,164.9 -21.74,376.4 104.45,379.9 126.2,3.5 110.58,-355.4 155.49,-361.4 38.37,-5.2 112.77,111.8 140.34,107.8 27.52,-4 -74.47,-144.6 -92.52,-223.4 -10.6,-46.4 -45.8,-77 -33.7,-133.5 -15.63,-5.9 -154.07,-61.7 -154.07,-61.7"
         style="fill:#f8d8d0;fill-opacity:1;fill-rule:nonzero;stroke:none"
         id="path320" /><path
         d="m 9198.72,10366.9 c -125.11,186.8 -405.65,599.6 -565.83,950 -125.7,188.9 -288.67,1340.2 -288.67,1340.2 50,92.1 108.9,120.2 235.42,80.6 37.96,-165.1 182.89,-833.3 332.46,-1152.8 180.11,-384.8 361.65,-588.6 370.53,-561.4 l -83.91,-656.6"
         style="fill:#dde2f8;fill-opacity:1;fill-rule:nonzero;stroke:none"
         id="path322" /><path
         d="m 12280.9,11769.3 c 9.3,62.3 70.5,106 123.9,200.6 80.2,141.9 129.3,341 13.9,380.8 -115.4,39.9 -205.2,-295.9 -248.4,-288.4 -36.9,6.4 -71.6,136 -98.2,140.3 -26.5,4.3 26.8,-155.1 20.5,-233 -3.6,-45.9 9.4,-103.6 3.6,-171.5 15.5,-4.4 184.7,-28.8 184.7,-28.8"
         style="fill:#f8d8d0;fill-opacity:1;fill-rule:nonzero;stroke:none"
         id="path324" /><path
         d="m 7617.38,4562.8 c 411.75,566.5 810.76,1467.1 1391.53,1885.6 L 9397.27,6107 C 8639.1,5255.8 7885.47,4562.4 7765.31,4445.9 c -70.78,-10.7 -139.53,46.3 -147.93,116.9"
         style="fill:#807dfb;fill-opacity:1;fill-rule:nonzero;stroke:none"
         id="path326" /><path
         d="m 10309.5,3920.6 c 89.7,794.4 -118.5,1725.1 34.2,2356.5 l 582.6,-70.7 c -142,-1115.5 -397.3,-2109.7 -447.4,-2317.2 -38.3,-42.3 -139,-34.6 -169.4,31.4"
         style="fill:#807dfb;fill-opacity:1;fill-rule:nonzero;stroke:none"
         id="path328" /><path
         d="m 10416.1,10950.6 c 244.6,-32.6 788.2,-90.2 925.1,24 192.2,160.2 575.6,653 733.7,844.8 59.9,72.7 260.3,-31.4 223.5,-101.5 -337,-641.2 -540.2,-820.9 -708.8,-1022 -159.5,-190.2 -923.3,-328.2 -1069.5,-329 -159.2,-1 -123.4,47.8 -198.8,200.2 -75.5,152.5 -36.6,401.1 94.8,383.5"
         style="fill:#dde2f8;fill-opacity:1;fill-rule:nonzero;stroke:none"
         id="path330" /><path
         d="m 10438,8880.1 c 5.8,258.1 264.4,1973.5 -21.9,2070.5 -288.2,97.7 -1020.51,143.2 -1133.47,72.9 -162.44,-306 -105.67,-863.3 -73.25,-1147.2 32.44,-284 53.4,-690.9 22.34,-981.8 119.88,-2.7 1206.28,-14.4 1206.28,-14.4"
         style="fill:#dde2f8;fill-opacity:1;fill-rule:nonzero;stroke:none"
         id="path332" /><path
         d="m 10438,8880.1 c 15.6,-319.5 281.2,-2080.4 775,-2881.2 -994.5,-321.3 -1962.46,-447.4 -2759.88,139.3 470.27,827 277.97,1941.8 778.6,2756.3 243.75,-4 1206.28,-14.4 1206.28,-14.4"
         style="fill:#dde2f8;fill-opacity:1;fill-rule:nonzero;stroke:none"
         id="path334" /><path
         d="m 12290.4,11769.1 c -96.7,-119.8 -654.6,-985.6 -833.7,-1048.1 -179.1,-62.5 -820.8,-258.3 -1029.1,-233.3 -208.4,25 -37.2,-56.6 0,-158.3 123.1,-337.6 -190.4,-1053.2 -195.9,-1482.7 -5,-395.5 -21.2,-2092.3 501.6,-2986.1 158.8,39.6 318.9,86.3 479.7,138.3 -493.8,800.8 -759.4,2561.7 -775,2881.2 0,0 -1,0 -1.7,0 1,0 1.7,0 1.7,0 3.7,166 112,934.9 112.7,1488.2 199.8,15.1 888.4,148 1038.9,327.6 168.6,201.1 371.9,380.8 708.8,1022 5.2,9.9 5.3,20.5 2.1,31.1 l -9.1,18.5 c -0.4,0.5 -0.7,1.1 -1,1.6"
         style="fill:#ced3f8;fill-opacity:1;fill-rule:nonzero;stroke:none"
         id="path336" /><path
         d="m 9827.23,12139 c -271.93,6.2 -617.42,-291.4 -525.49,-887.6 91.91,-596.3 -137.99,-1144.3 -516.89,-1145.5 230.96,-417.4 491.65,-681.1 914.84,-533.6 254.77,88.8 499.01,404.3 576.81,896.1 60.7,383.2 78.1,647.8 67.6,1070.2 -11.6,466.7 -283.8,595.1 -516.87,600.4"
         style="fill:#20196f;fill-opacity:1;fill-rule:nonzero;stroke:none"
         id="path338" /><path
         d="m 10369.1,7235.1 108.6,55.4 c -2.8,5.4 -275.8,549.6 -128.2,925.7 93.6,238.2 105.4,424.5 35.2,553.7 -43.5,80.1 -145.1,159 -241,154.1 -25.6,-1.4 -61.9,-4 -105.7,-7.2 -190.25,-13.8 -701.49,-37.2 -798.97,61.2 -52.07,-17.9 -73.5,-85.7 -34.51,-129.2 74.37,-46.9 349.23,-89.3 842.28,-53.5 42.8,3.1 78.2,5.7 103.1,7 59.7,3.1 101.6,-42.4 127.7,-90.5 35.9,-66.1 57.9,-198 -41.5,-451.1 -167.7,-427.4 120.7,-1001.3 133,-1025.6"
         style="fill:#ffffff;fill-opacity:1;fill-rule:nonzero;stroke:none"
         id="path340" /><path
         d="m 9305.68,8777.3 c 24.62,-69.4 96.59,-55.4 78.71,-14.2 -17.88,41.2 -22.01,128.6 34.37,191.1 56.39,62.5 -35.54,69.7 -78.72,14.2 -43.16,-55.6 -58.99,-121.8 -34.36,-191.1"
         style="fill:#dde2f8;fill-opacity:1;fill-rule:nonzero;stroke:none"
         id="path342" /><path
         d="m 9867.28,8739 c 41.61,-60.7 107.58,-28.8 79.72,6.5 -27.86,35.2 -54.28,118.6 -15.82,193.5 38.46,74.9 -52.25,58.2 -79.72,-6.5 -27.46,-64.8 -25.77,-132.8 15.82,-193.5"
         style="fill:#dde2f8;fill-opacity:1;fill-rule:nonzero;stroke:none"
         id="path344" /><path
         d="m 4221.75,14588.4 -280.35,-56.9 c -21.93,-4.5 -39.82,-20.3 -46.93,-41.5 l -90.92,-271.3 c -7.1,-21.2 -2.36,-44.6 12.46,-61.3 l 189.5,-214.4 c 14.82,-16.7 37.42,-24.3 59.35,-19.9 l 280.35,56.9 c 21.92,4.5 39.81,20.3 46.92,41.5 l 90.92,271.3 c 7.1,21.2 2.37,44.5 -12.45,61.3 l -189.48,214.4 c -14.82,16.8 -37.45,24.3 -59.37,19.9"
         style="fill:#ffd03e;fill-opacity:1;fill-rule:nonzero;stroke:none"
         id="path346" /><path
         d="m 12450.6,17809.5 120.3,-428.5 c 13,-46.5 71.4,-61.3 105.1,-26.8 l 310.9,318.4 c 33.7,34.5 17.4,92.5 -29.3,104.4 l -431.3,110.1 c -46.7,11.9 -88.8,-31.2 -75.7,-77.6"
         style="fill:#807dfb;fill-opacity:1;fill-rule:nonzero;stroke:none"
         id="path348" /><path
         d="m 13777.5,2792.1 -304,-325 c -33,-35.2 -15.4,-92.9 31.5,-103.8 l 433.5,-100.8 c 47,-10.9 88.2,33.1 74.1,79.2 l -129.4,425.8 c -14.1,46.2 -72.7,59.8 -105.7,24.6"
         style="fill:#807dfb;fill-opacity:1;fill-rule:nonzero;stroke:none"
         id="path350" /></g></g></svg>
